<?xml version="1.0" encoding="utf-8"?>
<!-- Generator: Adobe Illustrator 15.0.0, SVG Export Plug-In . SVG Version: 6.00 Build 0)  -->
<!DOCTYPE svg PUBLIC "-//W3C//DTD SVG 1.1//EN" "http://www.w3.org/Graphics/SVG/1.1/DTD/svg11.dtd">
<svg version="1.1" id="Layer_1" xmlns="http://www.w3.org/2000/svg" xmlns:xlink="http://www.w3.org/1999/xlink" x="0px" y="0px"
	 width="157px" height="157px" viewBox="0 0 157 157" enable-background="new 0 0 157 157" xml:space="preserve">
<g>
	<g>
		<g>
			<path fill="#FFFFFF" d="M71.562,73.727h-0.117c-0.426,0-0.803,0.27-0.938,0.68l-1.813,5.469l-1.82-5.469
				c-0.137-0.41-0.512-0.68-0.936-0.68h-0.17c-0.425,0-0.801,0.27-0.936,0.68l-1.814,5.469l-1.819-5.477
				c-0.137-0.402-0.515-0.672-0.939-0.672h-0.116c-0.316,0-0.615,0.152-0.802,0.408c-0.186,0.26-0.232,0.592-0.133,0.896l2.798,8.25
				c0.138,0.402,0.511,0.668,0.937,0.668h0.065h0.011c0.008,0,0.01,0,0.01,0h0.059c0.421,0,0.8-0.266,0.936-0.668l1.834-5.451
				l1.826,5.445c0.135,0.408,0.51,0.674,0.936,0.674h0.063h0.015c0.006,0,0.008,0,0.008,0h0.059c0.422,0,0.797-0.266,0.932-0.668
				l2.803-8.25c0.1-0.305,0.051-0.637-0.135-0.896C72.179,73.879,71.88,73.727,71.562,73.727L71.562,73.727z M71.562,73.727"/>
			<path fill="#FFFFFF" d="M85.247,73.727h-0.113c-0.426,0-0.805,0.27-0.938,0.68l-1.814,5.469l-1.82-5.469
				c-0.133-0.41-0.512-0.68-0.938-0.68h-0.166c-0.426,0-0.803,0.27-0.938,0.68l-1.813,5.469l-1.822-5.469
				c-0.135-0.41-0.512-0.68-0.938-0.68h-0.117c-0.316,0-0.615,0.152-0.801,0.408c-0.186,0.26-0.232,0.592-0.133,0.896l2.799,8.25
				c0.137,0.402,0.512,0.668,0.934,0.668h0.066h0.012c0.006,0,0.01,0,0.01,0h0.059c0.422,0,0.801-0.266,0.936-0.668l1.834-5.451
				l1.824,5.451c0.137,0.402,0.514,0.668,0.938,0.668h0.064h0.014c0.002,0,0.008,0,0.008,0h0.057c0.424,0,0.801-0.266,0.934-0.668
				l2.801-8.25c0.102-0.305,0.051-0.637-0.135-0.896C85.864,73.879,85.567,73.727,85.247,73.727L85.247,73.727z M85.247,73.727"/>
			<path fill="#FFFFFF" d="M98.937,73.727h-0.115c-0.426,0-0.803,0.27-0.934,0.68l-1.816,5.469l-1.822-5.469
				c-0.135-0.41-0.51-0.68-0.936-0.68h-0.166c-0.426,0-0.803,0.27-0.936,0.68l-1.816,5.469l-1.822-5.469
				c-0.135-0.41-0.51-0.68-0.936-0.68h-0.117c-0.316,0-0.615,0.152-0.801,0.408c-0.186,0.26-0.234,0.592-0.135,0.896l2.801,8.25
				c0.137,0.402,0.514,0.676,0.932,0.676h0.068c0,0,0.008-0.008,0.014-0.008l0.014,0.008h0.051c0.426,0,0.799-0.273,0.936-0.676
				l1.836-5.445l1.824,5.445c0.137,0.402,0.512,0.676,0.936,0.676h0.066c0,0,0.008-0.008,0.012-0.008l0.014,0.008h0.053
				c0.422,0,0.799-0.271,0.936-0.676l2.797-8.25c0.104-0.305,0.053-0.633-0.133-0.896C99.554,73.879,99.255,73.727,98.937,73.727
				L98.937,73.727z M98.937,73.727"/>
			<path fill="#FFFFFF" d="M54.063,102.625V65.617l50.956,0.006v21.174c1.025-0.881,2.311-1.363,3.672-1.363
				c0.211,0,0.422,0.016,0.623,0.033V56.402c0-1.975-1.605-3.578-3.578-3.578l-52.39-0.002c-1.973,0-3.577,1.607-3.577,3.578v46.939
				c0,1.973,1.604,3.582,3.577,3.582h34.138c-0.822-1.297-1.422-2.742-1.734-4.297H54.063z M101.091,58.834
				c0-0.729,0.588-1.322,1.322-1.322h1.32c0.73,0,1.322,0.592,1.322,1.322v1.496c0,0.73-0.592,1.32-1.322,1.32h-1.32
				c-0.734,0-1.322-0.588-1.322-1.318V58.834z M94.946,58.834c0-0.729,0.59-1.322,1.32-1.322h1.324c0.73,0,1.322,0.594,1.322,1.322
				v1.498c0,0.73-0.592,1.318-1.322,1.318h-1.324c-0.73,0-1.32-0.588-1.32-1.318V58.834z M88.802,58.834
				c0-0.729,0.594-1.322,1.322-1.322h1.32c0.73,0,1.324,0.594,1.324,1.322v1.498c0,0.73-0.594,1.318-1.324,1.318h-1.32
				c-0.729,0-1.322-0.592-1.322-1.318V58.834z M88.802,58.834"/>
			<path fill="#FFFFFF" d="M113.038,93.027c0-0.695-0.271-1.348-0.764-1.842l-1.953-1.951c-0.49-0.492-1.145-0.762-1.842-0.762
				c-0.693,0-1.352,0.27-1.842,0.762l-2.977,2.979c-1.59-1.139-3.537-1.816-5.643-1.816c-5.357,0-9.697,4.346-9.697,9.701
				c0,5.357,4.34,9.699,9.697,9.699c5.354,0,9.697-4.342,9.697-9.699c0-0.215-0.008-0.436-0.023-0.645l4.582-4.584
				C112.767,94.379,113.038,93.725,113.038,93.027L113.038,93.027z M110.159,93.607l-9.33,9.33c-0.195,0.195-0.461,0.301-0.74,0.301
				c-0.277,0-0.545-0.105-0.74-0.301l-4.322-4.33c-0.408-0.41-0.408-1.072,0-1.482l0.832-0.832c0.408-0.406,1.07-0.406,1.48,0
				l2.75,2.74l7.746-7.744c0.197-0.201,0.463-0.311,0.742-0.311c0.277,0,0.543,0.113,0.738,0.311l0.844,0.836
				C110.565,92.533,110.565,93.199,110.159,93.607L110.159,93.607z M110.159,93.607"/>
		</g>
	</g>
	<circle fill="none" stroke="#FFFFFF" stroke-width="1.3287" stroke-miterlimit="10" cx="78.459" cy="78.392" r="78.257"/>
</g>
</svg>
