<?xml version="1.0" encoding="utf-8"?>
<!-- Generator: Adobe Illustrator 15.0.0, SVG Export Plug-In . SVG Version: 6.00 Build 0)  -->
<!DOCTYPE svg PUBLIC "-//W3C//DTD SVG 1.1//EN" "http://www.w3.org/Graphics/SVG/1.1/DTD/svg11.dtd">
<svg version="1.1" id="Layer_1" xmlns="http://www.w3.org/2000/svg" xmlns:xlink="http://www.w3.org/1999/xlink" x="0px" y="0px"
	 width="120px" height="120px" viewBox="0 0 120 120" enable-background="new 0 0 120 120" xml:space="preserve">
<g>
	<path fill="#FFFFFF" d="M80.089,57.139V43.168h-40v36h40v-12h10.413L80.089,57.139z M60.281,71.169H50.112
		c0-3,6.036-5.709,7.653-5.961c0.503-0.082,0.515-1.521,0.515-1.521s-1.475-1.494-1.798-3.457c-0.864,0-1.398-2.104-0.533-2.836
		c-0.035-0.775-1.112-6.076,4.333-6.076c5.445,0,4.369,5.29,4.332,6.064c0.865,0.732,0.331,2.818-0.532,2.818
		c-0.321,1.965-1.796,3.424-1.796,3.424s0.012,1.502,0.513,1.584c1.616,0.252,7.653,2.961,7.653,5.961H60.281z"/>
	<circle fill="none" stroke="#FFFFFF" stroke-width="0.7125" stroke-miterlimit="10" cx="60" cy="59.999" r="59.851"/>
</g>
</svg>
