<?xml version="1.0" encoding="utf-8"?>
<!-- Generator: Adobe Illustrator 15.0.0, SVG Export Plug-In . SVG Version: 6.00 Build 0)  -->
<!DOCTYPE svg PUBLIC "-//W3C//DTD SVG 1.1//EN" "http://www.w3.org/Graphics/SVG/1.1/DTD/svg11.dtd">
<svg version="1.1" id="Layer_1" xmlns="http://www.w3.org/2000/svg" xmlns:xlink="http://www.w3.org/1999/xlink" x="0px" y="0px"
	 width="142px" height="142px" viewBox="0 0 142 142" enable-background="new 0 0 142 142" xml:space="preserve">
<circle fill-rule="evenodd" clip-rule="evenodd" fill="#FCAE00" cx="71" cy="70.999" r="70.702"/>
<path fill="#AA7202" d="M102.42,49.711L99.19,93.586l-66.026,3.223l64.531,39.674c0,0,36.475-12.771,43.725-56.271L102.42,49.711z"
	/>
<g>
	<path fill="#FFFFFF" d="M76.99,105.607c-1.27-0.933-1.405-2.334-1.405-2.334l-0.476-3.042H59.945l-0.48,3.038
		c0,0-0.131,1.405-1.4,2.338c-1.27,0.934-2.27,1.734-1.27,1.87c0.966,0.129,10.061,0.011,10.732,0c0.672,0.011,9.767,0.129,10.729,0
		C79.257,107.342,78.256,106.541,76.99,105.607L76.99,105.607z M76.99,105.607"/>
	<g>
		<g>
			<path fill="#FFFFFF" d="M50.442,81.306c4.055-0.032,4.558-1.009,5.878-5.073c2.434-6.422,13.405,1.682,6.606,4.49
				C56.131,83.537,46.392,81.338,50.442,81.306L50.442,81.306z M50.442,81.306"/>
			<path fill="#FFFFFF" d="M91.986,38.998c-1.966-1.582-5.223-0.801-7.274,1.746L63.927,70.275c-2.052,2.546-2.041,2.06-0.079,3.645
				c1.967,1.584,1.494,1.697,3.547-0.852L91.833,46.48C93.882,43.934,93.953,40.584,91.986,38.998L91.986,38.998z M86.643,42.535
				c0,0-0.305-0.354-1.316-1.162c1.52-2.481,4.502-2.027,4.502-2.027C87,41.019,86.643,42.535,86.643,42.535L86.643,42.535z
				 M86.643,42.535"/>
		</g>
		<path fill="#FFFFFF" d="M101.207,48.98h-9.143l-4.035,4.393H99.74v35.143H35.313V53.373h37.479l3.092-4.393H33.848
			c-1.615,0-2.928,1.312-2.928,2.928v42.465c0,1.618,1.313,2.93,2.928,2.93h67.359c1.615,0,2.928-1.312,2.928-2.93V51.908
			C104.135,50.292,102.822,48.98,101.207,48.98L101.207,48.98z M101.207,48.98"/>
	</g>
</g>
</svg>
