<?xml version="1.0" encoding="utf-8"?>
<!-- Generator: Adobe Illustrator 15.0.0, SVG Export Plug-In . SVG Version: 6.00 Build 0)  -->
<!DOCTYPE svg PUBLIC "-//W3C//DTD SVG 1.1//EN" "http://www.w3.org/Graphics/SVG/1.1/DTD/svg11.dtd">
<svg version="1.1" id="Layer_1" xmlns="http://www.w3.org/2000/svg" xmlns:xlink="http://www.w3.org/1999/xlink" x="0px" y="0px"
	 width="142px" height="142px" viewBox="0 0 142 142" enable-background="new 0 0 142 142" xml:space="preserve">
<g>
	<path fill-rule="evenodd" clip-rule="evenodd" fill="#FCAE00" d="M141.702,71.002c0,39.043-31.654,70.7-70.702,70.7
		S0.298,110.045,0.298,71C0.298,31.95,31.952,0.298,71,0.298C110.048,0.301,141.702,31.95,141.702,71.002z"/>
	<path fill="#AA7202" d="M102.954,95.218l-63.655,2.964l55.641,39.362c19.2-8.322,39.333-23.21,45.304-52.195l-34.658-28.121"/>
	<g>
		<g>
			<path fill="#FFFFFF" d="M102.195,53.91H88.013l-0.479-3.396l-0.368-2.279c-0.147-0.912-0.635-1.683-1.399-2.313
				c-0.783-0.664-1.62-1.004-2.542-1.002h-23.06c-0.92,0-1.768,0.326-2.541,1.002c-0.774,0.654-1.184,1.434-1.326,2.313l-0.368,2.28
				l-0.517,3.396H41.306c-1.879,0-3.39,1.507-3.39,3.315v37.575c0,1.872,1.511,3.381,3.39,3.381l60.89,0.002
				c1.879,0,3.39-1.509,3.39-3.383V57.228C105.585,55.419,104.074,53.91,102.195,53.91z M101.496,94.097H41.969V57.952h13.444
				c2.027,0,3.775-1.502,4.053-3.449l0.479-3.395l0.368-2.101h22.839l0.332,2.103l0.515,3.393c0.296,1.945,2.063,3.449,4.015,3.449
				h13.483V94.097L101.496,94.097z"/>
			<path fill="#FFFFFF" d="M94.938,67.574c1.768,0,3.243-1.507,3.243-3.282c0-1.794-1.437-3.317-3.243-3.317
				c-1.805,0-3.24,1.523-3.24,3.317C91.697,66.067,93.17,67.574,94.938,67.574z"/>
			<path fill="#FFFFFF" d="M71.695,59.028c-4.162,0-7.771,1.512-10.756,4.492c-2.984,2.981-4.494,6.586-4.494,10.753
				c0,4.166,1.51,7.778,4.494,10.755c2.984,2.99,6.594,4.4,10.756,4.463c8.251,0.122,15.348-7.034,15.248-15.218
				c-0.049-4.194-1.509-7.771-4.492-10.753C79.467,60.542,75.896,59.028,71.695,59.028z M79.577,82.198
				c-2.173,2.173-4.788,3.24-7.882,3.24c-3.057,0-5.673-1.069-7.847-3.244c-2.173-2.173-3.241-4.819-3.241-7.921
				c0-3.06,1.068-5.699,3.241-7.882c2.174-2.17,4.79-3.274,7.847-3.274c3.094,0,5.709,1.104,7.882,3.274
				c2.176,2.183,3.278,4.822,3.278,7.882C82.855,77.375,81.753,80.021,79.577,82.198z"/>
		</g>
	</g>
</g>
</svg>
