<?xml version="1.0" encoding="utf-8"?>
<!-- Generator: Adobe Illustrator 15.0.0, SVG Export Plug-In . SVG Version: 6.00 Build 0)  -->
<!DOCTYPE svg PUBLIC "-//W3C//DTD SVG 1.1//EN" "http://www.w3.org/Graphics/SVG/1.1/DTD/svg11.dtd">
<svg version="1.1" id="Layer_1" xmlns="http://www.w3.org/2000/svg" xmlns:xlink="http://www.w3.org/1999/xlink" x="0px" y="0px"
	 width="142px" height="142px" viewBox="0 0 142 142" enable-background="new 0 0 142 142" xml:space="preserve">
<g>
	<circle fill-rule="evenodd" clip-rule="evenodd" fill="#FCAE00" cx="71" cy="70.703" r="70.702"/>
	<path fill="#AA7202" d="M102.954,94.922l-63.655,2.964l55.641,39.361c19.2-8.319,39.333-23.208,45.304-52.194l-34.658-28.127"/>
	<g>
		<g>
			<path fill="#177C6C" d="M102.195,53.609H88.013l-0.479-3.388l-0.368-2.284c-0.147-0.92-0.635-1.684-1.399-2.32
				c-0.783-0.652-1.62-0.996-2.542-0.994h-23.06c-0.92,0-1.768,0.33-2.541,0.993c-0.774,0.663-1.184,1.441-1.326,2.321l-0.368,2.285
				l-0.517,3.387H41.306c-1.879,0-3.39,1.511-3.39,3.315v37.572c0,1.879,1.511,3.389,3.39,3.389l60.89,0.001
				c1.879,0,3.39-1.51,3.39-3.389V56.926C105.585,55.121,104.074,53.609,102.195,53.609z M101.496,93.798l-59.527,0.001V57.662
				h13.444c2.027,0,3.775-1.508,4.053-3.463l0.479-3.389l0.368-2.1h22.839l0.332,2.101l0.515,3.389
				c0.296,1.952,2.063,3.463,4.015,3.463h13.483V93.798L101.496,93.798z"/>
			<path fill="#177C6C" d="M94.938,67.275c1.768,0,3.243-1.51,3.243-3.277c0-1.804-1.437-3.315-3.243-3.315
				c-1.805,0-3.24,1.512-3.24,3.315C91.697,65.766,93.17,67.275,94.938,67.275z"/>
			<path fill="#177C6C" d="M71.695,58.73c-4.162,0-7.771,1.508-10.756,4.494c-2.984,2.982-4.494,6.592-4.494,10.756
				c0,4.162,1.51,7.773,4.494,10.756c2.984,2.984,6.594,4.397,10.756,4.459c8.251,0.121,15.348-7.036,15.248-15.215
				c-0.049-4.199-1.509-7.772-4.492-10.756C79.467,60.24,75.896,58.73,71.695,58.73z M79.577,81.9
				c-2.173,2.174-4.788,3.24-7.882,3.24c-3.057,0-5.673-1.068-7.847-3.241c-2.173-2.173-3.241-4.825-3.241-7.919
				c0-3.057,1.068-5.711,3.241-7.885c2.174-2.17,4.79-3.276,7.847-3.276c3.094,0,5.709,1.106,7.882,3.276
				c2.176,2.174,3.278,4.828,3.278,7.885C82.855,77.075,81.753,79.727,79.577,81.9z"/>
		</g>
	</g>
</g>
</svg>
