<?xml version="1.0" encoding="utf-8"?>
<!-- Generator: Adobe Illustrator 15.0.0, SVG Export Plug-In . SVG Version: 6.00 Build 0)  -->
<!DOCTYPE svg PUBLIC "-//W3C//DTD SVG 1.1//EN" "http://www.w3.org/Graphics/SVG/1.1/DTD/svg11.dtd">
<svg version="1.1" id="Layer_1" xmlns="http://www.w3.org/2000/svg" xmlns:xlink="http://www.w3.org/1999/xlink" x="0px" y="0px"
	 width="1149px" height="154px" viewBox="0 0 1149 154" enable-background="new 0 0 1149 154" xml:space="preserve">
<g>
	<path fill="#4C6593" d="M980.086,23.108c0,3.902-3.213,9.11-8.926,9.11l-777.239-0.001c-5.72,0-8.664-5.208-8.664-9.11V6.158
		c0-3.9,2.944-6.019,8.664-6.019L971.16,0.142c5.713,0,8.926,2.119,8.926,6.019V23.108z"/>
	<g opacity="0.2">
		<path opacity="0.4" fill="#494949" d="M110.229,120.783v-19.812H34.72l-0.067,27.313c0,14.17,17.285,25.667,38.627,25.667
			c21.334,0,38.635-11.497,38.635-25.667C111.915,125.681,111.318,123.172,110.229,120.783"/>
		<path opacity="0.4" fill="#494949" d="M247.748,117.901v-16.93h-71.979v17.2c-2.042,3.102-3.182,6.519-3.182,10.112
			c0,14.17,17.568,25.667,39.262,25.667c21.682,0,39.267-11.497,39.267-25.667C251.115,124.587,249.895,121.092,247.748,117.901"/>
		<path opacity="0.4" fill="#494949" d="M391.586,117.974v-16.995l-74.581-0.001v17.135c-2.136,3.128-3.332,6.557-3.332,10.172
			c0,14.17,18.22,25.667,40.676,25.667c22.466,0,40.678-11.496,40.678-25.665C395.027,124.61,393.781,121.137,391.586,117.974"/>
		<path opacity="0.4" fill="#494949" d="M103.262,100.972v27.313c0,14.17,16.341,25.667,36.48,25.667
			c20.146,0,36.487-11.497,36.487-25.667v-27.313H103.262z"/>
		<path opacity="0.4" fill="#494949" d="M247.006,100.972v27.313c0,14.17,16.14,25.667,36.064,25.667
			c19.891,0,36.042-11.497,36.042-25.667v-27.313H247.006z"/>
		<path opacity="0.4" fill="#494949" d="M465.744,100.973h-77.189v27.313c0,14.169,17.312,25.665,38.622,25.665
			c21.345,0,38.639-11.496,38.639-25.665L465.744,100.973z"/>
		<path opacity="0.4" fill="#494949" d="M538.207,120.784v-19.811l-75.505-0.001l-0.066,27.313c0,14.169,17.3,25.665,38.626,25.665
			c21.338,0,38.631-11.494,38.631-25.664C539.892,125.683,539.296,123.173,538.207,120.784"/>
		<path opacity="0.4" fill="#494949" d="M678.414,117.902v-16.929h-73.229v17.2c-2.072,3.102-3.236,6.519-3.236,10.113
			c0,14.17,17.877,25.665,39.939,25.665c22.055,0,39.945-11.495,39.945-25.665C681.834,124.588,680.594,121.093,678.414,117.902"/>
		<path opacity="0.4" fill="#494949" d="M533.419,100.974v27.313c0,14.17,16.294,25.665,36.358,25.665
			c20.079,0,36.375-11.495,36.375-25.665v-27.313H533.419z"/>
		<path opacity="0.4" fill="#494949" d="M677.477,100.974v27.313c0,14.17,16.732,25.665,37.377,25.665
			c20.654,0,37.367-11.495,37.367-25.665v-27.313H677.477z"/>
		<path opacity="0.4" fill="#494949" d="M893.74,100.975h-77.197v27.309c0,14.174,17.305,25.669,38.623,25.669
			c21.361,0,38.629-11.495,38.629-25.669L893.74,100.975z"/>
		<path opacity="0.4" fill="#494949" d="M966.248,120.785v-19.811h-72.4l-0.053,27.309c0,14.174,16.584,25.669,37.037,25.669
			c20.471,0,37.033-11.495,37.033-25.669C967.865,125.683,967.305,123.173,966.248,120.785"/>
		<path opacity="0.4" fill="#494949" d="M1108.871,117.905v-16.93l-73.428-0.001v17.2c-2.076,3.101-3.244,6.519-3.244,10.108
			c0,14.174,17.924,25.669,40.047,25.669c22.121,0.002,40.08-11.493,40.08-25.666
			C1112.326,124.589,1111.066,121.095,1108.871,117.905"/>
		<path opacity="0.4" fill="#494949" d="M965.531,100.975v27.309c0,14.174,15.936,25.669,35.58,25.669
			c19.662,0,35.596-11.495,35.596-25.669v-27.309H965.531z"/>
		<path opacity="0.4" fill="#494949" d="M821.039,117.975v-16.995h-72.107v17.134c0,0,0.371,32.873,38.031,32.874
			C824.631,150.987,821.039,117.975,821.039,117.975"/>
	</g>
	<linearGradient id="SVGID_1_" gradientUnits="userSpaceOnUse" x1="41.9199" y1="110.2832" x2="41.9199" y2="51.4465">
		<stop  offset="0" style="stop-color:#FFFFFF"/>
		<stop  offset="1" style="stop-color:#D1D3D4"/>
	</linearGradient>
	<path fill="url(#SVGID_1_)" d="M78.854,97.258V77.452h-75.5l-0.064,27.309c0,14.169,17.286,25.663,38.615,25.663
		c21.347,0,38.647-11.494,38.647-25.663C80.551,102.155,79.955,99.646,78.854,97.258"/>
	<linearGradient id="SVGID_2_" gradientUnits="userSpaceOnUse" x1="180.4863" y1="110.2832" x2="180.4863" y2="51.4465">
		<stop  offset="0" style="stop-color:#FFFFFF"/>
		<stop  offset="1" style="stop-color:#D1D3D4"/>
	</linearGradient>
	<path fill="url(#SVGID_2_)" d="M216.387,94.375V77.452h-71.983v17.192c-2.045,3.105-3.182,6.521-3.182,10.116
		c0,14.169,17.562,25.663,39.247,25.663c21.705,0,39.282-11.494,39.282-25.663C219.75,101.063,218.527,97.563,216.387,94.375"/>
	<linearGradient id="SVGID_3_" gradientUnits="userSpaceOnUse" x1="322.9824" y1="110.2822" x2="322.9824" y2="51.444">
		<stop  offset="0" style="stop-color:#FFFFFF"/>
		<stop  offset="1" style="stop-color:#D1D3D4"/>
	</linearGradient>
	<path fill="url(#SVGID_3_)" d="M360.222,94.448V77.455l-74.585-0.002v17.136c-2.128,3.129-3.332,6.559-3.332,10.172
		c0,14.169,18.22,25.663,40.68,25.663c22.467,0,40.675-11.493,40.675-25.662C363.66,101.088,362.405,97.613,360.222,94.448"/>
	<path fill="#4C6593" d="M71.895,77.452v27.309c0,14.169,16.344,25.663,36.476,25.663c20.153,0,36.483-11.494,36.483-25.663V77.452
		H71.895z"/>
	<path fill="#4C6593" d="M215.638,77.452v27.309c0,14.169,16.14,25.663,36.065,25.663c19.898,0,36.042-11.494,36.042-25.663V77.452
		H215.638z"/>
	<path fill="#4C6593" d="M434.374,77.453h-77.183v27.309c0,14.169,17.312,25.662,38.622,25.662
		c21.342,0,38.636-11.493,38.636-25.662L434.374,77.453z"/>
	<linearGradient id="SVGID_4_" gradientUnits="userSpaceOnUse" x1="469.8979" y1="110.2832" x2="469.8979" y2="51.4476">
		<stop  offset="0" style="stop-color:#FFFFFF"/>
		<stop  offset="1" style="stop-color:#D1D3D4"/>
	</linearGradient>
	<path fill="url(#SVGID_4_)" d="M506.838,97.258V77.453h-75.492l-0.079,27.309c0,14.169,17.292,25.662,38.619,25.662
		c21.351,0,38.644-11.493,38.644-25.662C508.529,102.155,507.932,99.646,506.838,97.258"/>
	<linearGradient id="SVGID_5_" gradientUnits="userSpaceOnUse" x1="610.5273" y1="110.2842" x2="610.5273" y2="51.4486">
		<stop  offset="0" style="stop-color:#FFFFFF"/>
		<stop  offset="1" style="stop-color:#D1D3D4"/>
	</linearGradient>
	<path fill="url(#SVGID_5_)" d="M647.047,94.377V77.454h-73.229v17.193c-2.076,3.104-3.232,6.52-3.232,10.115
		c0,14.169,17.872,25.662,39.934,25.662c22.057,0,39.949-11.493,39.949-25.662C650.469,101.064,649.232,97.564,647.047,94.377"/>
	<path fill="#4C6593" d="M502.051,77.453v27.309c0,14.169,16.294,25.662,36.362,25.663c20.078,0,36.369-11.493,36.369-25.662V77.454
		L502.051,77.453z"/>
	<path fill="#4C6593" d="M646.115,77.454v27.309c0,14.169,16.732,25.662,37.369,25.662c20.656,0,37.371-11.493,37.371-25.662V77.454
		H646.115z"/>
	<path fill="#4C6593" d="M862.371,77.454h-77.193v27.31c0,14.168,17.305,25.662,38.621,25.662c21.357,0,38.633-11.494,38.633-25.662
		L862.371,77.454z"/>
	<linearGradient id="SVGID_6_" gradientUnits="userSpaceOnUse" x1="899.4648" y1="110.2852" x2="899.4648" y2="51.4485">
		<stop  offset="0" style="stop-color:#FFFFFF"/>
		<stop  offset="1" style="stop-color:#D1D3D4"/>
	</linearGradient>
	<path fill="url(#SVGID_6_)" d="M934.887,97.259V77.454h-72.4l-0.055,27.31c0,14.168,16.582,25.662,37.033,25.662
		c20.475,0,37.033-11.494,37.033-25.662C936.498,102.157,935.943,99.647,934.887,97.259"/>
	<linearGradient id="SVGID_7_" gradientUnits="userSpaceOnUse" x1="1040.8916" y1="110.2852" x2="1040.8916" y2="51.4485">
		<stop  offset="0" style="stop-color:#FFFFFF"/>
		<stop  offset="1" style="stop-color:#D1D3D4"/>
	</linearGradient>
	<path fill="url(#SVGID_7_)" d="M1077.504,94.378V77.454h-73.424v17.194c-2.08,3.101-3.254,6.519-3.254,10.115
		c0,14.168,17.922,25.662,40.053,25.662c22.119,0,40.078-11.491,40.078-25.661C1080.957,101.066,1079.699,97.565,1077.504,94.378"/>
	<path fill="#4C6593" d="M1076.633,77.454v27.31c0,14.168,16.168,25.664,36.119,25.664c19.934,0,36.113-11.493,36.113-25.663V77.458
		L1076.633,77.454z"/>
	<path fill="#4C6593" d="M934.16,77.454v27.31c0,14.168,15.938,25.662,35.582,25.662c19.666,0,35.604-11.494,35.604-25.662v-27.31
		H934.16z"/>
	<linearGradient id="SVGID_8_" gradientUnits="userSpaceOnUse" x1="753.6611" y1="110.2871" x2="753.6611" y2="51.4477">
		<stop  offset="0" style="stop-color:#FFFFFF"/>
		<stop  offset="1" style="stop-color:#D1D3D4"/>
	</linearGradient>
	<path fill="url(#SVGID_8_)" d="M789.67,94.449V77.458l-72.109-0.001v17.134c0,0,0.379,32.876,38.035,32.876
		C793.26,127.465,789.67,94.449,789.67,94.449"/>
	<polygon fill="none" points="1002.629,10.612 137.354,10.61 65.369,85.501 1074.115,85.503 	"/>
	<linearGradient id="SVGID_9_" gradientUnits="userSpaceOnUse" x1="142.73" y1="79.7861" x2="142.73" y2="10.6108">
		<stop  offset="0" style="stop-color:#FFFFFF"/>
		<stop  offset="1" style="stop-color:#D1D3D4"/>
	</linearGradient>
	<polygon fill="url(#SVGID_9_)" points="241.595,10.61 0.7,79.786 73.035,79.786 284.76,10.61 	"/>
	<linearGradient id="SVGID_10_" gradientUnits="userSpaceOnUse" x1="257.3198" y1="79.7861" x2="257.3198" y2="10.6108">
		<stop  offset="0" style="stop-color:#FFFFFF"/>
		<stop  offset="1" style="stop-color:#D1D3D4"/>
	</linearGradient>
	<polygon fill="url(#SVGID_10_)" points="327.244,10.61 144.226,79.786 216.561,79.786 370.414,10.61 	"/>
	<linearGradient id="SVGID_11_" gradientUnits="userSpaceOnUse" x1="371.9019" y1="79.7871" x2="371.9019" y2="10.6108">
		<stop  offset="0" style="stop-color:#FFFFFF"/>
		<stop  offset="1" style="stop-color:#D1D3D4"/>
	</linearGradient>
	<polygon fill="url(#SVGID_11_)" points="412.89,10.61 287.745,79.786 360.084,79.787 456.059,10.61 	"/>
	<linearGradient id="SVGID_12_" gradientUnits="userSpaceOnUse" x1="486.4868" y1="79.7871" x2="486.4868" y2="10.6108">
		<stop  offset="0" style="stop-color:#FFFFFF"/>
		<stop  offset="1" style="stop-color:#D1D3D4"/>
	</linearGradient>
	<polygon fill="url(#SVGID_12_)" points="498.534,10.61 431.267,79.787 503.598,79.787 541.708,10.611 	"/>
	<linearGradient id="SVGID_13_" gradientUnits="userSpaceOnUse" x1="610.957" y1="79.7891" x2="610.957" y2="10.6118">
		<stop  offset="0" style="stop-color:#FFFFFF"/>
		<stop  offset="1" style="stop-color:#D1D3D4"/>
	</linearGradient>
	<polygon fill="url(#SVGID_13_)" points="584.195,10.611 574.785,79.789 647.129,79.789 627.355,10.611 	"/>
	<linearGradient id="SVGID_14_" gradientUnits="userSpaceOnUse" x1="730.2422" y1="79.79" x2="730.2422" y2="10.6118">
		<stop  offset="0" style="stop-color:#FFFFFF"/>
		<stop  offset="1" style="stop-color:#D1D3D4"/>
	</linearGradient>
	<polygon fill="url(#SVGID_14_)" points="669.838,10.611 718.301,79.789 790.646,79.79 712.992,10.611 	"/>
	<linearGradient id="SVGID_15_" gradientUnits="userSpaceOnUse" x1="844.8242" y1="79.79" x2="844.8242" y2="10.6128">
		<stop  offset="0" style="stop-color:#FFFFFF"/>
		<stop  offset="1" style="stop-color:#D1D3D4"/>
	</linearGradient>
	<polygon fill="url(#SVGID_15_)" points="755.488,10.612 861.828,79.79 934.16,79.79 798.65,10.612 	"/>
	<linearGradient id="SVGID_16_" gradientUnits="userSpaceOnUse" x1="959.4111" y1="79.79" x2="959.4111" y2="10.6128">
		<stop  offset="0" style="stop-color:#FFFFFF"/>
		<stop  offset="1" style="stop-color:#D1D3D4"/>
	</linearGradient>
	<polygon fill="url(#SVGID_16_)" points="841.133,10.612 1005.346,79.79 1077.689,79.79 884.307,10.612 	"/>
	<polygon fill="#4C6593" points="284.078,10.61 71.895,79.786 144.226,79.786 327.244,10.61 	"/>
	<polygon fill="#4C6593" points="369.723,10.61 215.408,79.786 287.745,79.786 412.885,10.61 	"/>
	<polygon fill="#4C6593" points="455.38,10.61 358.942,79.787 431.267,79.787 498.534,10.61 	"/>
	<polygon fill="#4C6593" points="541.024,10.611 502.45,79.787 574.782,79.789 584.195,10.611 	"/>
	<polygon fill="#4C6593" points="626.674,10.611 645.975,79.789 718.301,79.789 669.828,10.611 	"/>
	<polygon fill="#4C6593" points="712.318,10.611 789.492,79.79 861.828,79.79 755.488,10.612 	"/>
	<polygon fill="#4C6593" points="797.967,10.612 933.016,79.79 1005.346,79.79 841.133,10.612 	"/>
	<polygon fill="#4C6593" points="883.617,10.612 1076.533,79.79 1148.865,79.791 926.791,10.612 	"/>
</g>
</svg>
