<?xml version="1.0" encoding="utf-8"?>
<!-- Generator: Adobe Illustrator 15.0.0, SVG Export Plug-In . SVG Version: 6.00 Build 0)  -->
<!DOCTYPE svg PUBLIC "-//W3C//DTD SVG 1.1//EN" "http://www.w3.org/Graphics/SVG/1.1/DTD/svg11.dtd">
<svg version="1.1" id="Layer_1" xmlns="http://www.w3.org/2000/svg" xmlns:xlink="http://www.w3.org/1999/xlink" x="0px" y="0px"
	 width="118px" height="118px" viewBox="0 0 118 118" enable-background="new 0 0 118 118" xml:space="preserve">
<g>
	<path fill-rule="evenodd" clip-rule="evenodd" fill="#FFFFFF" d="M41.909,74.359l6.016,6.993c0.772,0.895,2.043,0.882,2.814,0
		l6.118-6.993h23.476c1.189,0,2.146-0.966,2.146-2.149V44.482c0-1.189-0.938-2.149-2.146-2.149H37.647
		c-1.179,0-2.137,0.96-2.137,2.149V72.21c0,1.184,0.947,2.149,2.137,2.149H41.909z M40.063,47.739c0-0.361,0.292-0.672,0.658-0.672
		l37.692,0.002c0.366,0,0.66,0.293,0.66,0.674v1.668c0,0.367-0.309,0.66-0.66,0.66H40.722c-0.366,0-0.658-0.293-0.658-0.66V47.739z
		 M40.063,56.735c0-0.367,0.292-0.66,0.658-0.66h37.692c0.366,0,0.66,0.293,0.66,0.66v1.672c0,0.363-0.309,0.656-0.66,0.656H40.722
		c-0.366,0-0.658-0.293-0.658-0.659V56.735z M40.063,65.73c0-0.367,0.277-0.66,0.631-0.66l25.751,0.003
		c0.336,0,0.615,0.293,0.615,0.657v1.671c0,0.364-0.279,0.676-0.615,0.676H40.694c-0.339,0-0.631-0.302-0.631-0.676V65.73z"/>
	<circle fill="none" stroke="#FFFFFF" stroke-width="0.7012" stroke-miterlimit="10" cx="59" cy="59" r="58.898"/>
</g>
</svg>
