<?xml version="1.0" encoding="utf-8"?>
<!-- Generator: Adobe Illustrator 15.0.0, SVG Export Plug-In . SVG Version: 6.00 Build 0)  -->
<!DOCTYPE svg PUBLIC "-//W3C//DTD SVG 1.1//EN" "http://www.w3.org/Graphics/SVG/1.1/DTD/svg11.dtd">
<svg version="1.1" id="Layer_1" xmlns="http://www.w3.org/2000/svg" xmlns:xlink="http://www.w3.org/1999/xlink" x="0px" y="0px"
	 width="413px" height="193.5px" viewBox="0 0 413 193.5" enable-background="new 0 0 413 193.5" xml:space="preserve">
<g opacity="0.3">
	<path fill="#3C3C3B" d="M91.372,163.74c-39.741,0-72.072-32.332-72.072-72.073c0-39.74,32.331-72.07,72.072-72.07
		c39.74,0,72.07,32.331,72.07,72.07C163.442,131.408,131.111,163.74,91.372,163.74 M91.372,21.482
		c-38.702,0-70.187,31.484-70.187,70.186c0,38.702,31.485,70.186,70.187,70.186c38.699,0,70.186-31.484,70.186-70.186
		C161.558,52.966,130.071,21.482,91.372,21.482"/>
	<path fill="#3C3C3B" d="M91.372,173.684c-45.224,0-82.016-36.795-82.016-82.016c0-45.221,36.792-82.016,82.016-82.016
		c45.222,0,82.014,36.795,82.014,82.016C173.386,136.889,136.593,173.684,91.372,173.684 M91.372,11.539
		c-44.184,0-80.13,35.945-80.13,80.129c0,44.184,35.946,80.129,80.13,80.129c44.184,0,80.129-35.945,80.129-80.129
		C171.5,47.484,135.555,11.539,91.372,11.539"/>
	<rect x="90.43" y="20.656" fill="#3C3C3B" width="1.885" height="71.012"/>
	
		<rect x="49.699" y="55.76" transform="matrix(0.1737 0.9848 -0.9848 0.1737 126.2495 -37.0558)" fill="#3C3C3B" width="71.012" height="1.883"/>
	
		<rect x="43.721" y="57.361" transform="matrix(0.342 0.9397 -0.9397 0.342 106.9178 -36.0872)" fill="#3C3C3B" width="71.013" height="1.884"/>
	
		<rect x="38.112" y="59.975" transform="matrix(0.5 0.866 -0.866 0.5 89.5648 -33.2968)" fill="#3C3C3B" width="71.012" height="1.886"/>
	
		<rect x="33.042" y="63.524" transform="matrix(0.6428 0.766 -0.766 0.6428 73.8702 -29.4824)" fill="#3C3C3B" width="71.013" height="1.886"/>
	
		<rect x="28.667" y="67.902" transform="matrix(0.7661 0.6428 -0.6428 0.7661 59.2624 -25.1421)" fill="#3C3C3B" width="71.01" height="1.885"/>
	
		<rect x="25.115" y="72.973" transform="matrix(0.866 0.5 -0.5 0.866 45.0803 -20.4087)" fill="#3C3C3B" width="71.014" height="1.884"/>
	
		<rect x="22.5" y="78.582" transform="matrix(0.9397 0.342 -0.342 0.9397 30.697 -15.0432)" fill="#3C3C3B" width="71.011" height="1.885"/>
	
		<rect x="20.899" y="84.557" transform="matrix(0.9848 0.1736 -0.1736 0.9848 15.7026 -8.495)" fill="#3C3C3B" width="71.012" height="1.888"/>
	<rect x="20.359" y="90.724" fill="#3C3C3B" width="71.013" height="1.887"/>
	
		<rect x="55.463" y="62.328" transform="matrix(0.1731 0.9849 -0.9849 0.1731 142.9955 25.3428)" fill="#3C3C3B" width="1.884" height="71.012"/>
	
		<rect x="57.062" y="68.305" transform="matrix(0.3418 0.9398 -0.9398 0.3418 135.7379 13.8158)" fill="#3C3C3B" width="1.887" height="71.012"/>
	
		<rect x="59.679" y="73.914" transform="matrix(0.5003 0.8659 -0.8659 0.5003 125.0408 2.191)" fill="#3C3C3B" width="1.886" height="71.014"/>
	<polygon fill="#3C3C3B" points="37.578,138.037 36.367,136.59 90.766,90.947 91.977,92.388 	"/>
	
		<rect x="67.605" y="83.36" transform="matrix(0.7657 0.6432 -0.6432 0.7657 92.518 -16.2391)" fill="#3C3C3B" width="1.886" height="71.014"/>
	
		<rect x="72.675" y="86.911" transform="matrix(0.8659 0.5001 -0.5001 0.8659 71.0963 -20.4088)" fill="#3C3C3B" width="1.886" height="71.013"/>
	
		<rect x="78.286" y="89.527" transform="matrix(0.94 0.3412 -0.3412 0.94 47.4095 -19.528)" fill="#3C3C3B" width="1.884" height="71.011"/>
	
		<rect x="84.264" y="91.128" transform="matrix(0.9847 0.1742 -0.1742 0.9847 23.3603 -12.9056)" fill="#3C3C3B" width="1.884" height="71.013"/>
	<rect x="90.43" y="91.667" fill="#3C3C3B" width="1.885" height="71.014"/>
	
		<rect x="62.031" y="125.693" transform="matrix(0.1737 0.9848 -0.9848 0.1737 205.3102 8.589)" fill="#3C3C3B" width="71.013" height="1.884"/>
	
		<rect x="68.009" y="124.091" transform="matrix(0.342 0.9397 -0.9397 0.342 185.6034 -15.0029)" fill="#3C3C3B" width="71.011" height="1.884"/>
	
		<rect x="73.618" y="121.476" transform="matrix(0.5 0.866 -0.866 0.5 160.5802 -33.2956)" fill="#3C3C3B" width="71.014" height="1.884"/>
	
		<rect x="78.687" y="117.924" transform="matrix(0.6428 0.7661 -0.7661 0.6428 131.8544 -45.016)" fill="#3C3C3B" width="71.013" height="1.886"/>
	<polygon fill="#3C3C3B" points="145.164,138.037 90.765,92.388 91.977,90.947 146.376,136.59 	"/>
	
		<rect x="86.614" y="108.479" transform="matrix(0.866 0.5 -0.5 0.866 71.0764 -46.4019)" fill="#3C3C3B" width="71.013" height="1.885"/>
	
		<rect x="89.229" y="102.868" transform="matrix(0.9397 0.342 -0.342 0.9397 43.0278 -36.4013)" fill="#3C3C3B" width="71.013" height="1.887"/>
	
		<rect x="90.832" y="96.892" transform="matrix(0.9848 0.1737 -0.1737 0.9848 18.9105 -20.4542)" fill="#3C3C3B" width="71.012" height="1.884"/>
	<rect x="91.371" y="90.724" fill="#3C3C3B" width="71.013" height="1.887"/>
	
		<rect x="125.396" y="49.994" transform="matrix(0.1734 0.9848 -0.9848 0.1734 188.6317 -53.751)" fill="#3C3C3B" width="1.884" height="71.012"/>
	
		<rect x="123.792" y="44.019" transform="matrix(0.3418 0.9398 -0.9398 0.3418 156.8353 -64.8798)" fill="#3C3C3B" width="1.887" height="71.012"/>
	
		<rect x="121.178" y="38.409" transform="matrix(0.4997 0.8662 -0.8662 0.4997 125.1252 -68.8009)" fill="#3C3C3B" width="1.885" height="71.012"/>
	
		<rect x="117.629" y="33.338" transform="matrix(0.6437 0.7653 -0.7653 0.6437 94.9323 -66.2103)" fill="#3C3C3B" width="1.883" height="71.013"/>
	
		<rect x="113.252" y="28.961" transform="matrix(0.7657 0.6432 -0.6432 0.7657 68.223 -58.3458)" fill="#3C3C3B" width="1.886" height="71.013"/>
	
		<rect x="108.183" y="25.41" transform="matrix(0.8663 0.4996 -0.4996 0.8663 45.0285 -46.371)" fill="#3C3C3B" width="1.884" height="71.014"/>
	
		<rect x="102.572" y="22.797" transform="matrix(0.9396 0.3422 -0.3422 0.9396 26.2027 -31.9047)" fill="#3C3C3B" width="1.885" height="71.012"/>
	
		<rect x="96.595" y="21.196" transform="matrix(0.9847 0.1742 -0.1742 0.9847 11.3676 -16.1227)" fill="#3C3C3B" width="1.884" height="71.011"/>
	<polygon fill="#3C3C3B" points="95.608,20.984 91.372,12.25 87.135,20.984 86.286,20.574 91.372,10.089 96.458,20.574 	"/>
	<polygon fill="#3C3C3B" points="74.924,22.792 74.018,22.535 77.206,11.33 84.035,20.769 83.27,21.322 77.58,13.455 	"/>
	<polygon fill="#3C3C3B" points="63.214,26.697 62.277,26.601 63.47,15.01 71.834,23.121 71.178,23.796 64.207,17.041 	"/>
	<polygon fill="#3C3C3B" points="51.42,32.638 50.582,21.019 60.227,27.554 59.699,28.335 51.662,22.888 52.36,32.574 	"/>
	<polygon fill="#3C3C3B" points="41.776,40.474 38.934,29.173 49.568,33.937 49.182,34.798 40.323,30.832 42.691,40.246 	"/>
	<polygon fill="#3C3C3B" points="33.641,49.865 28.879,39.228 40.179,42.074 39.948,42.986 30.533,40.619 34.501,49.48 	"/>
	<polygon fill="#3C3C3B" points="27.258,60.525 20.722,50.878 32.344,51.716 32.276,52.658 22.592,51.958 28.039,59.996 	"/>
	<polygon fill="#3C3C3B" points="22.824,72.13 14.713,63.767 26.303,62.574 26.4,63.512 16.741,64.505 23.5,71.476 	"/>
	<polygon fill="#3C3C3B" points="20.473,84.33 11.032,77.501 22.239,74.314 22.497,75.22 13.159,77.875 21.026,83.566 	"/>
	<polygon fill="#3C3C3B" points="20.275,96.753 9.793,91.667 20.275,86.583 20.687,87.431 11.951,91.667 20.687,95.906 	"/>
	<polygon fill="#3C3C3B" points="22.239,109.021 11.032,105.834 20.473,99.006 21.025,99.77 13.159,105.459 22.497,108.113 	"/>
	<polygon fill="#3C3C3B" points="26.302,120.762 14.713,119.57 22.824,111.207 23.5,111.861 16.743,118.832 26.4,119.824 	"/>
	<polygon fill="#3C3C3B" points="20.722,132.457 27.258,122.811 28.039,123.342 22.593,131.377 32.276,130.68 32.344,131.621 	"/>
	<polygon fill="#3C3C3B" points="28.879,144.105 33.64,133.471 34.5,133.857 30.533,142.719 39.948,140.35 40.179,141.262 	"/>
	<polygon fill="#3C3C3B" points="38.933,154.162 41.776,142.861 42.691,143.092 40.323,152.508 49.182,148.539 49.568,149.398 	"/>
	<polygon fill="#3C3C3B" points="50.582,162.316 51.42,150.695 52.36,150.764 51.662,160.447 59.699,155.002 60.227,155.781 	"/>
	<polygon fill="#3C3C3B" points="63.47,168.326 62.276,156.736 63.214,156.639 64.208,166.297 71.176,159.537 71.834,160.215 	"/>
	<polygon fill="#3C3C3B" points="77.206,172.006 74.018,160.801 74.924,160.543 77.582,169.879 83.27,162.014 84.033,162.566 	"/>
	<polygon fill="#3C3C3B" points="91.372,173.246 86.286,162.764 87.135,162.352 91.372,171.086 95.608,162.352 96.456,162.764 	"/>
	<polygon fill="#3C3C3B" points="105.538,172.006 98.709,162.566 99.473,162.014 105.162,169.879 107.818,160.543 108.725,160.801 	
		"/>
	<polygon fill="#3C3C3B" points="119.273,168.326 110.909,160.215 111.565,159.537 118.534,166.297 119.528,156.639 
		120.465,156.736 	"/>
	<polygon fill="#3C3C3B" points="132.16,162.316 122.515,155.781 123.044,155.002 131.08,160.447 130.382,150.764 131.324,150.695 	
		"/>
	<polygon fill="#3C3C3B" points="143.809,154.162 133.174,149.398 133.561,148.539 142.421,152.508 140.052,143.092 
		140.965,142.861 	"/>
	<polygon fill="#3C3C3B" points="153.863,144.105 142.565,141.262 142.795,140.35 152.21,142.719 148.242,133.857 149.102,133.471 	
		"/>
	<polygon fill="#3C3C3B" points="162.02,132.457 150.398,131.621 150.467,130.68 160.15,131.377 154.704,123.342 155.483,122.811 	
		"/>
	<polygon fill="#3C3C3B" points="156.439,120.762 156.344,119.824 166,118.832 159.242,111.861 159.918,111.207 168.03,119.57 	"/>
	<polygon fill="#3C3C3B" points="160.502,109.021 160.245,108.113 169.583,105.459 161.716,99.77 162.27,99.006 171.71,105.834 	"/>
	<polygon fill="#3C3C3B" points="162.467,96.753 162.055,95.906 170.79,91.667 162.055,87.431 162.467,86.583 172.95,91.667 	"/>
	<polygon fill="#3C3C3B" points="162.27,84.33 161.716,83.566 169.583,77.875 160.245,75.22 160.502,74.314 171.709,77.501 	"/>
	<polygon fill="#3C3C3B" points="159.918,72.13 159.241,71.476 166,64.505 156.343,63.512 156.439,62.574 168.03,63.767 	"/>
	<polygon fill="#3C3C3B" points="155.483,60.525 154.704,59.996 160.15,51.958 150.467,52.658 150.398,51.716 162.02,50.878 	"/>
	<polygon fill="#3C3C3B" points="149.102,49.865 148.241,49.48 152.209,40.619 142.795,42.986 142.565,42.074 153.863,39.228 	"/>
	<polygon fill="#3C3C3B" points="140.965,40.474 140.052,40.246 142.421,30.832 133.559,34.798 133.175,33.937 143.809,29.173 	"/>
	<polygon fill="#3C3C3B" points="131.324,32.638 130.382,32.574 131.08,22.888 123.044,28.335 122.515,27.554 132.16,21.019 	"/>
	<polygon fill="#3C3C3B" points="119.528,26.697 118.534,17.041 111.565,23.796 110.909,23.121 119.272,15.01 120.465,26.601 	"/>
	<polygon fill="#3C3C3B" points="107.818,22.792 105.163,13.455 99.473,21.322 98.709,20.769 105.538,11.33 108.725,22.535 	"/>
	<polygon fill="#3C3C3B" points="80.52,11.792 78.818,10.98 83.463,1.275 89.723,10.025 88.189,11.123 83.786,4.966 	"/>
	<path fill="#3C3C3B" d="M86.626,3.144c0.143,1.643-1.073,3.096-2.716,3.236c-1.644,0.145-3.093-1.072-3.237-2.717
		c-0.145-1.643,1.073-3.092,2.715-3.236C85.033,0.285,86.481,1.5,86.626,3.144"/>
	<polygon fill="#3C3C3B" points="66.813,14.89 64.998,14.385 67.887,4.023 75.571,11.553 74.251,12.898 68.846,7.601 	"/>
	<path fill="#3C3C3B" d="M71.325,5.312c0.428,1.596-0.518,3.232-2.112,3.66c-1.593,0.426-3.232-0.52-3.659-2.113
		c-0.426-1.594,0.52-3.23,2.114-3.658C69.26,2.775,70.897,3.72,71.325,5.312"/>
	<polygon fill="#3C3C3B" points="53.854,20.32 51.979,20.138 53.023,9.431 61.897,15.513 60.833,17.068 54.59,12.791 	"/>
	<path fill="#3C3C3B" d="M56.634,10.105c0.698,1.496,0.051,3.273-1.444,3.971c-1.495,0.697-3.273,0.048-3.97-1.446
		c-0.698-1.496-0.05-3.273,1.445-3.97C54.16,7.962,55.937,8.609,56.634,10.105"/>
	<polygon fill="#3C3C3B" points="40.156,28.064 39.327,17.341 49.122,21.789 48.342,23.503 41.453,20.375 42.035,27.919 	"/>
	<path fill="#3C3C3B" d="M42.999,17.376c0.947,1.354,0.619,3.215-0.733,4.162c-1.352,0.945-3.215,0.617-4.161-0.734
		c-0.947-1.354-0.619-3.217,0.733-4.162S42.052,16.025,42.999,17.376"/>
	<polygon fill="#3C3C3B" points="29.889,37.928 27.21,27.507 37.628,30.185 37.16,32.012 29.83,30.128 31.715,37.455 	"/>
	<path fill="#3C3C3B" d="M30.834,26.906c1.167,1.166,1.167,3.057,0,4.225c-1.167,1.166-3.059,1.166-4.226,0
		c-1.167-1.168-1.167-3.059,0-4.225C27.775,25.74,29.667,25.74,30.834,26.906"/>
	<polygon fill="#3C3C3B" points="21.492,49.419 17.044,39.623 27.769,40.453 27.624,42.332 20.079,41.748 23.207,48.638 	"/>
	<path fill="#3C3C3B" d="M20.508,38.4c1.351,0.949,1.68,2.811,0.733,4.164c-0.947,1.35-2.81,1.68-4.162,0.73
		c-1.351-0.947-1.68-2.809-0.733-4.158C17.293,37.783,19.155,37.455,20.508,38.4"/>
	<polygon fill="#3C3C3B" points="15.216,62.195 9.135,53.32 19.841,52.275 20.026,54.152 12.494,54.887 16.771,61.128 	"/>
	<path fill="#3C3C3B" d="M12.334,51.517c1.495,0.695,2.142,2.473,1.445,3.969c-0.698,1.496-2.475,2.143-3.971,1.445
		c-1.495-0.697-2.142-2.475-1.444-3.971C9.061,51.466,10.838,50.818,12.334,51.517"/>
	<polygon fill="#3C3C3B" points="11.255,75.865 3.726,68.183 14.088,65.292 14.595,67.109 7.305,69.142 12.601,74.546 	"/>
	<path fill="#3C3C3B" d="M6.563,65.851c1.594,0.426,2.54,2.066,2.112,3.659c-0.427,1.593-2.065,2.541-3.659,2.111
		c-1.594-0.424-2.539-2.063-2.111-3.656C3.331,66.369,4.968,65.423,6.563,65.851"/>
	<polygon fill="#3C3C3B" points="9.728,90.019 0.979,83.76 10.683,79.115 11.497,80.814 4.67,84.082 10.826,88.486 	"/>
	<path fill="#3C3C3B" d="M3.368,80.97c1.643,0.143,2.859,1.592,2.715,3.236c-0.144,1.645-1.592,2.859-3.237,2.715
		c-1.643-0.141-2.859-1.592-2.715-3.236C0.275,82.042,1.725,80.826,3.368,80.97"/>
	<polygon fill="#3C3C3B" points="10.683,104.223 0.979,99.576 9.728,93.316 10.826,94.849 4.67,99.254 11.497,102.521 	"/>
	<path fill="#3C3C3B" d="M2.846,96.414c1.645-0.145,3.094,1.072,3.237,2.717c0.144,1.643-1.072,3.094-2.716,3.236
		c-1.643,0.143-3.093-1.074-3.236-2.717C-0.013,98.006,1.204,96.558,2.846,96.414"/>
	<polygon fill="#3C3C3B" points="14.088,118.043 3.726,115.152 11.255,107.471 12.6,108.787 7.305,114.193 14.595,116.225 	"/>
	<path fill="#3C3C3B" d="M5.016,111.715c1.594-0.43,3.232,0.518,3.659,2.111c0.428,1.594-0.519,3.234-2.112,3.66
		c-1.594,0.426-3.231-0.518-3.658-2.115C2.477,113.781,3.422,112.141,5.016,111.715"/>
	<polygon fill="#3C3C3B" points="19.841,131.061 9.135,130.016 15.216,121.143 16.771,122.209 12.494,128.449 20.026,129.184 	"/>
	<path fill="#3C3C3B" d="M9.809,126.406c1.496-0.699,3.272-0.051,3.971,1.443c0.697,1.496,0.05,3.273-1.445,3.971
		c-1.495,0.697-3.273,0.051-3.97-1.443C7.667,128.879,8.313,127.102,9.809,126.406"/>
	<polygon fill="#3C3C3B" points="17.043,143.711 21.49,133.918 23.208,134.697 20.079,141.588 27.624,141.004 27.77,142.885 	"/>
	<path fill="#3C3C3B" d="M17.08,140.041c1.353-0.949,3.215-0.619,4.162,0.732c0.947,1.354,0.617,3.217-0.733,4.162
		c-1.352,0.947-3.215,0.617-4.162-0.736C15.399,142.852,15.728,140.988,17.08,140.041"/>
	<polygon fill="#3C3C3B" points="27.211,155.828 29.889,145.41 31.715,145.881 29.83,153.209 37.16,151.324 37.628,153.15 	"/>
	<path fill="#3C3C3B" d="M26.608,152.207c1.167-1.168,3.058-1.168,4.226,0c1.166,1.166,1.166,3.057,0,4.225
		c-1.167,1.166-3.059,1.166-4.226,0C25.442,155.264,25.442,153.373,26.608,152.207"/>
	<polygon fill="#3C3C3B" points="39.327,165.996 40.155,155.27 42.036,155.416 41.451,162.959 48.342,159.832 49.123,161.549 	"/>
	<path fill="#3C3C3B" d="M38.104,162.531c0.948-1.352,2.81-1.68,4.161-0.732c1.352,0.945,1.68,2.809,0.733,4.16
		c-0.946,1.354-2.809,1.68-4.161,0.734C37.486,165.748,37.158,163.885,38.104,162.531"/>
	<polygon fill="#3C3C3B" points="53.023,173.904 51.979,163.197 53.854,163.014 54.59,170.545 60.833,166.268 61.898,167.822 	"/>
	<path fill="#3C3C3B" d="M51.219,170.705c0.697-1.496,2.476-2.141,3.971-1.445c1.495,0.697,2.143,2.475,1.444,3.971
		c-0.697,1.494-2.475,2.143-3.969,1.443C51.169,173.979,50.522,172.201,51.219,170.705"/>
	<polygon fill="#3C3C3B" points="67.887,179.314 64.998,168.951 66.813,168.445 68.846,175.734 74.251,170.438 75.571,171.783 	"/>
	<path fill="#3C3C3B" d="M65.553,176.477c0.428-1.594,2.066-2.539,3.659-2.113c1.594,0.428,2.54,2.066,2.112,3.66
		c-0.426,1.592-2.064,2.539-3.658,2.113C66.073,179.709,65.127,178.07,65.553,176.477"/>
	<polygon fill="#3C3C3B" points="83.462,182.063 78.818,172.355 80.518,171.543 83.786,178.367 88.189,172.215 89.723,173.313 	"/>
	<path fill="#3C3C3B" d="M80.674,179.67c0.143-1.643,1.591-2.859,3.236-2.715c1.643,0.145,2.859,1.594,2.716,3.238
		c-0.145,1.643-1.593,2.857-3.238,2.715C81.744,182.766,80.528,181.314,80.674,179.67"/>
	<polygon fill="#3C3C3B" points="99.28,182.063 93.02,173.313 94.553,172.215 98.957,178.367 102.224,171.543 103.925,172.355 	"/>
	<path fill="#3C3C3B" d="M96.117,180.193c-0.143-1.645,1.072-3.094,2.717-3.238c1.642-0.145,3.092,1.072,3.237,2.715
		c0.143,1.645-1.073,3.096-2.717,3.238C97.709,183.051,96.26,181.836,96.117,180.193"/>
	<polygon fill="#3C3C3B" points="114.854,179.314 107.173,171.783 108.491,170.438 113.897,175.734 115.929,168.445 
		117.745,168.951 	"/>
	<path fill="#3C3C3B" d="M111.417,178.023c-0.428-1.594,0.519-3.232,2.112-3.66c1.594-0.426,3.232,0.52,3.659,2.113
		c0.427,1.594-0.518,3.232-2.113,3.66C113.482,180.563,111.843,179.615,111.417,178.023"/>
	<polygon fill="#3C3C3B" points="129.718,173.904 120.845,167.822 121.912,166.268 128.153,170.545 128.887,163.014 
		130.764,163.197 	"/>
	<path fill="#3C3C3B" d="M126.108,173.23c-0.697-1.496-0.05-3.273,1.445-3.971c1.495-0.695,3.272-0.049,3.97,1.445
		c0.698,1.496,0.051,3.273-1.446,3.969C128.583,175.373,126.805,174.727,126.108,173.23"/>
	<polygon fill="#3C3C3B" points="143.417,165.996 133.62,161.549 134.4,159.832 141.291,162.959 140.707,155.416 142.586,155.27 	
		"/>
	<path fill="#3C3C3B" d="M139.744,165.959c-0.946-1.352-0.619-3.215,0.734-4.16c1.352-0.947,3.213-0.619,4.16,0.732
		c0.947,1.354,0.618,3.215-0.734,4.162C142.552,167.639,140.69,167.313,139.744,165.959"/>
	<polygon fill="#3C3C3B" points="155.532,155.828 145.114,153.15 145.582,151.324 152.911,153.209 151.028,145.881 152.854,145.41 	
		"/>
	<path fill="#3C3C3B" d="M151.909,156.432c-1.167-1.166-1.167-3.059,0-4.225c1.166-1.168,3.058-1.168,4.225,0
		c1.167,1.166,1.167,3.059,0,4.225C154.967,157.6,153.075,157.6,151.909,156.432"/>
	<polygon fill="#3C3C3B" points="165.699,143.711 154.973,142.885 155.119,141.004 162.664,141.588 159.534,134.697 
		161.252,133.918 	"/>
	<path fill="#3C3C3B" d="M162.235,144.936c-1.352-0.945-1.68-2.811-0.734-4.162c0.948-1.352,2.811-1.682,4.163-0.732
		c1.352,0.945,1.68,2.809,0.733,4.158C165.451,145.553,163.587,145.883,162.235,144.936"/>
	<polygon fill="#3C3C3B" points="162.901,131.061 162.717,129.184 170.249,128.449 165.971,122.209 167.527,121.143 
		173.607,130.016 	"/>
	<path fill="#3C3C3B" d="M170.409,131.82c-1.497-0.697-2.143-2.475-1.445-3.971c0.697-1.494,2.475-2.143,3.97-1.443
		c1.497,0.695,2.143,2.473,1.445,3.971C173.682,131.871,171.904,132.518,170.409,131.82"/>
	<polygon fill="#3C3C3B" points="168.654,118.043 168.148,116.225 175.438,114.193 170.142,108.787 171.487,107.471 
		179.019,115.152 	"/>
	<path fill="#3C3C3B" d="M176.179,117.484c-1.593-0.424-2.539-2.064-2.111-3.658c0.427-1.594,2.064-2.541,3.659-2.111
		c1.593,0.426,2.539,2.066,2.112,3.658C179.411,116.969,177.774,117.912,176.179,117.484"/>
	<polygon fill="#3C3C3B" points="172.061,104.223 171.246,102.521 178.072,99.254 171.916,94.849 173.014,93.316 181.763,99.576 	
		"/>
	<path fill="#3C3C3B" d="M179.375,102.367c-1.644-0.145-2.86-1.594-2.717-3.238c0.145-1.643,1.595-2.86,3.239-2.715
		c1.643,0.145,2.859,1.592,2.715,3.237S181.017,102.51,179.375,102.367"/>
	<polygon fill="#3C3C3B" points="173.014,90.019 171.916,88.486 178.072,84.082 171.246,80.814 172.061,79.115 181.763,83.76 	"/>
	<path fill="#3C3C3B" d="M179.896,86.921c-1.644,0.145-3.094-1.07-3.237-2.715c-0.145-1.643,1.071-3.094,2.715-3.236
		c1.643-0.144,3.093,1.072,3.238,2.715C182.755,85.33,181.539,86.781,179.896,86.921"/>
	<polygon fill="#3C3C3B" points="171.487,75.867 170.141,74.546 175.438,69.142 168.148,67.109 168.654,65.292 179.017,68.183 	"/>
	<path fill="#3C3C3B" d="M177.727,71.621c-1.595,0.43-3.232-0.518-3.659-2.111c-0.428-1.592,0.518-3.233,2.111-3.659
		c1.595-0.428,3.231,0.518,3.659,2.113C180.265,69.558,179.32,71.195,177.727,71.621"/>
	<polygon fill="#3C3C3B" points="167.526,62.195 165.971,61.128 170.249,54.887 162.717,54.152 162.901,52.275 173.607,53.32 	"/>
	<path fill="#3C3C3B" d="M172.933,56.931c-1.495,0.697-3.272,0.051-3.97-1.445c-0.698-1.496-0.051-3.273,1.445-3.969
		c1.495-0.699,3.273-0.053,3.97,1.443C175.076,54.457,174.43,56.234,172.933,56.931"/>
	<polygon fill="#3C3C3B" points="161.252,49.419 159.534,48.638 162.664,41.748 155.119,42.332 154.973,40.453 165.698,39.623 	"/>
	<path fill="#3C3C3B" d="M165.663,43.294c-1.352,0.949-3.216,0.619-4.161-0.73c-0.948-1.355-0.619-3.217,0.732-4.164
		c1.352-0.945,3.214-0.617,4.162,0.737C167.343,40.484,167.015,42.347,165.663,43.294"/>
	<polygon fill="#3C3C3B" points="152.853,37.928 151.028,37.455 152.911,30.128 145.583,32.012 145.114,30.185 155.532,27.507 	"/>
	<path fill="#3C3C3B" d="M156.134,31.13c-1.167,1.166-3.059,1.166-4.227,0c-1.165-1.168-1.165-3.059,0-4.225
		c1.167-1.166,3.059-1.166,4.227,0C157.301,28.072,157.301,29.962,156.134,31.13"/>
	<polygon fill="#3C3C3B" points="142.586,28.064 140.708,27.919 141.291,20.376 134.4,23.503 133.621,21.789 143.416,17.341 	"/>
	<path fill="#3C3C3B" d="M144.638,20.804c-0.948,1.352-2.81,1.68-4.16,0.734c-1.352-0.947-1.68-2.811-0.734-4.162
		s2.808-1.68,4.16-0.734S145.585,19.451,144.638,20.804"/>
	<polygon fill="#3C3C3B" points="128.888,20.32 128.153,12.791 121.91,17.068 120.843,15.513 129.718,9.431 130.764,20.138 	"/>
	<path fill="#3C3C3B" d="M131.523,12.63c-0.697,1.496-2.475,2.141-3.97,1.446c-1.495-0.698-2.143-2.475-1.445-3.971
		c0.697-1.494,2.475-2.143,3.969-1.445C131.574,9.357,132.221,11.135,131.523,12.63"/>
	<polygon fill="#3C3C3B" points="115.929,14.89 113.897,7.601 108.491,12.898 107.173,11.553 114.854,4.023 117.745,14.385 	"/>
	<path fill="#3C3C3B" d="M117.188,6.859c-0.427,1.594-2.065,2.539-3.659,2.113c-1.593-0.428-2.54-2.064-2.112-3.66
		c0.426-1.592,2.065-2.537,3.66-2.111C116.669,3.628,117.616,5.265,117.188,6.859"/>
	<polygon fill="#3C3C3B" points="102.224,11.792 98.957,4.966 94.553,11.123 93.02,10.025 99.28,1.275 103.925,10.98 	"/>
	<path fill="#3C3C3B" d="M102.071,3.664c-0.145,1.645-1.592,2.861-3.237,2.717c-1.645-0.14-2.86-1.594-2.717-3.236
		C96.26,1.5,97.71,0.285,99.354,0.428C100.998,0.572,102.214,2.023,102.071,3.664"/>
	<polygon fill="#3C3C3B" points="150.731,192.951 143.809,192.951 124.107,158.924 91.372,102.225 58.635,158.924 38.347,193.084 
		30.276,193.084 91.372,89.916 	"/>
</g>
<g opacity="0.3">
	<rect x="184.279" y="178.24" fill="#3C3C3B" width="26.166" height="14.09"/>
	<rect x="266.822" y="178.24" fill="#3C3C3B" width="26.168" height="14.09"/>
	<rect x="386.715" y="178.242" fill="#3C3C3B" width="26.166" height="14.088"/>
	<path fill="#3C3C3B" d="M187.412,147.379v14.09h19.903v-14.09H187.412z M199.713,159.119h-4.701v-9.393h4.701V159.119z"/>
	<path fill="#3C3C3B" d="M187.412,131.947v14.088h19.903v-14.088H187.412z M199.713,143.689h-4.701v-9.393h4.701V143.689z"/>
	<path fill="#3C3C3B" d="M269.957,147.379v14.09h19.9v-14.09H269.957z M282.256,159.119h-4.699v-9.393h4.699V159.119z"/>
	<path fill="#3C3C3B" d="M288.684,109.891c-0.648,0-1.174,0.529-1.174,1.176v5.451h-2.865v-6.627h-3.564v-4.023
		c0-0.646-0.525-1.174-1.174-1.174c-0.646,0-1.174,0.527-1.174,1.174v4.023h-3.563v6.627h-2.867v-5.451
		c0-0.646-0.525-1.176-1.172-1.176c-0.648,0-1.174,0.529-1.174,1.176v5.451v2.598v6.795h-62.643v-6.795v-2.598v-5.451
		c0-0.646-0.528-1.176-1.176-1.176c-0.646,0-1.173,0.529-1.173,1.176v5.451H202.1v-6.627h-3.562v-4.023
		c0-0.646-0.528-1.174-1.176-1.174c-0.646,0-1.173,0.527-1.173,1.174v4.023h-3.564v6.627h-2.865v-5.451
		c0-0.646-0.527-1.176-1.173-1.176c-0.648,0-1.175,0.529-1.175,1.176v5.451v2.598v11.492h19.903h62.643h0.199h19.701v-11.492v-2.598
		v-5.451C289.857,110.42,289.33,109.891,288.684,109.891z M199.713,128.258h-4.701v-9.393h4.701V128.258z M282.256,128.258h-4.699
		v-9.393h4.699V128.258z"/>
	<path fill="#3C3C3B" d="M409.75,161.469v-14.09h-19.904v4.006c-1.18,1.059-2.975,2.543-5.395,4.188
		c-0.791,0.537-1.646,1.092-2.568,1.65c-1.537,0.93-3.25,1.879-5.146,2.803c-0.82,0.398-1.682,0.791-2.57,1.18
		c-1.605,0.697-3.318,1.367-5.146,1.988c-0.83,0.285-1.689,0.559-2.568,0.82c-1.635,0.486-3.352,0.932-5.146,1.322
		c-0.838,0.186-1.695,0.355-2.57,0.512c-1.652,0.301-3.367,0.549-5.146,0.746c-0.84,0.094-1.697,0.172-2.568,0.24
		c-1.666,0.127-3.377,0.207-5.145,0.227c-0.846,0.014-1.703,0.016-2.572,0c-0.904-0.016-1.814-0.041-2.744-0.086
		c-0.814-0.041-1.605-0.111-2.4-0.184c-0.867-0.08-1.723-0.186-2.57-0.305c-1.756-0.24-3.475-0.561-5.143-0.953
		c-0.871-0.205-1.729-0.426-2.572-0.666c-1.77-0.502-3.486-1.076-5.145-1.719c-0.873-0.338-1.729-0.691-2.572-1.064
		c-1.783-0.783-3.494-1.641-5.145-2.545c-0.875-0.484-1.732-0.984-2.57-1.494c-1.805-1.1-3.521-2.252-5.145-3.441
		c-0.883-0.645-1.742-1.301-2.57-1.963c-1.855-1.48-3.572-2.984-5.145-4.469c-0.906-0.857-1.76-1.701-2.57-2.535
		c-3.117-3.195-5.512-6.143-7.154-8.324v-5.365h-19.9v14.088h19.9v-5.449c1.83,2.279,4.219,5.018,7.154,7.893v23.074h-7.154v-8.742
		h-19.701h-0.199h-62.643h-19.903v14.09h19.903v-9.393h62.643v9.393h19.9v-3.443h99.988v3.445h19.904v-14.092h-19.904v8.744h-5.395
		v-13.596c2.236-1.447,4.031-2.809,5.395-3.936v7.445H409.75z M397.445,149.729h4.703v9.391h-4.703V149.729z M282.256,143.689
		h-4.699v-9.393h4.699V143.689z M199.713,174.549h-4.701v-9.391h4.701V174.549z M282.256,174.549h-4.699v-9.391h4.699V174.549z
		 M304.727,171.553h-5.145v-20.656c1.59,1.438,3.303,2.881,5.145,4.295V171.553z M312.441,171.553h-5.145v-14.477
		c1.631,1.146,3.344,2.262,5.145,3.316V171.553z M320.156,171.553h-5.145v-9.727c1.65,0.875,3.369,1.701,5.145,2.455V171.553z
		 M327.873,171.553h-5.145v-6.246c1.662,0.619,3.377,1.178,5.145,1.662V171.553z M335.588,171.553h-5.143v-3.941
		c1.672,0.381,3.387,0.693,5.143,0.93V171.553z M343.303,171.553h-5.145v-2.73c0.76,0.068,1.525,0.125,2.299,0.168
		c0.963,0.041,1.91,0.066,2.846,0.08V171.553z M351.02,171.553h-5.145v-2.486c1.764-0.021,3.479-0.096,5.145-0.225V171.553z
		 M358.734,171.553h-5.146v-2.945c1.775-0.191,3.492-0.438,5.146-0.729V171.553z M366.451,171.553h-5.146v-4.178
		c1.795-0.379,3.504-0.814,5.146-1.293V171.553z M374.166,171.553h-5.146v-6.268c1.816-0.6,3.535-1.244,5.146-1.922V171.553z
		 M381.883,171.555h-5.146v-9.336c1.875-0.877,3.592-1.785,5.146-2.686V171.555z M397.445,165.158h4.703v9.391h-4.703V165.158z"/>
	<path fill="#3C3C3B" d="M408.574,124.914c-0.648,0-1.172,0.527-1.172,1.174v5.451h-2.865v-6.625h-3.566v-4.023
		c0-0.65-0.525-1.176-1.176-1.176c-0.646,0-1.172,0.525-1.172,1.176v4.023h-3.564v6.625h-2.863v-5.451
		c0-0.646-0.527-1.174-1.174-1.174c-0.652,0-1.176,0.527-1.176,1.174v5.451v2.598v11.49h19.904v-11.49v-2.598v-5.451
		C409.75,125.441,409.221,124.914,408.574,124.914z M402.148,143.689h-4.703v-9.393h4.703V143.689z"/>
</g>
</svg>
