<?xml version="1.0" encoding="utf-8"?>
<!-- Generator: Adobe Illustrator 15.0.0, SVG Export Plug-In . SVG Version: 6.00 Build 0)  -->
<!DOCTYPE svg PUBLIC "-//W3C//DTD SVG 1.1//EN" "http://www.w3.org/Graphics/SVG/1.1/DTD/svg11.dtd">
<svg version="1.1" id="Layer_1" xmlns="http://www.w3.org/2000/svg" xmlns:xlink="http://www.w3.org/1999/xlink" x="0px" y="0px"
	 width="390px" height="174px" viewBox="0 0 390 174" enable-background="new 0 0 390 174" xml:space="preserve">
<g opacity="0.3">
	<g>
		<path fill-rule="evenodd" clip-rule="evenodd" fill="#3C3C3B" d="M250.509,155.801h6.761V80.377h1.26V56.764l-3.209-1.655v-6.914
			c-2.941-3.863-3.438-4.971-4.812-7.535v16.617c1.965,0.551,3.707,3.248,4.066,6.492c0.402,3.645-1.09,6.598-3.334,6.598
			c-0.245,0-0.49-0.038-0.732-0.104V155.801L250.509,155.801z M250.509,64.752v-2.043l0.157,0.555l2.964-2.036l-2.813,2.623
			l0.392,1.436l-0.607,0.042L250.509,64.752z M230.821,155.801h19.688V70.264c-1.961-0.553-3.702-3.249-4.063-6.495
			c-0.402-3.641,1.089-6.594,3.334-6.594c0.246,0,0.489,0.035,0.729,0.102V40.661c-0.549-1.03-1.244-2.293-2.296-4.073v-7.811
			c4.028,0.559-0.854-3.984-3.11-7.361c-2.233-3.344-4.435-11.314-4.37-16.574l0.004-0.148c0-0.895-0.204-1.672-0.503-2.068
			c0.299-0.236,0.503-0.699,0.503-1.23c0-0.771-0.426-1.395-0.948-1.395c-0.524,0-0.947,0.623-0.947,1.395
			c0,0.531,0.201,0.995,0.499,1.23c-0.298,0.396-0.499,1.174-0.499,2.068c0,0.066,0,0.129,0.004,0.194
			c0.073,5.152-1.139,8.81-4.226,15.861c-1.675,3.83-3.287,6.023-3.798,7.146v0.881c0.257,0.156,0.826,0.139,1.803,0.002v7.811
			c-0.761,1.287-1.335,2.303-1.803,3.158v17.646c0.223-0.029,0.449-0.045,0.678-0.045c3.159,0,5.418,3.033,5.044,6.777
			c-0.347,3.475-2.84,6.336-5.722,6.729V155.801L230.821,155.801z M250.509,62.709v2.043l-0.083-0.545l-0.832,0.795l-0.414-0.674
			l1.117-0.779l-0.63-3.857L250.509,62.709L250.509,62.709z M230.821,65.664v-5.503l0.002-0.04l0.271,3.54l4.183-1.78l-4.152,2.362
			l0.094,1.421H230.821z M223.567,155.801h7.254V70.854c-0.225,0.031-0.449,0.047-0.678,0.047c-3.161,0-5.418-3.033-5.046-6.775
			c0.348-3.475,2.84-6.337,5.724-6.732c0,0-2.033-13.488-5.305-9.197v7.442l-3.209,1.127v23.613h1.26V155.801L223.567,155.801z
			 M230.821,27.895c-0.209,0.461-0.234,0.743,0,0.881V27.895L230.821,27.895z M230.821,60.161v5.503h-0.361l0.086-1.102
			l-1.234,0.717l-0.327-0.682l1.578-0.684L230.821,60.161z"/>
		<polygon fill-rule="evenodd" clip-rule="evenodd" fill="#3C3C3B" points="146.71,156.563 154.238,156.563 154.238,55.598 
			156.424,55.598 156.424,46.123 152.782,46.123 152.782,38.109 154.479,38.109 154.479,33.495 152.539,33.495 152.539,29.121 
			148.409,29.121 148.409,33.495 146.465,33.495 146.465,38.109 148.167,38.109 148.167,46.123 144.524,46.123 144.524,55.598 
			146.71,55.598 		"/>
		<path fill-rule="evenodd" clip-rule="evenodd" fill="#3C3C3B" d="M300.677,155.354h26.792V49.577v-7.301h-0.696v-8.467h-1.043
			l-1.044-8.176l-1.045,8.176h-1.042v8.467h-0.696v7.301h-0.453c0-1.694-0.568-3.252-1.528-4.499c0.073-0.367,0.11-0.748,0.11-1.139
			c0-2.971-2.174-5.434-5.019-5.883l-0.939-7.359l-0.94,7.359c-2.845,0.449-5.019,2.912-5.019,5.883
			c0,0.391,0.038,0.771,0.109,1.139c-0.959,1.246-1.527,2.805-1.527,4.499h-0.453v-7.301h-0.695v-8.467h-1.042l-1.048-8.176
			l-1.041,8.176h-1.044v8.467h-0.696v7.301V155.354z"/>
		<rect x="0.863" y="148.514" fill-rule="evenodd" clip-rule="evenodd" fill="#3C3C3B" width="389.177" height="24.633"/>
		<path fill-rule="evenodd" clip-rule="evenodd" fill="#3C3C3B" d="M267.55,151.658h25.167V98.344c0-60.91-25.167-63.349-25.167,0
			V151.658z"/>
		<path fill-rule="evenodd" clip-rule="evenodd" fill="#3C3C3B" d="M91.876,149.582H76.818H61.76V93.85v-5.4v-4.385l0.75-0.631
			v-3.287l1.271-1.066v-4.041c0-0.211,0.174-0.385,0.385-0.385l0,0c0.215,0,0.388,0.174,0.388,0.385v4.033l1.278,1.074v3.287
			l0.75,0.631V84.4l7.342-6.166v-5.929l0.9-0.756V67.6l1.495-1.253v-3.854c0-0.264,0.213-0.479,0.479-0.479l0,0h0.019h0.005h0.021
			l0,0c0.264,0,0.479,0.214,0.479,0.479v3.854l1.494,1.253v3.949l0.901,0.756v5.929l7.342,6.166v-0.336l0.749-0.631v-3.287
			l1.278-1.074v-4.033c0-0.211,0.172-0.385,0.387-0.385l0,0c0.213,0,0.385,0.174,0.385,0.385v4.041l1.271,1.066v3.287l0.75,0.631
			v4.385v5.4V149.582z"/>
		<path fill-rule="evenodd" clip-rule="evenodd" fill="#3C3C3B" d="M132.752,149.979h-9.165h-9.166v-33.924v-3.287v-2.67
			l0.458-0.385v-1.998l0.772-0.65v-2.457c0-0.131,0.105-0.236,0.233-0.236l0,0c0.13,0,0.237,0.105,0.237,0.236v2.453l0.775,0.654
			v1.998l0.457,0.385v0.205l4.47-3.752v-3.609l0.549-0.461v-2.404l0.909-0.762v-2.346c0-0.16,0.131-0.291,0.291-0.291l0,0h0.014
			h0.001h0.013l0,0c0.161,0,0.292,0.131,0.292,0.291v2.346l0.908,0.762v2.404l0.55,0.461v3.609l4.467,3.752v-0.205l0.458-0.385
			v-1.998l0.778-0.654v-2.453c0-0.131,0.105-0.236,0.232-0.236l0,0c0.131,0,0.237,0.105,0.237,0.236v2.457l0.771,0.65v1.998
			l0.458,0.385v2.67v3.287V149.979z"/>
		<polygon fill-rule="evenodd" clip-rule="evenodd" fill="#3C3C3B" points="120.477,114.535 81.31,100.627 81.31,109.711 
			120.477,123.619 		"/>
		<path fill="#3C3C3B" d="M61.39,104.422c0.167-0.205,0.469-0.236,0.675-0.068c0.204,0.164,0.234,0.467,0.066,0.672l0,0
			c-0.959,1.279-2.127,2.695-3.493,4.203v13.775c1.054-0.977,1.976-1.947,2.752-2.902c0.167-0.205,0.469-0.234,0.675-0.068
			c0.204,0.168,0.234,0.467,0.066,0.672l-0.002,0.002c-0.958,1.271-2.126,2.594-3.491,3.938v19.584c0,0.266-0.217,0.48-0.48,0.48
			s-0.48-0.215-0.48-0.48v-18.664c-0.516,0.48-1.057,0.961-1.622,1.443v-1.814c0.568-0.443,1.108-0.885,1.622-1.33v-13.596
			c-0.516,0.549-1.057,1.107-1.622,1.674v-1.947c0.606-0.559,1.184-1.105,1.728-1.646c0.024-0.027,0.05-0.053,0.079-0.076
			C59.245,106.902,60.427,105.602,61.39,104.422z M56.055,127.008c-0.52,0.447-1.061,0.895-1.62,1.34v15.881
			c0,0.266-0.213,0.48-0.48,0.48c-0.264,0-0.48-0.215-0.48-0.48V129.1c-0.977,0.748-2.014,1.498-3.1,2.24v-1.16l0.259-0.184
			l-0.259,0.152v-1.107c1.091-0.645,2.126-1.303,3.1-1.969v-12.635c-0.977,0.91-2.014,1.834-3.1,2.766v-1.26l0.14-0.123l-0.14,0.104
			v-1.193c1.141-0.867,2.218-1.73,3.231-2.584c0.026-0.027,0.054-0.051,0.086-0.072c0.835-0.703,1.623-1.398,2.363-2.08v1.947
			c-0.52,0.525-1.059,1.057-1.62,1.592v12.871c0.563-0.402,1.103-0.805,1.62-1.211V127.008z M50.374,131.34l-0.142,0.094v12.795
			c0,0.266-0.214,0.48-0.479,0.48c-0.265,0-0.48-0.215-0.48-0.48v-12.152c-0.527,0.348-1.069,0.693-1.621,1.035v-1.127
			c0.552-0.35,1.094-0.701,1.621-1.055v-0.154c-0.527,0.293-1.069,0.584-1.621,0.871v-1.078c0.552-0.293,1.094-0.59,1.621-0.889
			v-11.549c-0.527,0.439-1.069,0.881-1.621,1.32v-1.225c0.552-0.447,1.094-0.895,1.621-1.34v-0.154
			c-0.527,0.385-1.069,0.764-1.621,1.146v-1.164c0.604-0.424,1.197-0.848,1.772-1.273c0.027-0.027,0.06-0.051,0.096-0.07
			c0.287-0.213,0.571-0.428,0.854-0.641v1.193l-0.142,0.105v0.035l0.142-0.121v1.26l-0.142,0.121v11.801l0.142-0.084v1.107
			l-0.142,0.082v0.047l0.142-0.098V131.34z M47.651,133.111c-0.529,0.33-1.07,0.658-1.62,0.984v10.133
			c0,0.266-0.215,0.48-0.479,0.48c-0.268,0-0.481-0.215-0.481-0.48v-9.572c-0.533,0.305-1.073,0.605-1.621,0.904v-1.09
			c0.55-0.307,1.088-0.611,1.621-0.922v-0.621c-0.533,0.25-1.073,0.496-1.621,0.742v-1.049c0.55-0.248,1.088-0.498,1.621-0.752
			v-10.42c-0.533,0.396-1.073,0.795-1.621,1.193v-1.182c0.55-0.4,1.088-0.803,1.621-1.207v-0.66
			c-0.533,0.342-1.071,0.68-1.621,1.016v-1.121c0.607-0.377,1.205-0.758,1.793-1.143c0.027-0.025,0.06-0.045,0.094-0.063
			c0.793-0.52,1.565-1.041,2.314-1.568v1.164c-0.529,0.365-1.07,0.73-1.62,1.092v0.543c0.55-0.428,1.091-0.855,1.62-1.287v1.225
			c-0.529,0.424-1.07,0.848-1.62,1.268v10.68c0.55-0.273,1.091-0.549,1.62-0.83v1.078c-0.529,0.277-1.07,0.549-1.62,0.82v0.516
			c0.55-0.33,1.091-0.664,1.62-0.998V133.111z M43.45,135.561c-0.534,0.291-1.074,0.58-1.62,0.863v7.805
			c0,0.266-0.217,0.48-0.482,0.48c-0.264,0-0.479-0.215-0.479-0.48v-7.313c-0.533,0.271-1.073,0.537-1.621,0.799v-1.064
			c0.548-0.266,1.088-0.537,1.621-0.809v-1.08c-0.533,0.215-1.073,0.426-1.621,0.635v-1.025c0.548-0.211,1.088-0.426,1.621-0.645
			v-9.281c-0.533,0.359-1.073,0.721-1.621,1.074v-1.141c0.548-0.359,1.088-0.725,1.621-1.09v-1.154
			c-0.533,0.301-1.073,0.602-1.621,0.898v-1.088c0.614-0.338,1.219-0.682,1.814-1.027c0.029-0.02,0.062-0.039,0.094-0.053
			c0.781-0.453,1.546-0.914,2.295-1.377v1.121c-0.533,0.326-1.074,0.648-1.62,0.971v1.043c0.548-0.387,1.087-0.775,1.62-1.162v1.182
			c-0.534,0.383-1.074,0.766-1.62,1.145v9.541c0.548-0.23,1.087-0.469,1.62-0.707v1.049c-0.534,0.238-1.074,0.469-1.62,0.697v0.979
			c0.548-0.291,1.087-0.584,1.62-0.875V135.561z M39.247,137.715c-0.533,0.256-1.074,0.51-1.621,0.76v5.754
			c0,0.266-0.214,0.48-0.481,0.48c-0.264,0-0.479-0.215-0.479-0.48v-5.32l-0.262,0.117c-0.449,0.197-0.902,0.393-1.358,0.588v-1.045
			c0.325-0.139,0.648-0.279,0.97-0.422c0.22-0.096,0.435-0.191,0.65-0.287v-1.533l-0.301,0.104
			c-0.437,0.148-0.875,0.293-1.319,0.438v-1.008c0.34-0.111,0.678-0.223,1.011-0.338c0.204-0.068,0.407-0.139,0.609-0.209v-8.162
			c-0.534,0.324-1.075,0.65-1.62,0.969v-1.111c0.545-0.322,1.086-0.648,1.62-0.979v-1.65c-0.534,0.27-1.075,0.535-1.62,0.795v-1.061
			c0.619-0.299,1.234-0.605,1.838-0.914c0.029-0.02,0.06-0.035,0.091-0.047c0.771-0.396,1.528-0.799,2.272-1.207v1.088
			c-0.533,0.289-1.074,0.576-1.621,0.857v1.535c0.547-0.344,1.088-0.693,1.621-1.047v1.141c-0.533,0.35-1.074,0.693-1.621,1.035
			v8.42c0.547-0.199,1.088-0.4,1.621-0.604v1.025c-0.533,0.201-1.074,0.398-1.621,0.596v1.428c0.547-0.254,1.088-0.51,1.621-0.77
			V137.715z M35.046,139.613c-0.535,0.225-1.076,0.447-1.621,0.666v3.949c0,0.266-0.216,0.48-0.479,0.48
			c-0.266,0-0.48-0.215-0.48-0.48v-3.566c-0.536,0.207-1.076,0.414-1.622,0.615v-1.023c0.546-0.203,1.086-0.414,1.622-0.625v-1.977
			c-0.536,0.154-1.076,0.305-1.622,0.451v-0.99c0.546-0.15,1.086-0.303,1.622-0.459v-7.07c-0.536,0.295-1.076,0.584-1.622,0.869
			v-1.08c0.546-0.289,1.086-0.584,1.622-0.881v-2.133c-0.536,0.234-1.076,0.467-1.622,0.693v-1.039
			c0.628-0.264,1.248-0.533,1.86-0.809c0.029-0.016,0.06-0.031,0.09-0.041c0.387-0.174,0.769-0.348,1.147-0.525
			c0.371-0.174,0.739-0.348,1.105-0.525v1.061c-0.233,0.111-0.467,0.223-0.701,0.332c-0.305,0.143-0.611,0.283-0.92,0.424v2.023
			c0.16-0.09,0.32-0.184,0.479-0.275c0.385-0.221,0.765-0.445,1.143-0.67v1.111c-0.222,0.131-0.443,0.26-0.666,0.387
			c-0.314,0.184-0.635,0.365-0.955,0.545v7.316c0.545-0.166,1.086-0.334,1.621-0.508v1.008c-0.535,0.17-1.076,0.336-1.621,0.502
			v1.875c0.545-0.221,1.086-0.445,1.621-0.676V139.613z M30.843,141.277c-0.535,0.199-1.074,0.395-1.621,0.586v2.365
			c0,0.266-0.215,0.48-0.479,0.48c-0.266,0-0.481-0.215-0.481-0.48v-2.031c-0.534,0.182-1.076,0.361-1.621,0.537v-1.008
			c0.547-0.176,1.087-0.359,1.621-0.545v-2.422c-0.534,0.129-1.076,0.252-1.621,0.373v-0.98c0.547-0.119,1.087-0.248,1.621-0.375
			v-6.014c-0.534,0.262-1.076,0.52-1.621,0.775v-1.055c0.545-0.26,1.087-0.521,1.621-0.787v-2.617
			c-0.534,0.203-1.076,0.402-1.621,0.598v-1.016c0.634-0.229,1.259-0.463,1.88-0.705c0.029-0.018,0.063-0.031,0.099-0.039
			c0.753-0.295,1.491-0.594,2.224-0.904v1.039c-0.535,0.223-1.076,0.441-1.621,0.656v2.506c0.547-0.275,1.086-0.557,1.621-0.842
			v1.08c-0.535,0.281-1.076,0.561-1.621,0.834v6.25c0.547-0.137,1.086-0.279,1.621-0.424v0.99c-0.535,0.145-1.076,0.287-1.621,0.424
			v2.32c0.547-0.195,1.086-0.393,1.621-0.594V141.277z M26.641,142.734c-0.534,0.174-1.074,0.342-1.62,0.508v0.986
			c0,0.266-0.217,0.48-0.48,0.48s-0.479-0.215-0.479-0.48v-0.699c-0.537,0.158-1.077,0.314-1.622,0.463v-0.996
			c0.545-0.148,1.085-0.305,1.622-0.465v-2.863c-0.537,0.102-1.077,0.201-1.622,0.297v-0.973c0.545-0.096,1.085-0.197,1.622-0.301
			v-4.994c-0.537,0.232-1.077,0.461-1.622,0.68v-1.031c0.545-0.227,1.085-0.455,1.622-0.691v-3.098
			c-0.537,0.172-1.077,0.342-1.622,0.508v-1c0.642-0.195,1.276-0.398,1.907-0.607c0.026-0.012,0.056-0.02,0.088-0.029
			c0.744-0.246,1.479-0.502,2.206-0.766v1.016c-0.536,0.193-1.077,0.381-1.62,0.563v2.988c0.546-0.244,1.086-0.492,1.62-0.744v1.055
			c-0.536,0.248-1.077,0.498-1.62,0.738v5.223c0.546-0.111,1.086-0.227,1.62-0.348v0.98c-0.534,0.119-1.074,0.234-1.62,0.344v2.764
			c0.546-0.168,1.086-0.338,1.62-0.514V142.734z M22.439,143.992c-0.554,0.152-1.108,0.303-1.67,0.449
			c-0.077,0.16-0.242,0.268-0.431,0.268c-0.104,0-0.199-0.031-0.275-0.086c-0.604,0.152-1.214,0.299-1.825,0.441v-0.984
			c0.545-0.129,1.084-0.26,1.62-0.395v-3.303c-0.536,0.08-1.075,0.156-1.62,0.227v-0.965c0.545-0.072,1.084-0.148,1.62-0.229v-4.021
			c-0.536,0.203-1.075,0.4-1.62,0.592v-1.016c0.545-0.195,1.084-0.395,1.62-0.6v-3.574c-0.536,0.143-1.075,0.279-1.62,0.414v-0.984
			c0.645-0.16,1.285-0.328,1.92-0.502c0.036-0.016,0.07-0.023,0.105-0.029c0.732-0.201,1.459-0.41,2.176-0.631v1
			c-0.536,0.16-1.077,0.316-1.62,0.469V134c0.543-0.213,1.084-0.432,1.62-0.654v1.031c-0.536,0.223-1.077,0.438-1.62,0.65v4.24
			c0.543-0.088,1.084-0.18,1.62-0.275v0.973c-0.536,0.094-1.077,0.186-1.62,0.271v3.201c0.543-0.143,1.084-0.289,1.62-0.441V143.992
			z M18.238,145.064c-1.378,0.322-2.78,0.621-4.202,0.891v-0.973c0.608-0.117,1.213-0.24,1.812-0.369
			c-0.117-0.086-0.19-0.225-0.19-0.385v-3.313c-0.536,0.059-1.078,0.111-1.621,0.16v-0.959c0.543-0.051,1.085-0.105,1.621-0.162
			v-3.098c-0.536,0.172-1.078,0.342-1.621,0.504v-1c0.543-0.164,1.085-0.334,1.621-0.51v-4.047
			c-0.536,0.111-1.078,0.221-1.621,0.324v-0.975c0.657-0.127,1.31-0.26,1.958-0.402c0.025-0.008,0.051-0.014,0.078-0.018
			c0.729-0.162,1.449-0.33,2.166-0.508v0.984c-0.536,0.131-1.079,0.26-1.623,0.381v3.941c0.547-0.182,1.087-0.371,1.623-0.563v1.016
			c-0.536,0.189-1.079,0.375-1.623,0.557v3.305c0.547-0.063,1.087-0.133,1.623-0.203v0.965c-0.538,0.072-1.079,0.139-1.623,0.201
			v3.418c0,0.088-0.021,0.166-0.06,0.234c0.565-0.123,1.124-0.25,1.683-0.383V145.064z M14.036,145.955
			c-4.121,0.793-8.427,1.363-12.89,1.672c-0.265,0.018-0.492-0.182-0.511-0.447c-0.018-0.262,0.182-0.49,0.445-0.51
			c4.489-0.307,8.817-0.887,12.955-1.688V145.955L14.036,145.955z M14.036,141.076c-0.539,0.049-1.079,0.092-1.622,0.131v3.021
			c0,0.266-0.215,0.48-0.479,0.48c-0.266,0-0.48-0.215-0.48-0.48v-2.953c-3.342,0.217-6.798,0.275-10.354,0.158
			c-0.266-0.008-0.472-0.229-0.465-0.492c0.01-0.266,0.229-0.473,0.493-0.465c3.548,0.119,6.993,0.057,10.325-0.158v-2.227
			c-3.318,0.887-6.748,1.59-10.275,2.068c-0.263,0.037-0.504-0.148-0.538-0.41c-0.036-0.26,0.148-0.502,0.41-0.537
			c3.575-0.486,7.048-1.205,10.403-2.111v-4.521c-3.335,0.527-6.782,0.857-10.328,0.953c-0.264,0.008-0.483-0.203-0.49-0.467
			c-0.006-0.264,0.204-0.482,0.468-0.488c3.684-0.098,7.257-0.455,10.71-1.023c0.027-0.008,0.055-0.014,0.083-0.016
			c0.717-0.119,1.431-0.246,2.14-0.385v0.975c-0.539,0.104-1.079,0.201-1.622,0.293v4.414c0.543-0.152,1.083-0.311,1.622-0.475v1
			c-0.539,0.16-1.079,0.318-1.622,0.469v2.42c0.543-0.041,1.083-0.086,1.622-0.133V141.076z"/>
		<rect x="12.251" y="144.053" fill-rule="evenodd" clip-rule="evenodd" fill="#3C3C3B" width="49.951" height="5.926"/>
		<path fill="#3C3C3B" d="M121.084,118.635c0.116-0.143,0.325-0.164,0.465-0.049c0.143,0.117,0.163,0.324,0.05,0.467h-0.002
			c-0.662,0.885-1.471,1.861-2.416,2.904v9.527c0.73-0.678,1.367-1.35,1.903-2.008c0.116-0.143,0.325-0.164,0.465-0.047
			c0.143,0.113,0.163,0.32,0.05,0.465h-0.004c-0.66,0.881-1.471,1.791-2.414,2.723v13.541c0,0.184-0.148,0.334-0.332,0.334
			c-0.182,0-0.332-0.15-0.332-0.334v-12.906c-0.355,0.332-0.731,0.666-1.12,1v-1.254c0.392-0.307,0.767-0.613,1.12-0.922v-9.4
			c-0.355,0.381-0.731,0.768-1.12,1.16v-1.35c0.419-0.385,0.817-0.764,1.195-1.135c0.014-0.021,0.034-0.039,0.053-0.055
			C119.602,120.35,120.418,119.451,121.084,118.635z M117.396,134.252c-0.36,0.311-0.731,0.615-1.12,0.926v10.98
			c0,0.184-0.149,0.334-0.334,0.334c-0.182,0-0.33-0.15-0.33-0.334v-10.461c-0.678,0.518-1.393,1.035-2.145,1.547v-0.801
			l0.181-0.125l-0.181,0.104v-0.764c0.756-0.449,1.471-0.902,2.145-1.361v-8.738c-0.678,0.631-1.393,1.27-2.145,1.912V126.6
			l0.095-0.084l-0.095,0.074v-0.83c0.788-0.598,1.533-1.195,2.235-1.785c0.017-0.018,0.037-0.035,0.06-0.049
			c0.575-0.488,1.12-0.967,1.634-1.439v1.35c-0.36,0.359-0.731,0.729-1.12,1.098v8.9c0.389-0.279,0.761-0.557,1.12-0.836V134.252z
			 M113.468,137.244l-0.098,0.066v8.848c0,0.184-0.149,0.334-0.332,0.334c-0.184,0-0.331-0.15-0.331-0.334v-8.402
			c-0.366,0.24-0.741,0.479-1.12,0.715v-0.779c0.381-0.242,0.756-0.484,1.12-0.729v-0.107c-0.366,0.201-0.741,0.404-1.12,0.604
			v-0.748c0.381-0.201,0.756-0.406,1.12-0.613v-7.984c-0.366,0.305-0.741,0.609-1.12,0.914v-0.846
			c0.381-0.313,0.756-0.621,1.12-0.928v-0.105c-0.366,0.264-0.741,0.527-1.12,0.791v-0.805c0.417-0.293,0.825-0.588,1.224-0.883
			c0.019-0.016,0.042-0.033,0.066-0.047c0.199-0.148,0.395-0.297,0.591-0.445v0.83l-0.098,0.07v0.023l0.098-0.084v0.871
			l-0.098,0.082v8.164l0.098-0.059v0.764l-0.098,0.057v0.033l0.098-0.068V137.244z M111.587,138.471
			c-0.368,0.229-0.741,0.455-1.122,0.68v7.008c0,0.184-0.15,0.334-0.33,0.334c-0.186,0-0.332-0.15-0.332-0.334v-6.621
			c-0.37,0.211-0.742,0.422-1.122,0.627v-0.754c0.38-0.211,0.752-0.424,1.122-0.635v-0.434c-0.37,0.172-0.742,0.346-1.122,0.516
			v-0.727c0.38-0.17,0.752-0.344,1.122-0.52v-7.203c-0.37,0.275-0.742,0.549-1.122,0.824v-0.818c0.38-0.275,0.752-0.555,1.122-0.836
			v-0.453c-0.37,0.236-0.742,0.471-1.122,0.703v-0.775c0.42-0.262,0.834-0.525,1.239-0.791c0.019-0.016,0.042-0.029,0.064-0.041
			c0.55-0.359,1.083-0.723,1.603-1.086v0.805c-0.368,0.252-0.741,0.504-1.122,0.754v0.377c0.381-0.299,0.754-0.594,1.122-0.889
			v0.846c-0.368,0.293-0.741,0.586-1.122,0.877v7.385c0.381-0.193,0.754-0.381,1.122-0.578v0.748
			c-0.368,0.191-0.741,0.379-1.122,0.564v0.357c0.381-0.229,0.754-0.457,1.122-0.689V138.471z M108.681,140.164
			c-0.368,0.203-0.742,0.402-1.122,0.598v5.396c0,0.184-0.148,0.334-0.33,0.334c-0.184,0-0.334-0.15-0.334-0.334v-5.057
			c-0.367,0.186-0.742,0.369-1.118,0.553v-0.738c0.376-0.184,0.751-0.371,1.118-0.557v-0.746c-0.367,0.146-0.742,0.295-1.118,0.438
			v-0.711c0.376-0.145,0.751-0.293,1.118-0.441v-6.42c-0.367,0.25-0.742,0.5-1.118,0.744v-0.789c0.376-0.25,0.751-0.5,1.118-0.752
			v-0.803c-0.367,0.211-0.742,0.42-1.118,0.625v-0.754c0.422-0.234,0.841-0.471,1.251-0.707c0.022-0.016,0.044-0.029,0.066-0.039
			c0.54-0.313,1.069-0.633,1.587-0.951v0.775c-0.368,0.227-0.742,0.449-1.122,0.67v0.723c0.38-0.268,0.754-0.537,1.122-0.807v0.818
			c-0.368,0.264-0.742,0.529-1.122,0.793v6.596c0.38-0.16,0.754-0.324,1.122-0.49v0.727c-0.368,0.162-0.742,0.322-1.122,0.482v0.672
			c0.38-0.197,0.754-0.396,1.122-0.602V140.164z M105.776,141.654c-0.371,0.176-0.744,0.352-1.122,0.527v3.977
			c0,0.184-0.148,0.334-0.332,0.334s-0.332-0.15-0.332-0.334v-3.68l-0.182,0.08c-0.311,0.139-0.622,0.273-0.938,0.408v-0.723
			c0.223-0.096,0.449-0.191,0.671-0.293c0.151-0.064,0.3-0.133,0.449-0.199v-1.059l-0.209,0.074c-0.3,0.1-0.604,0.199-0.911,0.299
			v-0.695c0.233-0.078,0.469-0.156,0.698-0.234c0.143-0.047,0.282-0.096,0.422-0.143v-5.645c-0.369,0.225-0.742,0.449-1.12,0.67
			v-0.766c0.378-0.225,0.751-0.451,1.12-0.68v-1.141c-0.369,0.186-0.742,0.369-1.12,0.551v-0.734
			c0.429-0.207,0.854-0.418,1.271-0.633c0.02-0.012,0.039-0.025,0.062-0.031c0.533-0.273,1.058-0.553,1.573-0.836v0.754
			c-0.371,0.199-0.744,0.396-1.122,0.592v1.063c0.378-0.24,0.751-0.482,1.122-0.725v0.789c-0.371,0.24-0.744,0.479-1.122,0.717v5.82
			c0.378-0.139,0.751-0.277,1.122-0.42v0.711c-0.371,0.139-0.744,0.277-1.122,0.412v0.986c0.378-0.176,0.751-0.352,1.122-0.533
			V141.654z M102.87,142.967c-0.371,0.154-0.745,0.309-1.122,0.461v2.73c0,0.184-0.147,0.334-0.33,0.334
			c-0.184,0-0.332-0.15-0.332-0.334v-2.469c-0.369,0.145-0.744,0.287-1.122,0.43v-0.709c0.378-0.143,0.753-0.287,1.122-0.432v-1.367
			c-0.369,0.107-0.744,0.211-1.122,0.311v-0.686c0.378-0.104,0.753-0.205,1.122-0.316v-4.887c-0.369,0.203-0.744,0.402-1.122,0.6
			v-0.746c0.378-0.199,0.753-0.404,1.122-0.609v-1.475c-0.369,0.162-0.744,0.322-1.122,0.48v-0.717
			c0.435-0.184,0.863-0.369,1.286-0.561c0.019-0.014,0.042-0.021,0.063-0.029c0.268-0.121,0.531-0.24,0.793-0.363
			c0.258-0.119,0.511-0.242,0.765-0.363v0.734l-0.485,0.227c-0.211,0.102-0.422,0.197-0.637,0.293v1.4
			c0.111-0.063,0.222-0.127,0.332-0.188c0.265-0.154,0.528-0.309,0.79-0.463v0.766l-0.46,0.268c-0.219,0.125-0.44,0.252-0.662,0.377
			v5.059c0.377-0.115,0.751-0.232,1.122-0.352v0.695c-0.371,0.117-0.745,0.234-1.122,0.348v1.299
			c0.38-0.154,0.751-0.309,1.122-0.469V142.967z M99.964,144.119c-0.369,0.137-0.743,0.27-1.121,0.402v1.637
			c0,0.184-0.148,0.334-0.331,0.334c-0.184,0-0.333-0.15-0.333-0.334v-1.404c-0.369,0.125-0.742,0.248-1.119,0.369v-0.695
			c0.377-0.123,0.75-0.248,1.119-0.375v-1.676c-0.369,0.088-0.742,0.176-1.119,0.258v-0.678c0.377-0.086,0.75-0.172,1.119-0.26
			v-4.158c-0.369,0.18-0.742,0.361-1.119,0.535v-0.73c0.377-0.176,0.75-0.355,1.119-0.541v-1.811
			c-0.369,0.141-0.742,0.277-1.119,0.416v-0.705c0.437-0.156,0.869-0.322,1.298-0.486c0.021-0.012,0.042-0.023,0.068-0.027
			c0.521-0.203,1.033-0.412,1.538-0.623v0.717c-0.369,0.152-0.743,0.305-1.121,0.451v1.736c0.378-0.193,0.752-0.387,1.121-0.584
			v0.746c-0.369,0.197-0.743,0.387-1.121,0.578v4.322c0.378-0.098,0.752-0.195,1.121-0.297v0.686
			c-0.369,0.102-0.743,0.199-1.121,0.291v1.607c0.378-0.135,0.752-0.271,1.121-0.41V144.119z M97.06,145.123
			c-0.372,0.121-0.745,0.236-1.121,0.354v0.682c0,0.184-0.148,0.334-0.332,0.334c-0.183,0-0.332-0.15-0.332-0.334v-0.484
			c-0.371,0.109-0.746,0.217-1.122,0.32v-0.688c0.376-0.107,0.751-0.213,1.122-0.322v-1.98c-0.371,0.072-0.746,0.139-1.122,0.207
			v-0.674c0.376-0.066,0.751-0.135,1.122-0.205v-3.455c-0.371,0.16-0.746,0.314-1.122,0.471v-0.715
			c0.376-0.156,0.751-0.314,1.122-0.477v-2.143c-0.371,0.121-0.746,0.236-1.122,0.35v-0.689c0.446-0.137,0.884-0.275,1.321-0.422
			c0.017-0.008,0.037-0.014,0.06-0.018c0.514-0.172,1.022-0.348,1.526-0.531v0.705c-0.372,0.131-0.745,0.26-1.121,0.387v2.066
			c0.376-0.17,0.749-0.342,1.121-0.518v0.73c-0.372,0.174-0.745,0.344-1.121,0.512v3.611c0.376-0.076,0.749-0.158,1.121-0.24v0.678
			c-0.372,0.082-0.745,0.162-1.121,0.236v1.912c0.376-0.117,0.749-0.236,1.121-0.355V145.123z M94.152,145.994
			c-0.382,0.105-0.766,0.209-1.154,0.311c-0.053,0.111-0.167,0.188-0.298,0.188c-0.069,0-0.136-0.021-0.19-0.063
			c-0.417,0.107-0.838,0.209-1.262,0.307v-0.682c0.375-0.088,0.751-0.18,1.12-0.271V143.5c-0.369,0.053-0.745,0.105-1.12,0.158
			v-0.67c0.375-0.049,0.751-0.104,1.12-0.158v-2.779c-0.369,0.139-0.745,0.275-1.12,0.406v-0.699
			c0.375-0.137,0.751-0.275,1.12-0.414v-2.475c-0.369,0.102-0.745,0.195-1.12,0.289v-0.682c0.446-0.109,0.889-0.227,1.328-0.35
			c0.023-0.008,0.048-0.014,0.075-0.018c0.504-0.141,1.004-0.287,1.501-0.436v0.689c-0.369,0.111-0.742,0.219-1.12,0.324v2.396
			c0.378-0.146,0.751-0.299,1.12-0.451v0.715c-0.369,0.152-0.742,0.303-1.12,0.449v2.93c0.378-0.061,0.751-0.123,1.12-0.189v0.674
			c-0.369,0.064-0.742,0.127-1.12,0.186v2.215c0.378-0.098,0.751-0.201,1.12-0.305V145.994z M91.248,146.736
			c-0.953,0.225-1.922,0.43-2.904,0.617v-0.676c0.419-0.08,0.838-0.166,1.253-0.254c-0.08-0.061-0.133-0.156-0.133-0.266v-2.289
			c-0.373,0.039-0.745,0.076-1.12,0.107v-0.664c0.375-0.033,0.747-0.07,1.12-0.111v-2.141c-0.373,0.119-0.745,0.236-1.12,0.348
			v-0.691c0.375-0.113,0.747-0.229,1.12-0.35v-2.803c-0.373,0.08-0.745,0.154-1.12,0.227v-0.672c0.454-0.09,0.905-0.182,1.354-0.279
			c0.017-0.006,0.034-0.01,0.055-0.012c0.502-0.111,1.003-0.227,1.496-0.352v0.682c-0.371,0.092-0.745,0.18-1.12,0.262v2.727
			c0.375-0.127,0.749-0.258,1.12-0.389v0.699c-0.371,0.133-0.745,0.26-1.12,0.387v2.285c0.375-0.045,0.749-0.092,1.12-0.141v0.67
			c-0.371,0.047-0.745,0.094-1.12,0.135v2.365c0,0.061-0.016,0.113-0.043,0.162c0.391-0.086,0.778-0.174,1.163-0.266V146.736z
			 M88.344,147.354c-2.85,0.545-5.827,0.943-8.913,1.154c-0.183,0.012-0.341-0.127-0.353-0.309c-0.013-0.184,0.126-0.34,0.31-0.352
			c3.102-0.215,6.095-0.617,8.956-1.17V147.354L88.344,147.354z M88.344,143.977c-0.371,0.033-0.747,0.066-1.122,0.094v2.088
			c0,0.184-0.147,0.334-0.332,0.334c-0.182,0-0.332-0.15-0.332-0.334v-2.041c-2.31,0.148-4.7,0.191-7.158,0.107
			c-0.184-0.006-0.327-0.158-0.321-0.34c0.005-0.182,0.159-0.328,0.342-0.32c2.453,0.082,4.835,0.041,7.138-0.111v-1.537
			c-2.294,0.613-4.664,1.098-7.105,1.428c-0.181,0.023-0.348-0.102-0.371-0.281c-0.023-0.182,0.103-0.348,0.283-0.371
			c2.472-0.338,4.873-0.836,7.193-1.459v-3.129c-2.305,0.365-4.688,0.596-7.141,0.66c-0.183,0.004-0.334-0.143-0.339-0.322
			c-0.004-0.184,0.141-0.336,0.323-0.34c2.549-0.066,5.019-0.314,7.405-0.707c0.019-0.006,0.037-0.008,0.058-0.008
			c0.496-0.084,0.989-0.172,1.479-0.268v0.672c-0.371,0.072-0.747,0.139-1.122,0.205v3.051c0.377-0.105,0.751-0.215,1.122-0.33
			v0.691c-0.371,0.113-0.747,0.223-1.122,0.326v1.672c0.377-0.027,0.751-0.061,1.122-0.094V143.977z"/>
		<rect x="83.05" y="145.883" fill-rule="evenodd" clip-rule="evenodd" fill="#3C3C3B" width="34.536" height="4.096"/>
		<g>
			<g>
				<path fill-rule="evenodd" clip-rule="evenodd" fill="#3C3C3B" d="M207.681,70.6c2.808,1.67,5.387,3.682,7.683,5.977
					c7.075,7.076,11.452,16.851,11.452,27.648c0,10.799-4.377,20.574-11.452,27.652c-2.296,2.295-4.875,4.305-7.683,5.975v-1.006
					c0.712-0.438,1.406-0.895,2.086-1.375l-2.086-2.869v-1.781l2.934,4.033c1.464-1.096,2.848-2.293,4.14-3.586
					c4.097-4.096,7.267-9.117,9.173-14.725l-16.246-5.277v-1.102l16.569,5.383c1.108-3.578,1.704-7.381,1.704-11.322
					c0-3.939-0.596-7.742-1.704-11.32l-16.569,5.385v-1.104l16.246-5.277c-1.906-5.607-5.076-10.627-9.173-14.723
					c-1.292-1.291-2.676-2.492-4.14-3.589l-2.934,4.037v-1.785l2.086-2.867c-0.68-0.48-1.374-0.939-2.086-1.375V70.6z
					 M187.714,65.121c7.295,0,14.123,2,19.967,5.479v1.006c-5.672-3.479-12.323-5.521-19.442-5.619v36.625l19.442-26.764v1.785
					l-18.595,25.596l18.595-6.043v1.104l-18.27,5.936l18.27,5.939v1.102l-18.595-6.043l18.595,25.598v1.781l-19.442-26.764v36.627
					c7.119-0.098,13.771-2.139,19.442-5.619v1.006c-5.844,3.479-12.672,5.477-19.967,5.477c-3.926,0-7.716-0.58-11.289-1.654v-0.9
					c3.408,1.051,7.021,1.639,10.765,1.689v-36.625l-10.765,14.816v-1.783l9.915-13.648l-9.915,3.221v-1.104l9.592-3.115
					l-9.592-3.117v-1.1l9.915,3.221l-9.915-13.647v-1.786l10.765,14.816V65.986c-3.744,0.051-7.356,0.641-10.765,1.691v-0.9
					C179.998,65.702,183.788,65.121,187.714,65.121z M176.425,141.674c-6.26-1.885-11.858-5.295-16.361-9.797
					c-7.077-7.078-11.452-16.854-11.452-27.652c0-10.797,4.375-20.572,11.452-27.648c4.503-4.506,10.102-7.916,16.361-9.799v0.9
					c-3.89,1.201-7.513,3.006-10.764,5.303l10.764,14.815v1.786l-11.613-15.985c-1.464,1.097-2.849,2.298-4.139,3.589
					c-4.096,4.096-7.268,9.115-9.174,14.723l24.926,8.1v1.1l-25.249-8.203c-1.107,3.578-1.704,7.381-1.704,11.32
					c0,3.941,0.597,7.744,1.704,11.322l25.249-8.207v1.104l-24.926,8.1c1.906,5.607,5.078,10.627,9.174,14.725
					c1.29,1.293,2.675,2.49,4.139,3.586l11.613-15.982v1.783l-10.764,14.816c3.251,2.299,6.874,4.102,10.764,5.303V141.674z"/>
				<circle fill-rule="evenodd" clip-rule="evenodd" fill="#3C3C3B" cx="187.714" cy="104.226" r="10.239"/>
				<g>
					<g>
						<polygon fill-rule="evenodd" clip-rule="evenodd" fill="#3C3C3B" points="184.979,58.182 185.241,58.182 184.636,61.495 
							184.37,61.495 						"/>
						<polygon fill-rule="evenodd" clip-rule="evenodd" fill="#3C3C3B" points="190.447,58.182 190.186,58.182 190.792,61.495 
							191.056,61.495 						"/>
					</g>
					<path fill-rule="evenodd" clip-rule="evenodd" fill="#3C3C3B" d="M187.714,56.877c1.103,0,2.089,0.508,2.733,1.305h-5.468
						C185.623,57.385,186.608,56.877,187.714,56.877L187.714,56.877z M191.056,61.495c-0.463,1.404-1.784,2.418-3.342,2.418
						c-1.56,0-2.881-1.014-3.344-2.418h2.773v1.318h1.139v-1.318H191.056z"/>
				</g>
				<circle fill-rule="evenodd" clip-rule="evenodd" fill="#3C3C3B" cx="187.714" cy="104.226" r="9.124"/>
				<path fill-rule="evenodd" clip-rule="evenodd" fill="#3C3C3B" d="M187.714,55.637c26.834,0,48.589,21.753,48.589,48.587
					c0,26.838-21.755,48.592-48.589,48.592v0.848c27.303,0,49.437-22.135,49.437-49.439c0-27.303-22.134-49.436-49.437-49.436
					V55.637z M187.712,55.637h0.002v-0.848h-0.002c-27.301,0-49.436,22.133-49.436,49.436c0,27.305,22.135,49.439,49.436,49.439
					h0.002v-0.848h-0.002c-26.835,0-48.588-21.754-48.588-48.592C139.124,77.391,160.877,55.637,187.712,55.637z"/>
				<g>
					<g>
						<polygon fill-rule="evenodd" clip-rule="evenodd" fill="#3C3C3B" points="198.82,60.243 199.084,60.243 198.478,63.559 
							198.216,63.559 						"/>
						<polygon fill-rule="evenodd" clip-rule="evenodd" fill="#3C3C3B" points="204.291,60.243 204.027,60.243 204.636,63.559 
							204.897,63.559 						"/>
					</g>
					<path fill-rule="evenodd" clip-rule="evenodd" fill="#3C3C3B" d="M201.556,58.938c1.106,0,2.091,0.508,2.735,1.305h-5.471
						C199.467,59.445,200.451,58.938,201.556,58.938L201.556,58.938z M204.897,63.559c-0.461,1.402-1.784,2.414-3.342,2.414
						s-2.879-1.012-3.34-2.414h2.771v1.316h1.137v-1.316H204.897z"/>
				</g>
				<g>
					<g>
						<polygon fill-rule="evenodd" clip-rule="evenodd" fill="#3C3C3B" points="210.603,66.283 210.866,66.283 210.26,69.596 
							209.996,69.596 						"/>
						<polygon fill-rule="evenodd" clip-rule="evenodd" fill="#3C3C3B" points="216.071,66.283 215.81,66.283 216.416,69.596 
							216.68,69.596 						"/>
					</g>
					<path fill-rule="evenodd" clip-rule="evenodd" fill="#3C3C3B" d="M213.338,64.975c1.104,0,2.091,0.512,2.733,1.309h-5.469
						C211.247,65.486,212.233,64.975,213.338,64.975L213.338,64.975z M216.68,69.596c-0.463,1.404-1.784,2.416-3.342,2.416
						s-2.879-1.012-3.342-2.416h2.773v1.316h1.139v-1.316H216.68z"/>
				</g>
				<g>
					<g>
						<polygon fill-rule="evenodd" clip-rule="evenodd" fill="#3C3C3B" points="220.323,76.148 220.585,76.148 219.979,79.463 
							219.715,79.463 						"/>
						<polygon fill-rule="evenodd" clip-rule="evenodd" fill="#3C3C3B" points="225.792,76.148 225.53,76.148 226.137,79.463 
							226.398,79.463 						"/>
					</g>
					<path fill-rule="evenodd" clip-rule="evenodd" fill="#3C3C3B" d="M223.059,74.842c1.103,0,2.089,0.51,2.733,1.307h-5.469
						C220.966,75.352,221.954,74.842,223.059,74.842L223.059,74.842z M226.398,79.463c-0.461,1.405-1.782,2.416-3.34,2.416
						c-1.56,0-2.881-1.011-3.344-2.416h2.773v1.316h1.141v-1.316H226.398z"/>
				</g>
				<g>
					<g>
						<polygon fill-rule="evenodd" clip-rule="evenodd" fill="#3C3C3B" points="226.508,87.489 226.77,87.489 226.165,90.806 
							225.901,90.806 						"/>
						<polygon fill-rule="evenodd" clip-rule="evenodd" fill="#3C3C3B" points="231.978,87.489 231.715,87.489 232.321,90.806 
							232.585,90.806 						"/>
					</g>
					<path fill-rule="evenodd" clip-rule="evenodd" fill="#3C3C3B" d="M229.243,86.182c1.104,0,2.091,0.512,2.734,1.307h-5.47
						C227.152,86.693,228.139,86.182,229.243,86.182L229.243,86.182z M232.585,90.806c-0.463,1.399-1.784,2.411-3.342,2.411
						c-1.56,0-2.879-1.012-3.342-2.411h2.771v1.312h1.141v-1.312H232.585z"/>
				</g>
				<g>
					<g>
						<polygon fill-rule="evenodd" clip-rule="evenodd" fill="#3C3C3B" points="228.863,102.066 229.128,102.066 228.521,105.381 
							228.258,105.381 						"/>
						<polygon fill-rule="evenodd" clip-rule="evenodd" fill="#3C3C3B" points="234.335,102.066 234.071,102.066 234.679,105.381 
							234.941,105.381 						"/>
					</g>
					<path fill-rule="evenodd" clip-rule="evenodd" fill="#3C3C3B" d="M231.6,100.764c1.104,0,2.09,0.508,2.735,1.303h-5.472
						C229.509,101.271,230.494,100.764,231.6,100.764L231.6,100.764z M234.941,105.381c-0.464,1.404-1.784,2.416-3.342,2.416
						s-2.879-1.012-3.342-2.416h2.771v1.316h1.141v-1.316H234.941z"/>
				</g>
				<g>
					<g>
						<polygon fill-rule="evenodd" clip-rule="evenodd" fill="#3C3C3B" points="226.948,115.027 227.212,115.027 226.604,118.344 
							226.344,118.344 						"/>
						<polygon fill-rule="evenodd" clip-rule="evenodd" fill="#3C3C3B" points="232.42,115.027 232.156,115.027 232.764,118.344 
							233.026,118.344 						"/>
					</g>
					<path fill-rule="evenodd" clip-rule="evenodd" fill="#3C3C3B" d="M229.685,113.721c1.106,0,2.09,0.51,2.735,1.307h-5.47
						C227.594,114.23,228.581,113.721,229.685,113.721L229.685,113.721z M233.026,118.344c-0.462,1.4-1.784,2.416-3.342,2.416
						c-1.557,0-2.877-1.016-3.341-2.416h2.771v1.314h1.141v-1.314H233.026z"/>
				</g>
				<g>
					<g>
						<polygon fill-rule="evenodd" clip-rule="evenodd" fill="#3C3C3B" points="220.323,127.693 220.585,127.693 219.979,131.008 
							219.715,131.008 						"/>
						<polygon fill-rule="evenodd" clip-rule="evenodd" fill="#3C3C3B" points="225.792,127.693 225.53,127.693 226.137,131.008 
							226.398,131.008 						"/>
					</g>
					<path fill-rule="evenodd" clip-rule="evenodd" fill="#3C3C3B" d="M223.059,126.387c1.103,0,2.089,0.51,2.733,1.307h-5.469
						C220.966,126.896,221.954,126.387,223.059,126.387L223.059,126.387z M226.398,131.008c-0.461,1.402-1.782,2.414-3.34,2.414
						c-1.56,0-2.881-1.012-3.344-2.414h2.773v1.314h1.141v-1.314H226.398z"/>
				</g>
				<g>
					<g>
						<polygon fill-rule="evenodd" clip-rule="evenodd" fill="#3C3C3B" points="210.013,137.854 210.277,137.854 209.671,141.17 
							209.407,141.17 						"/>
						<polygon fill-rule="evenodd" clip-rule="evenodd" fill="#3C3C3B" points="215.483,137.854 215.221,137.854 215.828,141.17 
							216.091,141.17 						"/>
					</g>
					<path fill-rule="evenodd" clip-rule="evenodd" fill="#3C3C3B" d="M212.749,136.549c1.103,0,2.09,0.508,2.734,1.305h-5.471
						C210.658,137.057,211.644,136.549,212.749,136.549L212.749,136.549z M216.091,141.17c-0.463,1.402-1.784,2.412-3.342,2.412
						s-2.879-1.01-3.342-2.412h2.771v1.314h1.141v-1.314H216.091z"/>
				</g>
				<g>
					<g>
						<polygon fill-rule="evenodd" clip-rule="evenodd" fill="#3C3C3B" points="198.086,144.039 198.347,144.039 197.74,147.354 
							197.479,147.354 						"/>
						<polygon fill-rule="evenodd" clip-rule="evenodd" fill="#3C3C3B" points="203.555,144.039 203.292,144.039 203.899,147.354 
							204.162,147.354 						"/>
					</g>
					<path fill-rule="evenodd" clip-rule="evenodd" fill="#3C3C3B" d="M200.82,142.732c1.104,0,2.089,0.51,2.734,1.307h-5.469
						C198.729,143.242,199.714,142.732,200.82,142.732L200.82,142.732z M204.162,147.354c-0.463,1.404-1.786,2.418-3.342,2.418
						c-1.56,0-2.881-1.014-3.342-2.418h2.771v1.318h1.141v-1.318H204.162z"/>
				</g>
				<g>
					<g>
						<polygon fill-rule="evenodd" clip-rule="evenodd" fill="#3C3C3B" points="176.55,60.243 176.285,60.243 176.892,63.559 
							177.155,63.559 						"/>
						<polygon fill-rule="evenodd" clip-rule="evenodd" fill="#3C3C3B" points="171.079,60.243 171.342,60.243 170.735,63.559 
							170.472,63.559 						"/>
					</g>
					<path fill-rule="evenodd" clip-rule="evenodd" fill="#3C3C3B" d="M173.813,58.938c-1.103,0-2.089,0.508-2.734,1.305h5.471
						C175.904,59.445,174.919,58.938,173.813,58.938L173.813,58.938z M170.472,63.559c0.465,1.402,1.786,2.414,3.342,2.414
						c1.56,0,2.881-1.012,3.342-2.414h-2.771v1.316h-1.139v-1.316H170.472z"/>
				</g>
				<g>
					<g>
						<polygon fill-rule="evenodd" clip-rule="evenodd" fill="#3C3C3B" points="164.768,66.283 164.505,66.283 165.111,69.596 
							165.373,69.596 						"/>
						<polygon fill-rule="evenodd" clip-rule="evenodd" fill="#3C3C3B" points="159.298,66.283 159.562,66.283 158.953,69.596 
							158.691,69.596 						"/>
					</g>
					<path fill-rule="evenodd" clip-rule="evenodd" fill="#3C3C3B" d="M162.033,64.975c-1.104,0-2.091,0.512-2.735,1.309h5.47
						C164.122,65.486,163.138,64.975,162.033,64.975L162.033,64.975z M158.691,69.596c0.461,1.404,1.784,2.416,3.342,2.416
						c1.556,0,2.879-1.012,3.34-2.416h-2.771v1.316h-1.139v-1.316H158.691z"/>
				</g>
				<g>
					<g>
						<polygon fill-rule="evenodd" clip-rule="evenodd" fill="#3C3C3B" points="155.047,76.148 154.784,76.148 155.391,79.463 
							155.652,79.463 						"/>
						<polygon fill-rule="evenodd" clip-rule="evenodd" fill="#3C3C3B" points="149.578,76.148 149.841,76.148 149.234,79.463 
							148.971,79.463 						"/>
					</g>
					<path fill-rule="evenodd" clip-rule="evenodd" fill="#3C3C3B" d="M152.313,74.842c-1.104,0-2.091,0.51-2.734,1.307h5.469
						C154.403,75.352,153.417,74.842,152.313,74.842L152.313,74.842z M148.971,79.463c0.463,1.405,1.784,2.416,3.342,2.416
						s2.879-1.011,3.34-2.416h-2.77v1.316h-1.141v-1.316H148.971z"/>
				</g>
				<g>
					<g>
						<polygon fill-rule="evenodd" clip-rule="evenodd" fill="#3C3C3B" points="148.862,87.489 148.6,87.489 149.206,90.806 
							149.468,90.806 						"/>
						<polygon fill-rule="evenodd" clip-rule="evenodd" fill="#3C3C3B" points="143.392,87.489 143.654,87.489 143.048,90.806 
							142.786,90.806 						"/>
					</g>
					<path fill-rule="evenodd" clip-rule="evenodd" fill="#3C3C3B" d="M146.126,86.182c-1.104,0-2.089,0.512-2.734,1.307h5.471
						C148.217,86.693,147.231,86.182,146.126,86.182L146.126,86.182z M142.786,90.806c0.461,1.399,1.782,2.411,3.34,2.411
						c1.56,0,2.881-1.012,3.342-2.411h-2.771v1.312h-1.139v-1.312H142.786z"/>
				</g>
				<g>
					<g>
						<polygon fill-rule="evenodd" clip-rule="evenodd" fill="#3C3C3B" points="146.508,102.066 146.242,102.066 146.85,105.381 
							147.111,105.381 						"/>
						<polygon fill-rule="evenodd" clip-rule="evenodd" fill="#3C3C3B" points="141.036,102.066 141.298,102.066 140.692,105.381 
							140.43,105.381 						"/>
					</g>
					<path fill-rule="evenodd" clip-rule="evenodd" fill="#3C3C3B" d="M143.77,100.764c-1.103,0-2.087,0.508-2.733,1.303h5.472
						C145.86,101.271,144.877,100.764,143.77,100.764L143.77,100.764z M140.43,105.381c0.462,1.404,1.782,2.416,3.34,2.416
						c1.559,0,2.881-1.012,3.342-2.416h-2.771v1.316h-1.139v-1.316H140.43z"/>
				</g>
				<g>
					<g>
						<polygon fill-rule="evenodd" clip-rule="evenodd" fill="#3C3C3B" points="148.421,115.027 148.157,115.027 148.765,118.344 
							149.027,118.344 						"/>
						<polygon fill-rule="evenodd" clip-rule="evenodd" fill="#3C3C3B" points="142.949,115.027 143.213,115.027 142.607,118.344 
							142.344,118.344 						"/>
					</g>
					<path fill-rule="evenodd" clip-rule="evenodd" fill="#3C3C3B" d="M145.686,113.721c-1.105,0-2.091,0.51-2.736,1.307h5.472
						C147.775,114.23,146.79,113.721,145.686,113.721L145.686,113.721z M142.344,118.344c0.461,1.4,1.784,2.416,3.342,2.416
						s2.88-1.016,3.342-2.416h-2.773v1.314h-1.139v-1.314H142.344z"/>
				</g>
				<g>
					<g>
						<polygon fill-rule="evenodd" clip-rule="evenodd" fill="#3C3C3B" points="155.047,127.693 154.784,127.693 155.391,131.008 
							155.652,131.008 						"/>
						<polygon fill-rule="evenodd" clip-rule="evenodd" fill="#3C3C3B" points="149.578,127.693 149.841,127.693 149.234,131.008 
							148.971,131.008 						"/>
					</g>
					<path fill-rule="evenodd" clip-rule="evenodd" fill="#3C3C3B" d="M152.313,126.387c-1.104,0-2.091,0.51-2.734,1.307h5.469
						C154.403,126.896,153.417,126.387,152.313,126.387L152.313,126.387z M148.971,131.008c0.463,1.402,1.784,2.414,3.342,2.414
						s2.879-1.012,3.34-2.414h-2.77v1.314h-1.141v-1.314H148.971z"/>
				</g>
				<g>
					<g>
						<polygon fill-rule="evenodd" clip-rule="evenodd" fill="#3C3C3B" points="165.356,137.854 165.094,137.854 165.7,141.17 
							165.962,141.17 						"/>
						<polygon fill-rule="evenodd" clip-rule="evenodd" fill="#3C3C3B" points="159.887,137.854 160.148,137.854 159.543,141.17 
							159.28,141.17 						"/>
					</g>
					<path fill-rule="evenodd" clip-rule="evenodd" fill="#3C3C3B" d="M162.62,136.549c-1.103,0-2.089,0.508-2.733,1.305h5.47
						C164.711,137.057,163.726,136.549,162.62,136.549L162.62,136.549z M159.28,141.17c0.462,1.402,1.782,2.412,3.34,2.412
						c1.56,0,2.881-1.01,3.342-2.412h-2.77v1.314h-1.141v-1.314H159.28z"/>
				</g>
				<g>
					<g>
						<polygon fill-rule="evenodd" clip-rule="evenodd" fill="#3C3C3B" points="177.286,144.039 177.022,144.039 177.629,147.354 
							177.891,147.354 						"/>
						<polygon fill-rule="evenodd" clip-rule="evenodd" fill="#3C3C3B" points="171.815,144.039 172.077,144.039 171.471,147.354 
							171.209,147.354 						"/>
					</g>
					<path fill-rule="evenodd" clip-rule="evenodd" fill="#3C3C3B" d="M174.551,142.732c-1.106,0-2.091,0.51-2.735,1.307h5.471
						C176.64,143.242,175.654,142.732,174.551,142.732L174.551,142.732z M171.209,147.354c0.461,1.404,1.784,2.418,3.342,2.418
						s2.879-1.014,3.34-2.418h-2.77v1.318h-1.141v-1.318H171.209z"/>
				</g>
				<g>
					<g>
						<polygon fill-rule="evenodd" clip-rule="evenodd" fill="#3C3C3B" points="184.979,145.953 185.241,145.953 184.636,149.268 
							184.37,149.268 						"/>
						<polygon fill-rule="evenodd" clip-rule="evenodd" fill="#3C3C3B" points="190.447,145.953 190.186,145.953 190.792,149.268 
							191.056,149.268 						"/>
					</g>
					<path fill-rule="evenodd" clip-rule="evenodd" fill="#3C3C3B" d="M187.714,144.65c1.103,0,2.089,0.508,2.733,1.303h-5.468
						C185.623,145.158,186.608,144.65,187.714,144.65L187.714,144.65z M191.056,149.268c-0.463,1.404-1.784,2.416-3.342,2.416
						c-1.56,0-2.881-1.012-3.344-2.416h2.773v1.316h1.139v-1.316H191.056z"/>
				</g>
				<path fill-rule="evenodd" clip-rule="evenodd" fill="#3C3C3B" d="M207.646,70.574c6.45,3.815,11.535,9.338,14.845,15.775
					c4.575,8.896,5.754,19.545,2.456,29.824c-3.042,9.479-9.361,16.992-17.301,21.693v-1.004c4.148-2.531,7.827-5.855,10.786-9.844
					l-10.786-7.773v-1.295l11.398,8.219c2.148-3.066,3.875-6.504,5.082-10.258c1.203-3.754,1.799-7.557,1.837-11.301l-18.317,0.066
					v-1.049l18.313-0.066c-0.102-5.92-1.588-11.67-4.235-16.822c-0.836-1.623-1.785-3.189-2.846-4.682l-11.232,8.226v-1.299
					l10.614-7.772c-2.855-3.797-6.434-7.084-10.614-9.633V70.574z M199.661,66.99c2.846,0.914,5.516,2.127,7.984,3.584v1.006
					c-2.393-1.46-4.983-2.672-7.748-3.604l-6.096,18.992v-3.431l5.097-15.879c-1.692-0.521-3.395-0.916-5.097-1.191v-0.873
					C195.759,65.908,197.717,66.368,199.661,66.99L199.661,66.99z M207.646,137.867c-0.675,0.4-1.359,0.777-2.055,1.137
					c-3.681,1.891-7.661,3.201-11.789,3.855v-0.871c1.823-0.295,3.613-0.723,5.36-1.273l-5.36-16.301v-3.355l6.356,19.33
					c1.731-0.6,3.413-1.318,5.039-2.152c0.832-0.428,1.649-0.887,2.448-1.373V137.867L207.646,137.867z M207.646,88.985v1.299
					l-13.844,10.134v-1.299L207.646,88.985L207.646,88.985z M207.646,103.629v1.049l-13.844,0.051v-1.049L207.646,103.629
					L207.646,103.629z M207.646,117.951v1.295l-13.844-9.984v-1.291L207.646,117.951z M193.802,142.859
					c-2.043,0.322-4.122,0.484-6.221,0.479v-0.859c2.099,0.004,4.179-0.16,6.221-0.49V142.859L193.802,142.859z M187.581,65.111
					c2.062-0.006,4.14,0.153,6.221,0.482v0.873c-2.081-0.338-4.161-0.498-6.221-0.492V65.111L187.581,65.111z M193.802,83.538v3.431
					l-5.096,15.879l5.096-3.729v1.299l-4.476,3.277l4.476-0.016v1.049l-4.473,0.016l4.473,3.227v1.291l-5.087-3.668l5.087,15.465
					v3.355l-6.083-18.492l-0.138,0.432v-4.211l0.127,0.387L193.802,83.538z M187.581,143.338c-1.974-0.006-3.965-0.164-5.957-0.48
					v-0.871c1.992,0.322,3.983,0.484,5.957,0.492V143.338L187.581,143.338z M181.624,65.592c1.958-0.309,3.948-0.472,5.957-0.48
					v0.863c-2.009,0.008-3.999,0.172-5.957,0.49V65.592L181.624,65.592z M187.581,102.143v4.211l-5.957,18.561v-3.432l5.097-15.879
					l-5.097,3.73v-1.301l4.478-3.277l-4.478,0.016v-1.049l4.474-0.016l-4.474-3.225v-1.295l5.087,3.67l-5.087-15.466v-3.355
					L187.581,102.143z M181.624,142.857c-1.956-0.311-3.915-0.775-5.859-1.4c-1.311-0.422-2.586-0.904-3.82-1.445v-0.945
					c1.159,0.523,2.354,0.994,3.585,1.406l6.095-18.99v3.432l-5.097,15.881c1.693,0.518,3.396,0.914,5.097,1.191V142.857
					L181.624,142.857z M171.944,68.443c3.074-1.357,6.329-2.32,9.68-2.852v0.873c-1.821,0.295-3.612,0.721-5.36,1.271l5.36,16.299
					v3.355l-6.356-19.329c-1.127,0.391-2.237,0.834-3.323,1.322V68.443L171.944,68.443z M181.624,99.188v1.295l-9.68-6.98v-1.291
					L181.624,99.188L181.624,99.188z M181.624,103.723v1.049l-9.68,0.035v-1.047L181.624,103.723L181.624,103.723z M181.624,108.033
					v1.301l-9.68,7.086v-1.299L181.624,108.033z M171.944,140.012c-8.44-3.707-15.017-10.143-19.007-17.908
					c-4.576-8.9-5.756-19.547-2.457-29.828c3.3-10.281,10.456-18.252,19.354-22.826c0.693-0.355,1.396-0.693,2.109-1.006v0.941
					c-0.579,0.264-1.149,0.539-1.716,0.83c-5.151,2.648-9.705,6.461-13.232,11.215l14.948,10.781v1.291l-15.562-11.219
					c-2.148,3.064-3.878,6.507-5.083,10.258c-1.204,3.752-1.798,7.553-1.835,11.299l22.479-0.08v1.047l-22.477,0.08
					c0.103,5.922,1.587,11.67,4.234,16.824c0.835,1.623,1.787,3.189,2.846,4.682l15.396-11.271v1.299l-14.776,10.816
					c3.762,5.004,8.779,9.125,14.776,11.83V140.012z"/>
			</g>
			<g>
				<path fill-rule="evenodd" clip-rule="evenodd" fill="#3C3C3B" d="M187.714,53.402c0.604,0,1.096-0.492,1.096-1.094
					c0-0.604-0.491-1.098-1.096-1.098c-0.603,0-1.097,0.494-1.097,1.098C186.617,52.911,187.111,53.402,187.714,53.402z"/>
				<circle fill-rule="evenodd" clip-rule="evenodd" fill="#3C3C3B" cx="187.714" cy="156.143" r="1.096"/>
				<circle fill-rule="evenodd" clip-rule="evenodd" fill="#3C3C3B" cx="239.631" cy="104.225" r="1.096"/>
				<circle fill-rule="evenodd" clip-rule="evenodd" fill="#3C3C3B" cx="135.796" cy="104.225" r="1.095"/>
				<path fill-rule="evenodd" clip-rule="evenodd" fill="#3C3C3B" d="M205.074,54.137c0.57,0.195,0.874,0.822,0.676,1.394
					c-0.199,0.57-0.822,0.875-1.394,0.676c-0.572-0.197-0.875-0.822-0.676-1.395C203.878,54.24,204.503,53.939,205.074,54.137z"/>
				<circle fill-rule="evenodd" clip-rule="evenodd" fill="#3C3C3B" cx="170.711" cy="153.28" r="1.096"/>
				<circle fill-rule="evenodd" clip-rule="evenodd" fill="#3C3C3B" cx="218.192" cy="62.196" r="1.096"/>
				<circle fill-rule="evenodd" clip-rule="evenodd" fill="#3C3C3B" cx="157.234" cy="146.255" r="1.096"/>
				<path fill-rule="evenodd" clip-rule="evenodd" fill="#3C3C3B" d="M229.648,71.793c0.371,0.48,0.282,1.168-0.197,1.537
					c-0.479,0.372-1.168,0.288-1.538-0.195c-0.369-0.477-0.282-1.168,0.198-1.537C228.59,71.229,229.279,71.314,229.648,71.793z"/>
				<circle fill-rule="evenodd" clip-rule="evenodd" fill="#3C3C3B" cx="146.645" cy="135.987" r="1.096"/>
				<circle fill-rule="evenodd" clip-rule="evenodd" fill="#3C3C3B" cx="236.551" cy="86.612" r="1.097"/>
				<circle fill-rule="evenodd" clip-rule="evenodd" fill="#3C3C3B" cx="138.875" cy="121.839" r="1.097"/>
				<circle fill-rule="evenodd" clip-rule="evenodd" fill="#3C3C3B" cx="236.674" cy="121.492" r="1.096"/>
				<circle fill-rule="evenodd" clip-rule="evenodd" fill="#3C3C3B" cx="138.751" cy="86.96" r="1.096"/>
				<circle fill-rule="evenodd" clip-rule="evenodd" fill="#3C3C3B" cx="228.661" cy="136.142" r="1.097"/>
				<circle fill-rule="evenodd" clip-rule="evenodd" fill="#3C3C3B" cx="146.766" cy="72.31" r="1.096"/>
				<circle fill-rule="evenodd" clip-rule="evenodd" fill="#3C3C3B" cx="217.786" cy="146.545" r="1.095"/>
				<circle fill-rule="evenodd" clip-rule="evenodd" fill="#3C3C3B" cx="157.641" cy="61.906" r="1.095"/>
				<path fill-rule="evenodd" clip-rule="evenodd" fill="#3C3C3B" d="M205.378,154.209c-0.57,0.201-1.197-0.1-1.398-0.668
					c-0.2-0.572,0.098-1.197,0.67-1.398c0.568-0.201,1.196,0.098,1.397,0.666C206.247,153.381,205.948,154.008,205.378,154.209z"/>
				<circle fill-rule="evenodd" clip-rule="evenodd" fill="#3C3C3B" cx="170.413" cy="55.274" r="1.097"/>
			</g>
		</g>
		<polygon fill-rule="evenodd" clip-rule="evenodd" fill="#3C3C3B" points="356.587,95.965 373.314,82.574 390.04,95.965 
			390.04,150.258 356.587,150.258 356.587,162.354 		"/>
		<polygon fill-rule="evenodd" clip-rule="evenodd" fill="#3C3C3B" points="334.903,112.059 347.576,101.914 360.248,112.059 
			360.248,153.189 334.903,153.189 334.903,162.354 		"/>
		<path fill-rule="evenodd" clip-rule="evenodd" fill="#3C3C3B" d="M15.561,149.582H8.225H0.889v-27.148v-2.629v-2.137l0.366-0.307
			v-1.602l0.62-0.52v-1.967c0-0.105,0.085-0.189,0.186-0.189l0,0c0.105,0,0.188,0.084,0.188,0.189v1.961l0.621,0.525v1.602
			l0.368,0.307v0.162l3.575-3.002v-2.887l0.44-0.371v-1.922l0.728-0.611v-1.877c0-0.127,0.104-0.232,0.233-0.232l0,0h0.01l0,0h0.012
			l0,0c0.13,0,0.233,0.105,0.233,0.232v1.877l0.727,0.611v1.922l0.439,0.371v2.887l3.575,3.002v-0.162l0.368-0.307v-1.602
			l0.621-0.525v-1.961c0-0.105,0.083-0.189,0.188-0.189l0,0c0.104,0,0.187,0.084,0.187,0.189v1.967l0.62,0.52v1.602l0.366,0.307
			v2.137v2.629V149.582z"/>
	</g>
</g>
</svg>
