<?xml version="1.0" encoding="utf-8"?>
<!-- Generator: Adobe Illustrator 15.0.0, SVG Export Plug-In . SVG Version: 6.00 Build 0)  -->
<!DOCTYPE svg PUBLIC "-//W3C//DTD SVG 1.1//EN" "http://www.w3.org/Graphics/SVG/1.1/DTD/svg11.dtd">
<svg version="1.1" id="Layer_1" xmlns="http://www.w3.org/2000/svg" xmlns:xlink="http://www.w3.org/1999/xlink" x="0px" y="0px"
	 width="95px" height="84px" viewBox="0 0 95 84" enable-background="new 0 0 95 84" xml:space="preserve">
<path fill="#FCFCFC" d="M91.93,45.959c4.782-4.746,3.313-14.383-4.958-14.383l-21.783,0.02c0.833-4.604,2.037-12.254,1.985-12.963
	c-0.462-6.838-4.817-15.16-4.995-15.494c-0.798-1.49-4.817-3.496-8.854-2.621c-5.207,1.113-5.756,4.445-5.721,5.361
	c0,0,0.213,9.104,0.248,11.531c-2.496,5.469-11.104,19.889-13.707,20.984c-0.637-0.371-1.327-0.566-2.071-0.566L4.57,37.826
	c-2.337,0-4.215,1.879-4.215,4.215v38.006c0.16,2.055,1.914,3.648,3.969,3.648h24.703c2.178,0,3.967-1.771,3.967-3.967v-1.258
	c0,0,0.92-0.07,1.328,0.195c1.594,1.01,3.56,2.283,6.109,2.283h36.871c13.777,0,12.308-12.236,11.051-13.9
	c2.318-2.533,3.754-7.014,1.789-10.537C91.664,54.902,94.321,50.508,91.93,45.959L91.93,45.959z M28.177,79.729H4.305V41.795
	l23.872,0.002V79.729z M85.501,45.639l-0.212,0.938c6.34,1.809,2.957,9.121-1.594,9.6l-0.23,0.939
	c6.092,1.541,3.188,9.084-1.576,9.598l-0.229,0.939c4.976,0.814,3.771,9.297-3.756,9.297l-37.507,0.018
	c-2.639,0-5.047-3.029-6.996-3.029h-1.699V44.754c2.107-1.33,4.71-3.029,6.163-4.25c2.728-2.34,13.919-20.42,13.919-22.688
	c0-2.266-0.23-12.057-0.23-12.057s2.179-2.834,7.084-0.764c0,0,4.126,7.738,4.551,13.9c0,0-1.859,12.68-2.852,16.664h25.98
	C92.709,35.58,91.486,44.699,85.501,45.639L85.501,45.639z M85.501,45.639"/>
</svg>
