<?xml version="1.0" encoding="utf-8"?>
<!-- Generator: Adobe Illustrator 15.0.0, SVG Export Plug-In . SVG Version: 6.00 Build 0)  -->
<!DOCTYPE svg PUBLIC "-//W3C//DTD SVG 1.1//EN" "http://www.w3.org/Graphics/SVG/1.1/DTD/svg11.dtd">
<svg version="1.1" id="Layer_1" xmlns="http://www.w3.org/2000/svg" xmlns:xlink="http://www.w3.org/1999/xlink" x="0px" y="0px"
	 width="19px" height="20px" viewBox="0 0 19 20" enable-background="new 0 0 19 20" xml:space="preserve">
<path fill="#FFFDFD" d="M5.545,16.108c0,1.356-1.102,2.456-2.464,2.456c-1.353,0-2.453-1.1-2.453-2.456c0-1.352,1.1-2.46,2.453-2.46
	C4.444,13.648,5.545,14.757,5.545,16.108z M0.027,6.518V9.74c1.238,0.043,4.825,1.627,6.452,3.257
	c1.625,1.632,2.922,3.043,2.965,6.769h3.231C12.592,12.314,6.235,6.602,0.027,6.518z M0.027,0.222v3.216
	c8.688,0.092,15.627,7.638,15.717,16.328h3.229C18.88,8.588,11.199,0.305,0.027,0.222z"/>
</svg>
