<?xml version="1.0" encoding="utf-8"?>
<!-- Generator: Adobe Illustrator 15.0.0, SVG Export Plug-In . SVG Version: 6.00 Build 0)  -->
<!DOCTYPE svg PUBLIC "-//W3C//DTD SVG 1.1//EN" "http://www.w3.org/Graphics/SVG/1.1/DTD/svg11.dtd">
<svg version="1.1" id="Layer_1" xmlns="http://www.w3.org/2000/svg" xmlns:xlink="http://www.w3.org/1999/xlink" x="0px" y="0px"
	 width="20px" height="20px" viewBox="0 0 20 20" enable-background="new 0 0 20 20" xml:space="preserve">
<g>
	<g>
		<path fill="#FFFDFD" d="M9.437,1.096C9.6,1.197,9.785,1.34,9.982,1.533c0.198,0.199,0.388,0.451,0.575,0.742
			c0.175,0.279,0.335,0.607,0.476,0.985c0.113,0.379,0.17,0.816,0.17,1.322c-0.016,0.925-0.219,1.666-0.616,2.222
			c-0.189,0.27-0.396,0.515-0.613,0.744C9.738,7.773,9.484,8.004,9.213,8.24C9.062,8.4,8.92,8.58,8.786,8.781
			c-0.149,0.211-0.229,0.456-0.229,0.73c0,0.272,0.08,0.492,0.241,0.669c0.131,0.166,0.261,0.317,0.388,0.442l0.877,0.719
			c0.542,0.444,1.019,0.938,1.433,1.474c0.385,0.546,0.586,1.263,0.6,2.14c0,1.257-0.551,2.363-1.655,3.329
			c-1.146,1.001-2.801,1.519-4.961,1.551c-1.812-0.021-3.16-0.399-4.056-1.151c-0.9-0.715-1.349-1.549-1.349-2.531
			c0-0.48,0.147-1.011,0.442-1.603c0.284-0.585,0.797-1.098,1.541-1.546c0.84-0.476,1.715-0.798,2.638-0.955
			c0.909-0.134,1.668-0.211,2.271-0.23c-0.186-0.241-0.353-0.504-0.5-0.783c-0.165-0.271-0.255-0.594-0.255-0.972
			c0-0.227,0.032-0.418,0.102-0.577c0.056-0.158,0.104-0.303,0.153-0.439C6.172,9.079,5.898,9.094,5.638,9.094
			C4.262,9.079,3.214,8.65,2.494,7.8C1.738,7.006,1.362,6.094,1.362,5.041c0-1.27,0.535-2.422,1.605-3.457
			C3.697,0.982,4.465,0.587,5.253,0.4c0.788-0.157,1.522-0.234,2.204-0.234h5.17l-1.596,0.93H9.437z M10.432,15.969
			c0-0.657-0.21-1.23-0.639-1.713c-0.454-0.469-1.156-1.035-2.125-1.701c-0.162-0.018-0.358-0.026-0.578-0.026
			c-0.132-0.019-0.467,0-1.013,0.049c-0.534,0.077-1.08,0.195-1.64,0.364c-0.134,0.051-0.315,0.125-0.553,0.228
			c-0.238,0.106-0.485,0.263-0.732,0.472c-0.238,0.207-0.439,0.465-0.603,0.777c-0.188,0.327-0.281,0.724-0.281,1.186
			c0,0.91,0.411,1.652,1.231,2.243c0.78,0.585,1.853,0.891,3.209,0.909c1.218-0.019,2.148-0.285,2.789-0.81
			C10.122,17.434,10.432,16.777,10.432,15.969z M6.834,8.395C7.511,8.369,8.079,8.127,8.533,7.66
			c0.22-0.331,0.359-0.662,0.419-1.007c0.041-0.347,0.059-0.637,0.059-0.874c0-1.021-0.258-2.049-0.779-3.082
			c-0.244-0.5-0.57-0.9-0.969-1.209C6.859,1.191,6.388,1.039,5.861,1.021C5.161,1.039,4.58,1.318,4.115,1.86
			C3.722,2.436,3.534,3.073,3.552,3.782c0,0.935,0.273,1.909,0.823,2.918c0.263,0.476,0.603,0.871,1.022,1.204
			C5.816,8.229,6.296,8.395,6.834,8.395z"/>
	</g>
	<polygon id="PLUS_1_" fill="#FFFDFD" points="19.626,2.984 16.915,2.984 16.915,0.273 15.602,0.273 15.602,2.984 12.891,2.984 
		12.891,4.299 15.602,4.299 15.602,7.006 16.915,7.006 16.915,4.299 19.626,4.299 	"/>
</g>
</svg>
