<?xml version="1.0" encoding="utf-8"?>
<!-- Generator: Adobe Illustrator 15.0.0, SVG Export Plug-In . SVG Version: 6.00 Build 0)  -->
<!DOCTYPE svg PUBLIC "-//W3C//DTD SVG 1.1//EN" "http://www.w3.org/Graphics/SVG/1.1/DTD/svg11.dtd">
<svg version="1.1" id="Layer_1" xmlns="http://www.w3.org/2000/svg" xmlns:xlink="http://www.w3.org/1999/xlink" x="0px" y="0px"
	 width="35.11px" height="36px" viewBox="0 0 35.11 36" enable-background="new 0 0 35.11 36" xml:space="preserve">
<g>
	<path fill-rule="evenodd" clip-rule="evenodd" fill="#FFFFFF" d="M34.943,15.621c-0.18-1.462-0.556-2.87-1.111-4.235
		c-0.658-1.615-1.523-3.118-2.627-4.462C29.931,5.367,28.432,4.048,26.701,3c-1.624-0.982-3.35-1.731-5.206-2.108
		c-1.082-0.218-2.196-0.272-3.297-0.401c-0.158-0.021-0.315-0.059-0.472-0.087c-0.171,0-0.342,0-0.514,0
		c-0.115,0.028-0.229,0.082-0.345,0.082c-2.087,0-4.079,0.477-5.999,1.259C8.867,2.559,7.088,3.722,5.5,5.204
		c-2.35,2.202-3.952,4.848-4.858,7.913c-0.287,0.969-0.377,1.997-0.56,2.998C0.073,16.163,0.028,16.203,0,16.246
		c0,1.199,0,2.399,0,3.597c0.085,0.459,0.183,0.916,0.254,1.378c0.204,1.317,0.607,2.574,1.129,3.795
		c0.552,1.291,1.267,2.487,2.114,3.609c0.744,0.982,1.588,1.863,2.513,2.682c1.252,1.105,2.643,1.973,4.146,2.686
		c1.406,0.669,2.88,1.116,4.42,1.354c0.254,0.038,0.811,0.168,0.839,0.168c0,0,3.267,0.187,4.283,0c0.028,0,0.056,0,0.084,0
		c0.553-0.113,1.107-0.216,1.656-0.342c2.684-0.612,5.086-1.785,7.231-3.521c2.08-1.686,3.671-3.744,4.8-6.15
		c0.754-1.608,1.299-3.292,1.475-5.076c0.033-0.339,0.111-0.673,0.167-1.009c0-0.944,0-1.886,0-2.827
		C35.053,16.265,34.981,15.944,34.943,15.621z M22.081,19.116h-2.746V28.9h-4.038v-9.784h-1.983V15.72h1.983V13.7
		c0-2.088,0.71-3.418,2.128-3.991c0.588-0.233,1.227-0.351,1.91-0.351h3.072v3.374h-1.839c-0.531,0-0.887,0.149-1.064,0.448
		c-0.112,0.177-0.169,0.512-0.169,1.003v1.536h3.12L22.081,19.116z"/>
</g>
</svg>
