<?xml version="1.0" encoding="utf-8"?>
<!-- Generator: Adobe Illustrator 15.0.0, SVG Export Plug-In . SVG Version: 6.00 Build 0)  -->
<!DOCTYPE svg PUBLIC "-//W3C//DTD SVG 1.1//EN" "http://www.w3.org/Graphics/SVG/1.1/DTD/svg11.dtd">
<svg version="1.1" id="Layer_1" xmlns="http://www.w3.org/2000/svg" xmlns:xlink="http://www.w3.org/1999/xlink" x="0px" y="0px"
	 width="26px" height="18px" viewBox="0 0 26 18" enable-background="new 0 0 26 18" xml:space="preserve">
<path fill-rule="evenodd" clip-rule="evenodd" fill="#FFFDFD" d="M12.677,6.454c0.818-2.56,1.819-4.217,2.972-5.422
	c0.862-0.893,1.308-1.181,0.798-0.189c0.225-0.178,0.547-0.422,0.796-0.542c1.39-0.66,1.294-0.11,0.333,0.482
	c2.623-0.938,2.533,0.252-0.242,0.849c2.271,0.04,4.679,1.488,5.373,4.553c0.098,0.43-0.021,0.387,0.414,0.469
	c0.943,0.16,1.825,0.149,2.688-0.123c-0.092,0.639-0.93,1.053-2.24,1.322c-0.482,0.107-0.588,0.072-0.005,0.207
	C24.28,8.22,25.082,8.26,25.928,8.22c-0.659,0.761-1.709,1.149-3.01,1.163c-0.813,2.972-2.674,5.095-5.024,6.433
	c-5.516,3.131-13.554,2.676-17.587-3.018c2.646,2.078,6.565,2.533,9.472-0.357c-1.907,0-2.398-1.428-0.889-2.199
	c-1.428-0.016-2.337-0.467-2.877-1.288C5.813,8.643,5.811,8.618,6.139,8.375C6.504,8.116,6.999,8,7.513,7.963
	c-1.482-0.427-2.389-1.202-2.7-2.235C4.711,5.385,4.693,5.397,5.04,5.309c0.342-0.087,0.784-0.132,1.178-0.152
	C5.051,4.452,4.357,3.588,4.183,2.63C4.015,1.726,4.185,1.959,4.861,2.221C7.883,3.373,10.891,4.618,12.677,6.454z"/>
</svg>
