<?xml version="1.0" encoding="utf-8"?>
<!-- Generator: Adobe Illustrator 15.0.0, SVG Export Plug-In . SVG Version: 6.00 Build 0)  -->
<!DOCTYPE svg PUBLIC "-//W3C//DTD SVG 1.1//EN" "http://www.w3.org/Graphics/SVG/1.1/DTD/svg11.dtd">
<svg version="1.1" id="Layer_1" xmlns="http://www.w3.org/2000/svg" xmlns:xlink="http://www.w3.org/1999/xlink" x="0px" y="0px"
	 width="82px" height="74.1px" viewBox="0 0 82 74.1" enable-background="new 0 0 82 74.1" xml:space="preserve">
<path fill="#FCFCFC" d="M71.98,0.491H11.489L0.193,16.198v10.69c0,3.642,2,6.907,5,9.087v37.514l17.583,0.002l-0.083-24.221
	l13.667-0.164l-0.166,24.383l42,0.002V35.976c2-2.179,4-5.446,4-9.087V16.219L71.98,0.491z M43.4,4.108H53.52l5.104,13.062v9.493
	c0,1.093,0.188,2.13-0.317,3.048c-1.243,2.27-3.59,3.832-6.57,3.832c-2.979,0-5.933-1.563-7.175-3.832
	c-0.504-0.918-1.16-1.955-1.16-3.048V4.108z M23.626,17.17l5.825-13.062h9.074v22.555c0,1.093-0.342,2.13-0.835,3.046
	c-1.215,2.271-3.775,3.834-6.692,3.834c-2.916,0-5.414-1.563-6.63-3.834c-0.494-0.918-0.742-1.953-0.742-3.048V17.17z M4.626,26.661
	V16.86L13.58,4.108h10.074l-5.028,11.959v10.594c0,1.095-0.313,2.13-0.777,3.048c-1.142,2.271-3.544,3.834-6.283,3.834
	c-0.82,0-1.584-0.138-2.314-0.396C6.545,32.196,4.626,29.651,4.626,26.661z M72.193,68.563h-31v-23.65h-23l0.02,24.271l-8.021-0.058
	l-0.133-30.492c1,0.135,0,0,0.784,0c3.941,0,7.649-1.769,9.993-4.544c2.345,2.775,5.963,4.544,9.904,4.544
	c3.942,0,7.516-1.769,9.861-4.544c2.345,2.775,5.898,4.544,9.84,4.544s7.484-1.769,9.828-4.544c2.344,2.775,5.778,4.544,9.723,4.544
	c0.782,0,1.201-0.071,2.201-0.204V68.563z M77.626,26.663c0,2.988-2.018,5.533-4.721,6.484c-0.731,0.258-1.557,0.396-2.376,0.396
	c-2.74,0-5.076-1.563-6.219-3.832c-0.463-0.918-0.685-1.955-0.685-3.048V16.069L58.377,4.108h11.006l8.243,12.732V26.663z"/>
</svg>
