<?xml version="1.0" encoding="utf-8"?>
<!-- Generator: Adobe Illustrator 15.0.0, SVG Export Plug-In . SVG Version: 6.00 Build 0)  -->
<!DOCTYPE svg PUBLIC "-//W3C//DTD SVG 1.1//EN" "http://www.w3.org/Graphics/SVG/1.1/DTD/svg11.dtd">
<svg version="1.1" id="Layer_1" xmlns="http://www.w3.org/2000/svg" xmlns:xlink="http://www.w3.org/1999/xlink" x="0px" y="0px"
	 width="143px" height="116px" viewBox="0 0 143 116" enable-background="new 0 0 143 116" xml:space="preserve">
<g>
	<g>
		<path fill="none" stroke="#FCFCFC" stroke-width="3.881" stroke-miterlimit="10" d="M136.304,0.592h-56.78
			c-3.641,0-6.603,2.961-6.603,6.602v29.299c0,3.641,2.963,6.6,6.603,6.6h4.986v11.633c0,0.803,0.47,1.531,1.2,1.867
			c0.273,0.125,0.565,0.188,0.854,0.188c0.485,0,0.964-0.172,1.346-0.502l15.259-13.186h33.136c3.641,0,6.601-2.959,6.601-6.602
			V7.195C142.906,3.553,139.944,0.592,136.304,0.592L136.304,0.592z"/>
		<g>
			<path fill="none" stroke="#FCFCFC" stroke-width="2" stroke-miterlimit="10" d="M95.885,20.617l-3.031,2.957l0.716,4.174
				c0.051,0.299-0.072,0.605-0.32,0.785c-0.14,0.1-0.305,0.15-0.472,0.15c-0.125,0-0.255-0.029-0.372-0.09l-3.749-1.971
				l-3.747,1.971c-0.271,0.143-0.599,0.117-0.845-0.061c-0.249-0.18-0.372-0.486-0.318-0.785l0.714-4.174l-3.032-2.957
				c-0.218-0.213-0.297-0.533-0.202-0.822c0.094-0.291,0.345-0.502,0.647-0.545l4.19-0.609l1.874-3.797
				c0.135-0.273,0.415-0.449,0.719-0.449c0.307,0,0.585,0.176,0.72,0.449l1.875,3.797l4.188,0.609
				c0.304,0.043,0.555,0.254,0.648,0.545C96.183,20.086,96.104,20.406,95.885,20.617L95.885,20.617z"/>
			<path fill="none" stroke="#FCFCFC" stroke-width="2" stroke-miterlimit="10" d="M115.143,20.617l-3.032,2.957l0.716,4.174
				c0.052,0.301-0.072,0.605-0.32,0.785c-0.139,0.1-0.304,0.152-0.471,0.152c-0.128,0-0.255-0.031-0.374-0.092l-3.747-1.971
				l-3.749,1.971c-0.27,0.143-0.598,0.117-0.844-0.061c-0.249-0.18-0.372-0.484-0.32-0.785l0.716-4.174l-3.031-2.957
				c-0.219-0.211-0.298-0.531-0.203-0.822c0.094-0.291,0.345-0.502,0.648-0.545l4.189-0.609l1.874-3.797
				c0.135-0.273,0.415-0.447,0.72-0.447c0.306,0,0.584,0.174,0.719,0.447l1.874,3.797l4.19,0.609
				c0.303,0.043,0.555,0.254,0.648,0.545S115.36,20.406,115.143,20.617L115.143,20.617z"/>
			<path fill="none" stroke="#FCFCFC" stroke-width="2" stroke-miterlimit="10" d="M134.399,20.617l-3.033,2.957l0.716,4.174
				c0.053,0.301-0.07,0.605-0.318,0.785c-0.139,0.1-0.305,0.152-0.472,0.152c-0.128,0-0.257-0.031-0.374-0.092l-3.748-1.971
				l-3.748,1.971c-0.271,0.143-0.599,0.117-0.845-0.061c-0.247-0.18-0.371-0.484-0.319-0.785l0.717-4.174l-3.034-2.957
				c-0.217-0.211-0.296-0.531-0.203-0.822c0.095-0.291,0.347-0.502,0.648-0.545l4.191-0.609l1.874-3.797
				c0.134-0.273,0.413-0.447,0.719-0.447s0.585,0.174,0.72,0.447l1.874,3.797l4.191,0.609c0.301,0.043,0.552,0.254,0.647,0.545
				C134.697,20.086,134.617,20.406,134.399,20.617L134.399,20.617z"/>
		</g>
	</g>
	<path fill="none" stroke="#FCFCFC" stroke-width="3.881" stroke-miterlimit="10" d="M46.266,20.816
		c-13.886,0-21.571,7.197-21.431,21.063c0.202,18.99,8.272,30.512,21.431,30.311c0,0,21.422,0.869,21.422-30.311
		C67.688,28.014,60.45,20.816,46.266,20.816L46.266,20.816z M46.266,20.816"/>
	<path fill="none" stroke="#FCFCFC" stroke-width="3.881" stroke-miterlimit="10" d="M84.157,86.604L62.753,78.07l-5.014-4.225
		c-1.322-1.117-3.279-1.035-4.507,0.184l-6.968,6.932l-6.989-6.932c-1.229-1.219-3.182-1.299-4.503-0.184l-5.015,4.225L8.354,86.604
		C1.461,89.35,1.468,113.76,0.875,116h90.771C91.055,113.764,91.053,89.346,84.157,86.604L84.157,86.604z M84.157,86.604"/>
</g>
</svg>
