<?xml version="1.0" encoding="utf-8"?>
<!-- Generator: Adobe Illustrator 15.0.0, SVG Export Plug-In . SVG Version: 6.00 Build 0)  -->
<!DOCTYPE svg PUBLIC "-//W3C//DTD SVG 1.1//EN" "http://www.w3.org/Graphics/SVG/1.1/DTD/svg11.dtd">
<svg version="1.1" id="Layer_1" xmlns="http://www.w3.org/2000/svg" xmlns:xlink="http://www.w3.org/1999/xlink" x="0px" y="0px"
	 width="35.11px" height="36px" viewBox="0 0 35.11 36" enable-background="new 0 0 35.11 36" xml:space="preserve">
<path fill-rule="evenodd" clip-rule="evenodd" fill="#FFFFFF" d="M34.906,15.77c-0.177-1.463-0.555-2.87-1.11-4.234
	c-0.656-1.618-1.523-3.119-2.625-4.462c-1.274-1.558-2.773-2.877-4.504-3.926c-1.626-0.982-3.352-1.729-5.208-2.108
	c-1.081-0.217-2.196-0.271-3.295-0.401c-0.16-0.02-0.315-0.057-0.474-0.086c-0.171,0-0.342,0-0.514,0
	c-0.113,0.029-0.229,0.083-0.343,0.083c-2.09,0-4.081,0.477-6,1.256C8.83,2.707,7.051,3.869,5.464,5.354
	C3.115,7.556,1.513,10.2,0.606,13.264c-0.287,0.971-0.378,1.999-0.561,3c-0.009,0.048-0.053,0.088-0.08,0.132
	c0,1.198,0,2.398,0,3.596c0.085,0.46,0.183,0.916,0.254,1.378c0.202,1.316,0.607,2.574,1.128,3.795
	c0.55,1.292,1.266,2.487,2.113,3.609c0.744,0.981,1.586,1.863,2.513,2.681c1.252,1.105,2.645,1.975,4.146,2.687
	c1.408,0.669,2.881,1.117,4.42,1.354c0.254,0.04,0.813,0.168,0.841,0.168c0,0,3.265,0.188,4.281,0c0.027,0,0.056,0,0.085,0
	c0.552-0.113,1.107-0.216,1.656-0.342c2.685-0.611,5.087-1.784,7.231-3.521c2.081-1.686,3.672-3.743,4.8-6.149
	c0.752-1.607,1.299-3.292,1.475-5.076c0.033-0.34,0.11-0.673,0.166-1.01c0-0.943,0-1.885,0-2.826
	C35.019,16.415,34.945,16.094,34.906,15.77z M28.04,10.537L17.563,17.38l-10.42-6.843H28.04z M28.669,25.69H6.385V11.172
	l11.186,7.276l11.099-7.131V25.69z"/>
</svg>
