<?xml version="1.0" encoding="utf-8"?>
<!-- Generator: Adobe Illustrator 15.0.0, SVG Export Plug-In . SVG Version: 6.00 Build 0)  -->
<!DOCTYPE svg PUBLIC "-//W3C//DTD SVG 1.1//EN" "http://www.w3.org/Graphics/SVG/1.1/DTD/svg11.dtd">
<svg version="1.1" id="Layer_1" xmlns="http://www.w3.org/2000/svg" xmlns:xlink="http://www.w3.org/1999/xlink" x="0px" y="0px"
	 width="35.11px" height="36px" viewBox="0 0 35.11 36" enable-background="new 0 0 35.11 36" xml:space="preserve">
<g>
	<path fill-rule="evenodd" clip-rule="evenodd" fill="#FCAE00" d="M34.498,15.529c-0.504-3.558-2.033-6.651-4.473-9.281
		c-2.217-2.396-4.932-4.036-8.084-4.872c-1.039-0.274-2.137-0.357-3.201-0.537c-0.111-0.019-0.234-0.042-0.346-0.042
		c-0.664,0-1.332,0-2,0c-0.473,0.339-0.945,0.092-1.418,0.16c-3.559,0.504-6.652,1.976-9.283,4.416
		c-2.393,2.219-4.035,4.902-4.869,8.057c-0.273,1.038-0.295,2.123-0.477,3.185c-0.02,0.112,0.018,0.222,0.018,0.332
		c0,0.667,0,1.335,0,2.001c0,0.473,0.031,0.945,0.1,1.417c0.502,3.559,1.945,6.651,4.387,9.284c2.217,2.395,4.889,4.035,8.041,4.869
		c1.039,0.276,2.115,0.41,3.18,0.59c0.111,0.019,0.213,0.095,0.322,0.095c0.668,0,1.336,0,2,0c0.475,0,0.947-0.145,1.418-0.211
		c3.559-0.505,6.652-2.004,9.283-4.444c2.395-2.218,4.037-4.917,4.871-8.069c0.273-1.038,0.469-2.128,0.648-3.192
		c0.02-0.111,0.154-0.227,0.154-0.338c0-0.666,0-1.334,0-2.001C34.432,16.475,34.564,16.001,34.498,15.529z M12.006,7.356
		c0.541-0.332,1.092-0.651,1.65-0.95c0.396-0.213,0.791-0.054,1.045,0.383c0.895,1.552,1.789,3.102,2.684,4.653
		c0.105,0.181,0.217,0.355,0.314,0.541c0.193,0.378,0.104,0.789-0.258,1.01c-0.535,0.324-1.08,0.631-1.625,0.935
		c-0.104,0.058-0.232,0.072-0.352,0.105c-0.35-0.021-0.559-0.214-0.719-0.497c-0.912-1.587-1.828-3.175-2.744-4.762
		c-0.084-0.145-0.174-0.283-0.248-0.434C11.564,7.972,11.654,7.573,12.006,7.356z M18.332,29.071
		c-1.373-0.846-2.523-1.943-3.564-3.157c-2.051-2.395-3.652-5.065-4.832-7.981c-0.75-1.852-1.299-3.756-1.344-5.776
		c-0.029-1.314,0.49-2.341,1.582-3.072c0.328-0.222,0.666-0.426,1.039-0.663c1.096,1.9,2.174,3.765,3.262,5.651
		c-0.988,0.67-1.105,1.666-1.006,2.719c0.043,0.451,0.154,0.904,0.289,1.339c0.527,1.707,1.418,3.189,2.781,4.364
		c0.229,0.196,0.482,0.365,0.746,0.51c0.764,0.415,1.551,0.54,2.395,0.081c1.088,1.885,2.166,3.756,3.244,5.618
		C21.609,29.825,19.783,29.962,18.332,29.071z M25.451,27.765c-0.381,0.217-0.758,0.44-1.137,0.657
		c-0.469,0.263-0.877,0.161-1.143-0.299c-0.998-1.721-1.994-3.443-2.984-5.168c-0.25-0.435-0.146-0.842,0.275-1.098
		c0.508-0.306,1.023-0.602,1.543-0.892c0.113-0.064,0.248-0.088,0.293-0.101c0.449-0.002,0.656,0.213,0.82,0.5
		c0.918,1.598,1.842,3.194,2.762,4.79C26.387,27.035,26.322,27.265,25.451,27.765z"/>
</g>
</svg>
