<?xml version="1.0" encoding="utf-8"?>
<!-- Generator: Adobe Illustrator 15.0.0, SVG Export Plug-In . SVG Version: 6.00 Build 0)  -->
<!DOCTYPE svg PUBLIC "-//W3C//DTD SVG 1.1//EN" "http://www.w3.org/Graphics/SVG/1.1/DTD/svg11.dtd">
<svg version="1.1" id="Layer_1" xmlns="http://www.w3.org/2000/svg" xmlns:xlink="http://www.w3.org/1999/xlink" x="0px" y="0px"
	 width="36px" height="36px" viewBox="0 0 36 36" enable-background="new 0 0 36 36" xml:space="preserve">
<g>
	<path fill="#FFFFFF" d="M28.718,12.329c0.016-0.041,0.035-0.08,0.053-0.12c0.211-0.484,0.076-1.019-0.336-1.33
		c-0.371-0.281-0.848-0.311-1.266-0.072l-0.102,0.06c-0.521,0.293-1.035,0.507-1.57,0.654c-1.182-0.95-2.561-1.324-4.074-1.105
		c-2.369,0.344-4.223,2.381-4.342,4.758c-2.473-0.451-4.561-1.658-6.201-3.591c-0.35-0.411-0.711-0.498-0.955-0.498
		c-0.424,0-0.795,0.257-1.025,0.704c-0.762,1.486-0.834,2.974-0.219,4.431c-0.037,0.027-0.07,0.058-0.102,0.09
		c-0.219,0.221-0.338,0.535-0.336,0.885c0.002,0.118,0.012,0.234,0.023,0.352l0.004,0.063c0.109,1.224,0.604,2.288,1.471,3.175
		c-0.098,0.25-0.096,0.544,0.016,0.865c0.379,1.086,1.035,1.946,1.955,2.556c0.023,0.016,0.049,0.031,0.072,0.048
		c-0.982,0.331-2.002,0.437-3.08,0.316c-0.523-0.057-0.992,0.235-1.174,0.707c-0.184,0.466-0.033,0.987,0.369,1.296
		c0.064,0.048,0.135,0.092,0.219,0.145c2.061,1.263,4.301,1.901,6.656,1.901l0,0c0.725,0,1.475-0.061,2.225-0.181
		c2.488-0.397,4.637-1.458,6.383-3.152c2.607-2.529,3.959-5.65,4.02-9.285c0.686-0.556,1.287-1.218,1.791-1.969
		c0.303-0.451,0.291-0.977-0.027-1.367C29.04,12.511,28.888,12.396,28.718,12.329z M28.614,13.638
		c-0.486,0.722-1.066,1.357-1.752,1.895c-0.117,0.094-0.154,0.188-0.154,0.333c-0.029,3.503-1.305,6.482-3.814,8.916
		c-1.678,1.63-3.707,2.602-6.016,2.971c-3.002,0.479-5.816-0.038-8.418-1.631c-0.053-0.034-0.107-0.065-0.158-0.105
		c-0.166-0.125-0.223-0.321-0.152-0.505c0.074-0.189,0.26-0.301,0.469-0.277c1.494,0.166,2.922-0.066,4.281-0.72
		c0.148-0.071,0.293-0.153,0.42-0.219c-0.42-0.224-0.855-0.413-1.246-0.671c-0.811-0.54-1.365-1.29-1.686-2.212
		c-0.119-0.342-0.037-0.526,0.316-0.676c-0.07-0.059-0.135-0.112-0.199-0.168c-0.918-0.807-1.459-1.808-1.568-3.032
		c-0.012-0.12-0.023-0.24-0.025-0.361c-0.004-0.428,0.314-0.628,0.695-0.439c0.029,0.014,0.059,0.028,0.133,0.063
		c-0.051-0.086-0.08-0.138-0.109-0.19c-0.869-1.481-0.92-2.991-0.137-4.521c0.217-0.422,0.545-0.438,0.854-0.078
		c1.783,2.102,4.031,3.39,6.75,3.849c0.207,0.036,0.418,0.056,0.646,0.085c0-0.244-0.004-0.462,0.002-0.679
		c0.068-2.064,1.709-3.889,3.76-4.187c1.402-0.203,2.633,0.164,3.701,1.086c0.088,0.076,0.166,0.077,0.268,0.054
		c0.676-0.168,1.311-0.429,1.914-0.769c0.037-0.021,0.07-0.04,0.105-0.062c0.178-0.101,0.352-0.103,0.518,0.023
		c0.148,0.114,0.211,0.311,0.123,0.514c-0.156,0.357-0.336,0.704-0.508,1.055c-0.031,0.064-0.08,0.122-0.148,0.228
		c0.227-0.091,0.406-0.16,0.584-0.233c0.236-0.097,0.422-0.062,0.561,0.107C28.749,13.24,28.749,13.434,28.614,13.638z"/>
	<path fill="#FFFFFF" d="M28.062,12.973c-0.178,0.073-0.357,0.143-0.584,0.233c0.068-0.105,0.117-0.163,0.148-0.228
		c0.172-0.351,0.352-0.697,0.508-1.055c0.088-0.203,0.025-0.399-0.123-0.514c-0.166-0.126-0.34-0.124-0.518-0.023
		c-0.035,0.021-0.068,0.041-0.105,0.062c-0.604,0.34-1.238,0.601-1.914,0.769c-0.102,0.023-0.18,0.022-0.268-0.054
		c-1.068-0.922-2.299-1.289-3.701-1.086c-2.051,0.298-3.691,2.122-3.76,4.187c-0.006,0.217-0.002,0.435-0.002,0.679
		c-0.229-0.029-0.439-0.049-0.646-0.085c-2.719-0.459-4.967-1.747-6.75-3.849c-0.309-0.36-0.637-0.344-0.854,0.078
		c-0.783,1.53-0.732,3.04,0.137,4.521c0.029,0.053,0.059,0.104,0.109,0.19c-0.074-0.035-0.104-0.05-0.133-0.063
		c-0.381-0.188-0.699,0.012-0.695,0.439c0.002,0.121,0.014,0.241,0.025,0.361c0.109,1.225,0.65,2.226,1.568,3.032
		c0.064,0.056,0.129,0.109,0.199,0.168c-0.354,0.149-0.436,0.334-0.316,0.676c0.32,0.922,0.875,1.672,1.686,2.212
		c0.391,0.258,0.826,0.447,1.246,0.671c-0.127,0.065-0.271,0.147-0.42,0.219c-1.359,0.653-2.787,0.886-4.281,0.72
		c-0.209-0.023-0.395,0.088-0.469,0.277c-0.07,0.184-0.014,0.38,0.152,0.505c0.051,0.04,0.105,0.071,0.158,0.105
		c2.602,1.593,5.416,2.11,8.418,1.631c2.309-0.369,4.338-1.341,6.016-2.971c2.51-2.434,3.785-5.413,3.814-8.916
		c0-0.145,0.037-0.239,0.154-0.333c0.686-0.537,1.266-1.173,1.752-1.895c0.135-0.204,0.135-0.397,0.008-0.558
		C28.483,12.911,28.298,12.876,28.062,12.973z M26.456,15.009c-0.273,0.214-0.414,0.504-0.416,0.862
		c-0.029,3.303-1.242,6.141-3.605,8.434c-1.543,1.495-3.443,2.434-5.652,2.785c-0.678,0.109-1.354,0.165-2.008,0.164l0,0
		c-1.814,0-3.557-0.429-5.191-1.275c1.258-0.005,2.479-0.285,3.625-0.84c0.115-0.056,0.23-0.117,0.336-0.175l1.246-0.657
		l-1.139-0.604c-0.137-0.071-0.273-0.143-0.412-0.211c-0.279-0.139-0.543-0.271-0.773-0.423c-0.629-0.418-1.09-1.003-1.373-1.739
		l0.912-0.386l-0.934-0.79c-0.035-0.028-0.07-0.058-0.104-0.086c-0.805-0.709-1.242-1.546-1.338-2.56l1.809,0.87l-1.209-2.103
		c-0.707-1.207-0.783-2.397-0.232-3.63c1.863,2.114,4.217,3.423,6.996,3.894c0.152,0.027,0.416,0.045,0.574,0.063l1.096,0.127
		v-1.012c0-0.146-0.115-0.283-0.109-0.42c0.057-1.732,1.396-3.285,3.119-3.535c1.199-0.175,2.203,0.128,3.129,0.926
		c0.246,0.212,0.533,0.281,0.859,0.199c0.523-0.127,1.037-0.314,1.553-0.561c-0.023,0.047-0.051,0.094-0.074,0.142l-0.105,0.211
		c-0.01,0.018-0.023,0.034-0.039,0.058l-1.254,1.908l1.836-0.729C27.239,14.321,26.862,14.687,26.456,15.009z"/>
	<path fill="#FFFFFF" d="M35.206,16.626c-0.484-5.974-3.98-11.229-9.303-13.977c-1.934-0.998-3.984-1.606-6.15-1.818
		c-0.303-0.028-0.607-0.047-0.91-0.07c-0.063-0.007-0.125-0.023-0.188-0.034c-0.436,0-0.875,0-1.311,0
		c-0.246,0.023-0.49,0.051-0.736,0.069C9.772,1.308,3.749,6.027,1.622,12.525c-0.492,1.508-0.785,3.05-0.863,4.632
		c-0.002,0.063-0.021,0.125-0.031,0.187c0,0.438,0,0.875,0,1.313c0.023,0.238,0.049,0.479,0.068,0.719
		c0.482,5.97,3.979,11.228,9.301,13.975c1.936,0.999,3.986,1.607,6.152,1.819c0.303,0.029,0.607,0.047,0.91,0.071
		c0.063,0.006,0.123,0.022,0.186,0.032c0.436,0,0.875,0,1.311,0c0.246-0.023,0.492-0.051,0.736-0.067
		c6.842-0.514,12.869-5.241,14.992-11.748c0.488-1.502,0.781-3.038,0.857-4.617c0.002-0.061,0.021-0.122,0.031-0.184
		c0-0.438,0-0.876,0-1.313C35.251,17.105,35.226,16.865,35.206,16.626z M29.192,14.029c-0.504,0.751-1.105,1.413-1.791,1.969
		c-0.061,3.635-1.412,6.756-4.02,9.285c-1.746,1.694-3.895,2.755-6.383,3.152c-0.75,0.12-1.5,0.181-2.225,0.181l0,0
		c-2.355,0-4.596-0.639-6.656-1.901c-0.084-0.053-0.154-0.097-0.219-0.145c-0.402-0.309-0.553-0.83-0.369-1.296
		c0.182-0.472,0.65-0.764,1.174-0.707c1.078,0.12,2.098,0.015,3.08-0.316c-0.023-0.017-0.049-0.032-0.072-0.048
		c-0.92-0.609-1.576-1.47-1.955-2.556c-0.111-0.321-0.113-0.615-0.016-0.865c-0.867-0.887-1.361-1.951-1.471-3.175l-0.004-0.063
		c-0.012-0.117-0.021-0.233-0.023-0.352c-0.002-0.35,0.117-0.664,0.336-0.885c0.031-0.032,0.064-0.063,0.102-0.09
		c-0.615-1.457-0.543-2.944,0.219-4.431c0.23-0.447,0.602-0.704,1.025-0.704c0.244,0,0.605,0.087,0.955,0.498
		c1.641,1.933,3.729,3.14,6.201,3.591c0.119-2.377,1.973-4.414,4.342-4.758c1.514-0.219,2.893,0.155,4.074,1.105
		c0.535-0.147,1.049-0.361,1.57-0.654l0.102-0.06c0.418-0.238,0.895-0.209,1.266,0.072c0.412,0.312,0.547,0.846,0.336,1.33
		c-0.018,0.04-0.037,0.079-0.053,0.12c0.17,0.067,0.322,0.182,0.447,0.333C29.483,13.053,29.495,13.578,29.192,14.029z"/>
</g>
</svg>
