<?xml version="1.0" encoding="utf-8"?>
<!-- Generator: Adobe Illustrator 15.0.0, SVG Export Plug-In . SVG Version: 6.00 Build 0)  -->
<!DOCTYPE svg PUBLIC "-//W3C//DTD SVG 1.1//EN" "http://www.w3.org/Graphics/SVG/1.1/DTD/svg11.dtd">
<svg version="1.1" id="Layer_1" xmlns="http://www.w3.org/2000/svg" xmlns:xlink="http://www.w3.org/1999/xlink" x="0px" y="0px"
	 width="142px" height="142px" viewBox="0 0 142 142" enable-background="new 0 0 142 142" xml:space="preserve">
<g>
	<circle fill-rule="evenodd" clip-rule="evenodd" fill="#FCAE00" cx="71" cy="70.857" r="70.702"/>
	<path fill="#AA7202" d="M104.15,47.996l0.453,44.053L37.02,96.155l52.168,43.038c0,0,42.689-9.747,51.449-56.04L104.15,47.996z"/>
	<g>
		<path fill="#177C6C" d="M80.016,104.432c-1.265-0.93-1.4-2.328-1.4-2.328l-0.474-3.031H63.029l-0.479,3.029
			c0,0-0.132,1.4-1.396,2.33s-2.263,1.729-1.265,1.864c0.962,0.128,10.026,0.009,10.695,0c0.671,0.009,9.734,0.128,10.692,0
			C82.275,106.16,81.277,105.361,80.016,104.432L80.016,104.432z M80.016,104.432"/>
		<path fill="#177C6C" d="M104.15,47.996h-9.111l-4.021,4.377h11.672v35.025H38.48V52.373h52.537l4.021-4.377H37.02
			c-1.611,0-2.918,1.307-2.918,2.917v42.319c0,1.614,1.307,2.923,2.918,2.923h67.131c1.609,0,2.918-1.308,2.918-2.922v-42.32
			C107.068,49.303,105.76,47.996,104.15,47.996L104.15,47.996z"/>
		<path fill="#177C6C" d="M53.134,71.385l10.295,4.787c0.267,0.124,0.55,0.186,0.842,0.186c0.382,0,0.753-0.107,1.077-0.315
			c0.578-0.368,0.924-0.999,0.924-1.685v-0.051c0-0.777-0.455-1.49-1.158-1.816l-6.438-2.992l6.438-2.99
			c0.703-0.329,1.158-1.041,1.158-1.814v-0.053c0-0.686-0.346-1.318-0.924-1.688c-0.32-0.203-0.693-0.311-1.078-0.311
			c-0.29,0-0.581,0.063-0.842,0.184l-10.294,4.787c-0.702,0.326-1.156,1.039-1.156,1.814v0.144
			C51.978,70.344,52.43,71.055,53.134,71.385L53.134,71.385z M53.134,71.385"/>
		<path fill="#177C6C" d="M66.363,81.135c0.376,0.514,0.979,0.823,1.615,0.823h0.053c0.872,0,1.638-0.56,1.904-1.392l6.781-21.012
			c0.194-0.606,0.086-1.275-0.289-1.791c-0.376-0.515-0.979-0.819-1.616-0.819H74.76c-0.873,0-1.64,0.56-1.905,1.39l-6.781,21.012
			C65.879,79.954,65.988,80.62,66.363,81.135L66.363,81.135z M66.363,81.135"/>
		<path fill="#177C6C" d="M76.52,64.693c0,0.773,0.453,1.485,1.157,1.814l6.438,2.992l-6.438,2.99
			c-0.703,0.326-1.157,1.039-1.157,1.816v0.051c0,0.686,0.346,1.316,0.924,1.688c0.322,0.205,0.695,0.313,1.076,0.313
			c0.293,0,0.576-0.062,0.844-0.186l10.294-4.787c0.703-0.328,1.157-1.041,1.157-1.813v-0.144c0-0.775-0.454-1.487-1.158-1.814
			l-10.293-4.785c-0.26-0.123-0.551-0.184-0.842-0.184c-0.383,0-0.758,0.105-1.076,0.309c-0.58,0.371-0.926,1.002-0.926,1.688
			V64.693z M76.52,64.693"/>
	</g>
</g>
</svg>
