<?xml version="1.0" encoding="utf-8"?>
<!-- Generator: Adobe Illustrator 15.0.0, SVG Export Plug-In . SVG Version: 6.00 Build 0)  -->
<!DOCTYPE svg PUBLIC "-//W3C//DTD SVG 1.1//EN" "http://www.w3.org/Graphics/SVG/1.1/DTD/svg11.dtd">
<svg version="1.1" id="Layer_1" xmlns="http://www.w3.org/2000/svg" xmlns:xlink="http://www.w3.org/1999/xlink" x="0px" y="0px"
	 width="139.834px" height="45.5px" viewBox="0 0 139.834 45.5" enable-background="new 0 0 139.834 45.5" xml:space="preserve">
<g>
	<g>
		<path fill="#3B5998" d="M5.317,38.75V25.032H2.537v-7.765h2.781v-1.331c0-4.466,2.133-6.265,3.922-6.987
			c1.006-0.4,2.093-0.601,3.24-0.601h5.807v7.731h-4.078c-0.085,0-0.152,0.004-0.205,0.01c-0.013,0.111-0.025,0.279-0.025,0.524
			v0.653h4.549l-0.856,7.765H13.98V38.75H5.317z"/>
		<path fill="#FFFFFF" d="M16.787,9.849v4.731h-2.578c-0.746,0-1.243,0.209-1.491,0.627c-0.159,0.249-0.238,0.718-0.238,1.407v2.153
			h4.375l-0.525,4.765h-3.85V37.25H6.817V23.532H4.037v-4.765h2.781v-2.831c0-2.928,0.995-4.793,2.984-5.596
			c0.825-0.328,1.719-0.492,2.679-0.492H16.787 M19.787,6.849h-3H12.48c-1.337,0-2.611,0.237-3.787,0.705
			c-1.811,0.731-4.814,2.759-4.875,8.214H1.037v3v4.765v3h2.781V37.25v3h3h5.663h3v-3V26.532h0.85h2.688l0.294-2.671l0.525-4.765
			l0.367-3.329h-0.417V14.58V9.849V6.849L19.787,6.849z"/>
	</g>
	<g>
		<path fill="#3B5998" d="M23.552,38.953c-2.16,0-3.979-0.883-5.259-2.555l-0.068-0.096c-0.825-1.27-1.243-2.702-1.243-4.258v-0.137
			c0-3.488,1.679-5.063,3.128-5.773c0.688-0.421,1.955-0.831,5.629-0.831h1.135c-0.01-0.077-0.02-0.139-0.029-0.189
			c-0.159-0.047-0.502-0.117-1.139-0.117h-7.011l0.832-7.73h7.078c4.26,0,6.996,1.199,8.133,3.563
			c0.613,1.268,0.912,2.912,0.912,5.025V38.75h-7.345l-0.17-0.563c-1.376,0.51-2.747,0.767-4.091,0.767H23.552z"/>
		<path fill="#FFFFFF" d="M26.604,18.768c3.651,0,5.912,0.904,6.782,2.713c0.509,1.052,0.764,2.51,0.764,4.375V37.25h-4.73
			l-0.051-0.17c-0.022-0.078-0.04-0.135-0.051-0.17c-0.045-0.111-0.084-0.242-0.118-0.389l-0.051-0.424
			c-1.741,0.904-3.442,1.355-5.104,1.355h-0.492c-1.707,0-3.063-0.654-4.069-1.967c-0.667-1.027-1.001-2.176-1.001-3.441v-0.137
			c0-2.238,0.787-3.725,2.357-4.459c0.645-0.43,2.278-0.645,4.9-0.645h2.679v-0.627c0-1.289-0.187-2.029-0.56-2.221
			c-0.407-0.305-1.125-0.458-2.153-0.458h-5.341l0.509-4.73H26.604 M25.773,33.435c0.621,0,1.503-0.256,2.645-0.764v-2.086h-1.916
			c-1.108,0-1.78,0.113-2.018,0.34c-0.182,0.191-0.271,0.52-0.271,0.982C24.213,32.925,24.733,33.435,25.773,33.435 M26.604,15.768
			h-5.731h-2.695l-0.288,2.679l-0.509,4.73l-0.357,3.321h0.221c-0.968,1.141-1.764,2.856-1.764,5.41v0.137
			c0,1.85,0.5,3.558,1.485,5.075l0.063,0.098l0.071,0.094c1.576,2.055,3.806,3.142,6.45,3.142h0.492c1.023,0,2.056-0.13,3.091-0.389
			l0.056,0.186h2.229h4.73h3v-3V25.855c0-2.344-0.348-4.202-1.063-5.681C34.681,17.252,31.489,15.768,26.604,15.768L26.604,15.768z"
			/>
	</g>
	<g>
		<path fill="#3B5998" d="M44.764,38.986c-5.697,0-8.09-2.819-9.095-5.186c-0.502-1.068-0.747-2.735-0.747-5.197v-1.256
			c0-2.978,0.405-4.958,1.273-6.222c1.644-2.74,4.527-4.129,8.569-4.129c2.013,0,4.11,0.272,6.235,0.81l1.132,0.286v7.602
			l-1.775-0.331c-2.138-0.399-3.802-0.602-4.946-0.602c-1.22,0-1.587,0.222-1.636,0.256c-0.051,0.181-0.154,0.688-0.154,1.855v2.357
			c0,1.112,0.1,1.586,0.146,1.746c0,0,0.056,0.07,0.056,0.07c0.006,0,0.32,0.227,1.485,0.227h0.423c0.523,0,1.746-0.11,4.595-0.636
			l0.135-0.024h1.637l0.034,1.5v4.576c0,1.461-1.095,1.625-4.347,2.112C46.822,38.925,45.816,38.986,44.764,38.986z"/>
		<path fill="#FFFFFF" d="M44.764,18.496c1.899,0,3.854,0.255,5.867,0.764v4.628c-2.239-0.418-3.979-0.627-5.222-0.627
			c-1.334,0-2.234,0.232-2.697,0.695c-0.396,0.249-0.593,1.221-0.593,2.917v2.357c0,1.549,0.175,2.463,0.524,2.746
			c0.419,0.531,1.307,0.797,2.663,0.797h0.423c0.859,0,2.482-0.221,4.867-0.66h0.034v4.576c0,0.113-1.023,0.322-3.069,0.629
			c-0.882,0.113-1.814,0.168-2.798,0.168c-3.934,0-6.505-1.424-7.714-4.271c-0.419-0.893-0.628-2.43-0.628-4.611v-1.256
			c0-2.633,0.345-4.436,1.034-5.409C38.813,19.644,41.248,18.496,44.764,18.496 M44.764,15.496c-5.69,0-8.483,2.597-9.832,4.818
			c-1.029,1.526-1.51,3.767-1.51,7.033v1.256c0,2.652,0.282,4.508,0.886,5.83c1.193,2.773,3.975,6.053,10.456,6.053
			c1.116,0,2.186-0.064,3.18-0.192l0.031-0.004l0.031-0.005c1.087-0.163,1.892-0.299,2.458-0.415
			c2.617-0.535,3.166-2.025,3.166-3.181v-4.576v-3h-3h-0.274l-0.304,0.05c-2.99,0.551-4.02,0.61-4.324,0.61h-0.423
			c-0.063,0-0.123-0.001-0.178-0.002c-0.006-0.153-0.01-0.333-0.01-0.541v-2.357c0-0.235,0.004-0.437,0.011-0.607
			c0.084-0.003,0.177-0.005,0.279-0.005c0.723,0,2.121,0.1,4.671,0.576l3.55,0.663v-3.612V19.26v-2.336l-2.265-0.573
			C49.122,15.784,46.9,15.496,44.764,15.496L44.764,15.496z"/>
	</g>
	<g>
		<path fill="#3B5998" d="M61.651,38.986c-4.704,0-7.82-1.69-9.262-5.023c-0.524-1.292-0.783-2.628-0.783-4.004v-4.441
			c0-3.865,1.748-6.594,5.056-7.891c1.437-0.473,2.899-0.697,4.43-0.697c4.455,0,7.424,1.556,8.824,4.624
			c0.538,1.199,0.798,2.764,0.798,4.794v4.789h-0.462l0.021,0.941v4.646c0,1.359-0.638,1.464-4.175,2.039
			C64.765,38.915,63.294,38.986,61.651,38.986z M60.77,31.136c0.346,0.063,0.781,0.104,1.255,0.104h0.458
			c0.777,0,1.566-0.034,2.366-0.104H60.77z M61.39,24.287c-0.081-0.011-0.168-0.017-0.264-0.017c-0.152,0-0.274,0.005-0.374,0.017
			H61.39z"/>
		<path fill="#FFFFFF" d="M61.092,18.429c3.833,0,6.319,1.249,7.46,3.747c0.441,0.983,0.662,2.374,0.662,4.171v3.289H58.837v0.561
			c0,1.254,0.385,2.018,1.152,2.287c0.6,0.17,1.277,0.256,2.035,0.256h0.458c2.034,0,4.12-0.221,6.257-0.662h0.033v4.646
			c0,0.057-0.972,0.242-2.916,0.559c-1.221,0.137-2.623,0.203-4.205,0.203c-4.069,0-6.697-1.373-7.885-4.119
			c-0.44-1.086-0.66-2.221-0.66-3.408v-4.441c0-3.256,1.367-5.421,4.104-6.495C58.419,18.627,59.712,18.429,61.092,18.429
			 M58.837,25.787h4.646v-0.305c0-1.289-0.276-2.051-0.831-2.289c-0.418-0.282-0.926-0.424-1.525-0.424
			c-1.525,0-2.289,0.718-2.289,2.154V25.787 M61.092,15.429c-1.689,0-3.309,0.25-4.814,0.743l-0.083,0.027l-0.08,0.031
			c-3.875,1.52-6.008,4.818-6.008,9.288v4.441c0,1.569,0.296,3.096,0.88,4.536L51,34.526l0.014,0.031
			c1.169,2.705,3.964,5.929,10.638,5.929c1.698,0,3.225-0.074,4.539-0.222l0.074-0.009l0.074-0.012
			c1.008-0.164,1.765-0.295,2.269-0.392c2.101-0.401,3.165-1.454,3.165-3.128v-4.088h0.441v-3v-3.289c0-2.247-0.303-4.013-0.925-5.4
			C70.135,18.42,67.438,15.429,61.092,15.429L61.092,15.429z"/>
	</g>
	<g>
		<polygon fill="#FCAE00" points="86.217,38.75 84.916,34.327 83.589,38.75 75.127,38.75 68.84,17.268 77.839,17.268 79.589,24.101 
			81.182,17.268 88.665,17.268 90.249,24.065 91.97,17.268 101.009,17.268 94.702,38.75 		"/>
		<path fill="#FFFFFF" d="M99.005,18.768L93.579,37.25h-6.24l-2.407-8.189l-2.459,8.189h-6.222l-5.409-18.482h5.833l2.983,11.648
			l2.714-11.648h5.103l2.714,11.648l2.949-11.648H99.005 M103.012,15.768h-4.007h-5.867h-2.335l-0.493,1.947l-0.453-1.947h-2.382
			h-5.103H79.99l-0.47,2.019l-0.518-2.019h-2.328h-5.833h-4.004l1.125,3.843l5.409,18.482l0.631,2.157h2.248h6.222h2.231
			l0.197-0.655l0.192,0.655h2.245h6.24h2.246l0.633-2.155l5.426-18.481L103.012,15.768L103.012,15.768z"/>
	</g>
	<g>
		<path fill="#FCAE00" d="M109.313,38.986c-4.704,0-7.82-1.69-9.262-5.023c-0.524-1.294-0.784-2.63-0.784-4.004v-4.441
			c0-3.864,1.748-6.593,5.055-7.891c1.438-0.473,2.901-0.697,4.432-0.697c4.453,0,7.422,1.556,8.824,4.624
			c0.538,1.199,0.798,2.765,0.798,4.795v4.789h-0.463l0.021,0.941v4.646c0,1.359-0.638,1.463-4.175,2.039
			C112.427,38.915,110.956,38.986,109.313,38.986z M108.432,31.136c0.347,0.063,0.781,0.104,1.255,0.104h0.458
			c0.776,0,1.566-0.034,2.366-0.104H108.432z M109.052,24.287c-0.081-0.011-0.169-0.017-0.264-0.017
			c-0.151,0-0.274,0.005-0.373,0.017H109.052z"/>
		<path fill="#FFFFFF" d="M108.754,18.429c3.832,0,6.318,1.249,7.46,3.747c0.441,0.983,0.662,2.374,0.662,4.171v3.289h-10.377v0.561
			c0,1.254,0.384,2.018,1.152,2.287c0.6,0.17,1.277,0.256,2.035,0.256h0.458c2.034,0,4.12-0.221,6.256-0.662h0.034v4.646
			c0,0.057-0.973,0.242-2.916,0.559c-1.221,0.137-2.623,0.203-4.205,0.203c-4.069,0-6.697-1.373-7.885-4.119
			c-0.44-1.086-0.661-2.221-0.661-3.408v-4.441c0-3.256,1.368-5.421,4.103-6.495C106.08,18.627,107.374,18.429,108.754,18.429
			 M106.499,25.787h4.646v-0.305c0-1.289-0.277-2.051-0.831-2.289c-0.418-0.282-0.927-0.424-1.525-0.424
			c-1.526,0-2.289,0.718-2.289,2.154V25.787 M108.754,15.429c-1.688,0-3.31,0.25-4.815,0.742l-0.083,0.027l-0.081,0.032
			c-3.874,1.52-6.007,4.818-6.007,9.287v4.441c0,1.568,0.297,3.094,0.881,4.536l0.013,0.031l0.014,0.031
			c1.17,2.705,3.965,5.929,10.639,5.929c1.698,0,3.226-0.074,4.539-0.222l0.074-0.009l0.074-0.012
			c1.008-0.164,1.764-0.295,2.269-0.391c2.1-0.402,3.165-1.455,3.165-3.129v-4.088h0.441v-3v-3.289c0-2.247-0.303-4.013-0.925-5.4
			C117.796,18.42,115.098,15.429,108.754,15.429L108.754,15.429z"/>
	</g>
	<g>
		<path fill="#FCAE00" d="M126.795,38.986c-2.445,0-5.084-0.265-7.842-0.788l-1.221-0.231V9.979l8.697-1.526v8.774
			c0.186-0.035,0.373-0.066,0.563-0.095c0.729-0.113,1.417-0.17,2.04-0.17c3.841,0,6.339,1.132,7.426,3.365
			c0.424,0.721,0.84,2.062,0.84,6.089v1.848c0,4.032-0.385,5.452-0.79,6.202c-0.249,0.67-0.74,1.357-1.53,2.148
			C133.229,38.224,130.567,38.986,126.795,38.986z M127.12,31.308c0.523-0.002,1.256-0.085,1.36-0.48
			c0.037-0.12,0.087-0.31,0.087-0.734V25.38c0-0.432-0.077-0.527-0.273-0.585h-0.686c-0.406,0-0.796,0.067-1.179,0.202v6.278
			L127.12,31.308z"/>
		<path fill="#FFFFFF" d="M124.93,10.239v8.918c0.712-0.237,1.475-0.418,2.288-0.542c0.656-0.102,1.261-0.153,1.814-0.153
			c3.268,0,5.302,0.859,6.104,2.578c0.44,0.701,0.661,2.492,0.661,5.375v1.848c0,3.006-0.221,4.865-0.661,5.578
			c-0.147,0.475-0.554,1.045-1.221,1.713c-1.401,1.289-3.776,1.932-7.121,1.932c-2.363,0-4.884-0.254-7.563-0.762V11.239
			L124.93,10.239 M127.048,32.806c1.64,0,2.601-0.531,2.883-1.594c0.09-0.281,0.137-0.654,0.137-1.119V25.38
			c0-1.153-0.531-1.848-1.594-2.085h-0.865c-0.938,0-1.831,0.255-2.679,0.763v8.647L127.048,32.806 M127.93,6.667l-3.519,0.618
			l-5.697,1l-2.481,0.436v2.519v25.485v2.484l2.441,0.463c2.85,0.54,5.582,0.814,8.121,0.814c4.166,0,7.159-0.891,9.152-2.724
			l0.047-0.043l0.045-0.045c0.91-0.912,1.501-1.742,1.836-2.585c0.5-0.971,0.923-2.629,0.923-6.826v-1.848
			c0-3.509-0.295-5.508-1.011-6.785c-1.366-2.766-4.311-4.168-8.755-4.168c-0.352,0-0.721,0.016-1.103,0.048v-5.271V6.667
			L127.93,6.667z"/>
	</g>
</g>
</svg>
