<?xml version="1.0" encoding="utf-8"?>
<!-- Generator: Adobe Illustrator 15.0.0, SVG Export Plug-In . SVG Version: 6.00 Build 0)  -->
<!DOCTYPE svg PUBLIC "-//W3C//DTD SVG 1.1//EN" "http://www.w3.org/Graphics/SVG/1.1/DTD/svg11.dtd">
<svg version="1.1" id="Layer_1" xmlns="http://www.w3.org/2000/svg" xmlns:xlink="http://www.w3.org/1999/xlink" x="0px" y="0px"
	 width="120px" height="120px" viewBox="0 0 120 120" enable-background="new 0 0 120 120" xml:space="preserve">
<g>
	<g>
		<path fill="#FFFFFF" d="M82.279,47.952c-0.249-0.415-0.66-0.707-1.134-0.801l-25.137-6.031c-0.825-0.162-1.646,0.297-1.93,1.09
			l-9.585,24.357l3.2,1.162l9.079-23.162l21.843,5.553c-1.365,4.23-4.608,13.064-7.719,21.289
			c-2.716,7.176-4.274,9.631-7.244,10.135l-0.004-0.004c-6.065,0.852-5.955-6.881-5.955-6.881l-19.366-7.803
			c-1.375,8.725,5.326,10.816,5.326,10.816l14.177,6.424c0.005,0.002,2.22,1.055,4.625,0.943c6.487-0.162,8.768-4.877,11.623-12.43
			c4.129-10.92,8.317-23.152,8.355-23.281C82.584,48.863,82.527,48.371,82.279,47.952L82.279,47.952z"/>
		<path fill="#FFFFFF" d="M70.823,57.784c0.146,0.041,0.299,0.063,0.451,0.063c0.746,0,1.429-0.502,1.64-1.256
			c0.248-0.906-0.288-1.845-1.194-2.09l-7.378-2.273c-0.897-0.246-1.847,0.289-2.094,1.197c-0.246,0.906,0.287,1.844,1.196,2.09
			L70.823,57.784z"/>
		<path fill="#FFFFFF" d="M59.294,60.25c-0.294,0.893,0.185,1.857,1.077,2.152l7.336,2.615c0.183,0.063,0.357,0.086,0.531,0.086
			c0.718,0.002,1.389-0.445,1.627-1.162c0.296-0.893-0.184-1.857-1.079-2.154l-7.334-2.615
			C60.555,58.877,59.596,59.359,59.294,60.25L59.294,60.25z"/>
		<path fill="#FFFFFF" d="M58.648,66.283c-0.891-0.293-1.855,0.193-2.148,1.088c-0.292,0.889,0.195,1.855,1.089,2.145l7.354,2.605
			c0.178,0.059,0.355,0.084,0.534,0.084c0.712,0,1.378-0.453,1.612-1.166c0.295-0.898-0.192-1.861-1.087-2.152L58.648,66.283z"/>
		<path fill="#FFFFFF" d="M58.377,50.248c1.044,0,1.89,0.822,1.891,1.836c0,1.014-0.847,1.838-1.891,1.84
			c-1.042,0.002-1.889-0.822-1.889-1.834C56.488,51.077,57.335,50.252,58.377,50.248L58.377,50.248z"/>
		<path fill="#FFFFFF" d="M55.706,57.079c1.043,0,1.889,0.82,1.889,1.833c0,1.012-0.846,1.836-1.889,1.838
			c-1.044,0-1.89-0.822-1.89-1.834C53.816,57.902,54.662,57.08,55.706,57.079L55.706,57.079z"/>
		<path fill="#FFFFFF" d="M52.855,64.125c1.048-0.002,1.891,0.82,1.891,1.836c0,1.014-0.843,1.834-1.891,1.836
			c-1.039,0.002-1.886-0.82-1.886-1.834C50.97,64.951,51.815,64.127,52.855,64.125L52.855,64.125z"/>
	</g>
	<circle fill="none" stroke="#FFFFFF" stroke-width="0.7125" stroke-miterlimit="10" cx="60" cy="60" r="59.852"/>
</g>
</svg>
