<?xml version="1.0" encoding="utf-8"?>
<!-- Generator: Adobe Illustrator 15.0.0, SVG Export Plug-In . SVG Version: 6.00 Build 0)  -->
<!DOCTYPE svg PUBLIC "-//W3C//DTD SVG 1.1//EN" "http://www.w3.org/Graphics/SVG/1.1/DTD/svg11.dtd">
<svg version="1.1" id="Layer_1" xmlns="http://www.w3.org/2000/svg" xmlns:xlink="http://www.w3.org/1999/xlink" x="0px" y="0px"
	 width="118px" height="118px" viewBox="0 0 118 118" enable-background="new 0 0 118 118" xml:space="preserve">
<g>
	<g>
		<g>
			<path fill="#FFFFFF" d="M53.809,55.489h-0.088c-0.321,0-0.604,0.204-0.706,0.513l-1.365,4.116l-1.37-4.116
				c-0.102-0.309-0.385-0.513-0.704-0.513h-0.128c-0.319,0-0.603,0.204-0.704,0.513l-1.366,4.116l-1.369-4.123
				c-0.103-0.302-0.387-0.506-0.706-0.506h-0.088c-0.239,0-0.464,0.114-0.604,0.309c-0.14,0.195-0.175,0.444-0.1,0.674l2.106,6.21
				c0.103,0.301,0.385,0.502,0.704,0.502h0.05h0.008c0.006,0,0.007,0,0.007,0h0.043c0.317,0,0.603-0.201,0.705-0.502l1.38-4.104
				l1.375,4.098c0.102,0.307,0.384,0.508,0.704,0.508h0.048h0.011c0.004,0,0.007,0,0.007,0h0.043c0.317,0,0.601-0.201,0.702-0.502
				l2.109-6.21c0.075-0.229,0.037-0.479-0.102-0.674C54.273,55.603,54.048,55.489,53.809,55.489L53.809,55.489z M53.809,55.489"/>
			<path fill="#FFFFFF" d="M64.11,55.489h-0.087c-0.32,0-0.604,0.204-0.704,0.513l-1.367,4.116l-1.37-4.116
				c-0.1-0.309-0.385-0.513-0.705-0.513h-0.125c-0.32,0-0.604,0.204-0.705,0.513l-1.366,4.116l-1.37-4.116
				c-0.102-0.309-0.386-0.513-0.706-0.513h-0.087c-0.239,0-0.464,0.114-0.604,0.309c-0.139,0.195-0.175,0.444-0.1,0.674l2.106,6.21
				c0.103,0.301,0.385,0.502,0.703,0.502h0.049h0.01c0.004,0,0.007,0,0.007,0h0.043c0.318,0,0.603-0.201,0.704-0.502l1.381-4.104
				l1.374,4.104c0.102,0.301,0.385,0.502,0.705,0.502h0.047h0.012c0.002,0,0.006,0,0.006,0h0.042c0.319,0,0.603-0.201,0.704-0.502
				l2.105-6.21c0.078-0.229,0.039-0.479-0.1-0.674C64.574,55.603,64.351,55.489,64.11,55.489L64.11,55.489z M64.11,55.489"/>
			<path fill="#FFFFFF" d="M74.413,55.489h-0.088c-0.319,0-0.604,0.204-0.703,0.513l-1.367,4.116l-1.37-4.116
				c-0.102-0.309-0.385-0.513-0.704-0.513h-0.125c-0.321,0-0.605,0.204-0.705,0.513l-1.366,4.116l-1.37-4.116
				c-0.103-0.309-0.385-0.513-0.706-0.513H65.82c-0.238,0-0.464,0.114-0.603,0.309c-0.14,0.195-0.176,0.444-0.102,0.674l2.109,6.21
				c0.102,0.301,0.385,0.508,0.701,0.508h0.05c0,0,0.006-0.006,0.009-0.006l0.012,0.006h0.039c0.318,0,0.602-0.207,0.703-0.508
				l1.382-4.099l1.374,4.099c0.102,0.301,0.385,0.508,0.703,0.508h0.05c0,0,0.007-0.006,0.01-0.006l0.01,0.006h0.039
				c0.319,0,0.603-0.205,0.704-0.508l2.105-6.21c0.078-0.229,0.04-0.477-0.1-0.674C74.876,55.603,74.651,55.489,74.413,55.489
				L74.413,55.489z M74.413,55.489"/>
			<path fill="#FFFFFF" d="M40.638,77.238V49.386l38.353,0.004v15.936c0.77-0.662,1.738-1.025,2.764-1.025
				c0.157,0,0.314,0.012,0.469,0.025V42.452c0-1.486-1.209-2.693-2.694-2.693l-39.431-0.002c-1.484,0-2.692,1.209-2.692,2.692
				v35.329c0,1.484,1.208,2.695,2.692,2.695h25.695c-0.621-0.975-1.071-2.063-1.309-3.234H40.638z M76.034,44.281
				c0-0.549,0.443-0.995,0.996-0.995h0.992c0.551,0,0.995,0.446,0.995,0.995v1.127c0,0.55-0.444,0.992-0.995,0.992H77.03
				c-0.553,0-0.996-0.442-0.996-0.992V44.281z M71.409,44.281c0-0.549,0.445-0.995,0.994-0.995h0.996
				c0.55,0,0.994,0.446,0.994,0.995v1.127c0,0.55-0.444,0.992-0.994,0.992h-0.996c-0.549,0-0.994-0.442-0.994-0.992V44.281z
				 M66.785,44.281c0-0.549,0.446-0.995,0.994-0.995h0.994c0.55,0,0.995,0.446,0.995,0.995v1.127c0,0.55-0.445,0.992-0.995,0.992
				h-0.994c-0.548,0-0.994-0.444-0.994-0.992V44.281z M66.785,44.281"/>
			<path fill="#FFFFFF" d="M85.024,70.016c0-0.523-0.203-1.014-0.574-1.385l-1.47-1.471c-0.37-0.369-0.861-0.572-1.386-0.572
				c-0.521,0-1.017,0.203-1.387,0.572l-2.24,2.242c-1.195-0.857-2.662-1.367-4.246-1.367c-4.031,0-7.299,3.271-7.299,7.303
				s3.268,7.299,7.299,7.299c4.029,0,7.299-3.268,7.299-7.299c0-0.162-0.006-0.328-0.018-0.486l3.447-3.449
				C84.821,71.033,85.024,70.541,85.024,70.016L85.024,70.016z M82.858,70.453l-7.021,7.021c-0.146,0.146-0.348,0.227-0.557,0.227
				s-0.41-0.08-0.559-0.227l-3.253-3.26c-0.307-0.309-0.307-0.807,0.001-1.115l0.626-0.625c0.308-0.307,0.806-0.307,1.114,0
				l2.069,2.061l5.829-5.828c0.15-0.15,0.35-0.232,0.559-0.232c0.21,0,0.41,0.084,0.557,0.232l0.635,0.629
				C83.165,69.645,83.165,70.146,82.858,70.453L82.858,70.453z M82.858,70.453"/>
		</g>
	</g>
	<circle fill="none" stroke="#FFFFFF" stroke-miterlimit="10" cx="59" cy="59" r="58.898"/>
</g>
</svg>
