<?xml version="1.0" encoding="utf-8"?>
<!-- Generator: Adobe Illustrator 15.0.0, SVG Export Plug-In . SVG Version: 6.00 Build 0)  -->
<!DOCTYPE svg PUBLIC "-//W3C//DTD SVG 1.1//EN" "http://www.w3.org/Graphics/SVG/1.1/DTD/svg11.dtd">
<svg version="1.1" id="Layer_1" xmlns="http://www.w3.org/2000/svg" xmlns:xlink="http://www.w3.org/1999/xlink" x="0px" y="0px"
	 width="109px" height="109px" viewBox="0 0 109 109" enable-background="new 0 0 109 109" xml:space="preserve">
<g>
	<path fill="#FCAE00" d="M54.38-0.163c-29.924,0-54.182,24.258-54.182,54.182c0,29.924,24.258,54.182,54.182,54.182
		c5.227,0,10.276-0.756,15.058-2.137c18.403-5.316,32.78-20.114,37.48-38.771c1.069-4.248,1.644-8.693,1.644-13.274
		C108.563,24.095,84.305-0.163,54.38-0.163z"/>
	<linearGradient id="SVGID_1_" gradientUnits="userSpaceOnUse" x1="139.7373" y1="138.2373" x2="70.6032" y2="69.1024">
		<stop  offset="0" style="stop-color:#FFFFFF"/>
		<stop  offset="0.0718" style="stop-color:#DFDFDF"/>
		<stop  offset="0.2156" style="stop-color:#A5A5A5"/>
		<stop  offset="0.3593" style="stop-color:#727272"/>
		<stop  offset="0.4998" style="stop-color:#494949"/>
		<stop  offset="0.6362" style="stop-color:#292929"/>
		<stop  offset="0.7674" style="stop-color:#121212"/>
		<stop  offset="0.8912" style="stop-color:#050505"/>
		<stop  offset="1" style="stop-color:#000000"/>
	</linearGradient>
	<path opacity="0.5" fill="url(#SVGID_1_)" d="M106.919,67.293L74.822,38.72l-11.068-5.282l-12.635-1.501l-9.309,3.17l-5.485,6.841
		l-3.16,4.171l-1.662,8.175l3.326,11.68l0.979,6.272l33.631,33.818C87.842,100.748,102.219,85.95,106.919,67.293z"/>
	<g>
		<path fill="#FFFFFF" d="M56.123,30.378c-14.207,0-25.77,11.561-25.77,25.77c0,14.209,11.563,25.771,25.77,25.771
			c14.211,0,25.771-11.563,25.771-25.771C81.895,41.939,70.334,30.378,56.123,30.378z M63.518,67.742
			C62.119,69.217,61,70.104,58,70.389V74h-3v-3.627c-2-0.232-2.746-0.59-3.673-1.064c-1.175-0.604-2.322-1.576-3.164-2.895
			c-0.83-1.311-1.383-2.911-1.514-4.762l-0.1-0.91l5.187-0.977l0.142,1.047c0.229,1.561,0.855,2.693,1.381,3.367
			c0.456,0.572,0.74,0.984,1.74,1.242v-8.211c-2-0.309-2.635-0.803-3.841-1.479c-1.199-0.668-2.267-1.611-2.919-2.801
			c-0.643-1.168-1.032-2.509-1.032-3.981c0-2.612,1.164-4.762,3.032-6.391c1.088-0.954,2.76-1.591,4.76-1.897V39h3v1.664
			c2,0.281,3.293,0.876,4.368,1.771c1.615,1.34,2.716,3.191,3.044,5.502l0.193,1.007l-5.33,0.803l-0.141-1.002
			c-0.162-1.073-0.699-1.884-1.171-2.41C58.751,46.1,59,45.901,58,45.739v7.149c2,0.337,2.371,0.6,2.869,0.815
			c1.128,0.496,2.18,1.113,2.908,1.837c0.736,0.737,1.37,1.622,1.762,2.628c0.389,0.996,0.504,2.082,0.504,3.229
			C66.043,63.914,65.14,66.049,63.518,67.742z"/>
		<path fill="#FFFFFF" d="M58,58.309v7.127c1-0.223,1.199-0.559,1.602-1.012c0.664-0.752,1.1-1.672,1.1-2.809
			c0-0.945-0.379-1.664-0.818-2.195C59.652,59.136,59,58.743,58,58.309z"/>
		<path fill="#FFFFFF" d="M52.43,48.696c0,0.869,0.476,1.565,0.943,2.125C53.675,51.186,54,51.513,55,51.804v-6.208
			c-1,0.208-1.15,0.497-1.485,0.876C52.95,47.102,52.43,47.829,52.43,48.696z"/>
	</g>
</g>
</svg>
