<?xml version="1.0" encoding="utf-8"?>
<!-- Generator: Adobe Illustrator 15.0.0, SVG Export Plug-In . SVG Version: 6.00 Build 0)  -->
<!DOCTYPE svg PUBLIC "-//W3C//DTD SVG 1.1//EN" "http://www.w3.org/Graphics/SVG/1.1/DTD/svg11.dtd">
<svg version="1.1" id="Layer_1" xmlns="http://www.w3.org/2000/svg" xmlns:xlink="http://www.w3.org/1999/xlink" x="0px" y="0px"
	 width="23px" height="23px" viewBox="0 0 23 23" enable-background="new 0 0 23 23" xml:space="preserve">
<g>
	<path fill="#FFFFFF" d="M7.391,7.628L2.135,2.367C2.814,1.688,3.491,1.009,4.17,0.328C4.485,0.016,4.992,0.01,5.307,0.319
		l4.095,4.1c0.313,0.313,0.313,0.828-0.004,1.145L8.501,6.458L7.666,7.294C7.564,7.396,7.471,7.507,7.391,7.628z M11.715,16.191
		c-0.86-0.739-1.686-1.526-2.487-2.326c-0.8-0.805-1.583-1.628-2.325-2.493c-0.607-0.701-0.726-1.717-0.409-2.571L1.1,3.404
		c-1.255,1.291-1.095,4.492,0.28,7.304c0.592,1.217,1.357,2.314,2.149,3.358c0.791,1.035,1.657,2.015,2.57,2.937
		c0.916,0.916,1.89,1.788,2.928,2.578c1.044,0.797,2.145,1.557,3.354,2.146c2.816,1.372,6.018,1.526,7.307,0.268l-5.396-5.396
		C13.438,16.915,12.418,16.799,11.715,16.191z M22.768,17.785l-4.094-4.097c-0.314-0.31-0.83-0.31-1.145,0.004h-0.004l-0.896,0.898
		l-0.83,0.834c-0.104,0.102-0.215,0.192-0.334,0.276l5.254,5.257c0.68-0.681,1.359-1.357,2.039-2.037
		C23.076,18.608,23.082,18.1,22.768,17.785z"/>
</g>
</svg>
