<?xml version="1.0" encoding="utf-8"?>
<!-- Generator: Adobe Illustrator 15.0.0, SVG Export Plug-In . SVG Version: 6.00 Build 0)  -->
<!DOCTYPE svg PUBLIC "-//W3C//DTD SVG 1.1//EN" "http://www.w3.org/Graphics/SVG/1.1/DTD/svg11.dtd">
<svg version="1.1" id="Layer_1" xmlns="http://www.w3.org/2000/svg" xmlns:xlink="http://www.w3.org/1999/xlink" x="0px" y="0px"
	 width="157px" height="157px" viewBox="0 0 157 157" enable-background="new 0 0 157 157" xml:space="preserve">
<g>
	<circle fill="none" stroke="#FFFFFF" stroke-width="1.3287" stroke-miterlimit="10" cx="78.503" cy="78.392" r="78.257"/>
	<g>
		<defs>
			<rect id="SVGID_1_" x="49" y="37.898" width="60" height="82"/>
		</defs>
		<clipPath id="SVGID_2_">
			<use xlink:href="#SVGID_1_"  overflow="visible"/>
		</clipPath>
		<path clip-path="url(#SVGID_2_)" fill="#FCFCFC" d="M105.909,49.475h-9.115c-1.379,0-2.016,1.133-1.935,2.205
			c0.059,0.953,0.693,1.865,1.935,1.865h7.08v61.682H53.671V53.545h6.356c1.229,0,1.864-0.912,1.935-1.865
			c0.081-1.072-0.556-2.205-1.935-2.205h-8.392c-1.111,0-2.035,0.924-2.035,2.035v65.742c0,1.113,0.924,2.031,2.035,2.031h54.273
			c1.112,0,2.036-0.918,2.036-2.031V51.51C107.945,50.398,107.021,49.475,105.909,49.475L105.909,49.475z M105.909,49.475"/>
		<path clip-path="url(#SVGID_2_)" fill="#FCFCFC" d="M56.462,55.58v54.563c0,0.189,0.07,0.35,0.158,0.506
			c0.179,0.295,0.496,0.504,0.864,0.504h42.695c0.289,0,0.488-0.111,0.656-0.244c0.021-0.02,0.04-0.041,0.06-0.049
			c0.02-0.037,0.039-0.051,0.05-0.07c0.149-0.174,0.259-0.367,0.259-0.646V55.58c0-0.555-0.467-1.02-1.024-1.02h-6.096v-5.086
			c0-0.555-0.457-1.014-1.013-1.014h-3.684c-0.854-4.557-6.176-6.641-10.427-6.705c-4.239-0.057-9.571,2.209-10.425,6.705h-3.644
			c-0.558,0-1.014,0.459-1.014,1.014v5.086h-6.395C56.929,54.561,56.462,55.025,56.462,55.58L56.462,55.58z M65.915,50.496H69.3
			c0.07,0,0.13,0,0.199,0h18.926c0.069,0,0.129,0,0.199,0h3.434v8.295H65.915C65.915,56.029,65.915,53.26,65.915,50.496
			L65.915,50.496z M58.497,73.135V56.59h5.382v3.221c0,0.559,0.456,1.01,1.014,1.01h28.179c0.277,0,0.477-0.098,0.635-0.244
			c0.03-0.021,0.05-0.033,0.08-0.051c0.021-0.023,0.029-0.037,0.049-0.068c0.14-0.162,0.249-0.369,0.249-0.646V56.59h5.085v52.525
			H58.497V73.135z M58.497,73.135"/>
		<path clip-path="url(#SVGID_2_)" fill="#FCFCFC" d="M66.619,66.582c0,0.932-0.755,1.688-1.679,1.688
			c-0.932,0-1.688-0.756-1.688-1.688c0-0.922,0.756-1.678,1.688-1.678C65.864,64.904,66.619,65.66,66.619,66.582L66.619,66.582z
			 M66.619,66.582"/>
		<path clip-path="url(#SVGID_2_)" fill="#FCFCFC" d="M70.701,67.492H89c0.656,0,0.656-1.01,0-1.01H70.701
			C70.045,66.482,70.045,67.492,70.701,67.492L70.701,67.492z M70.701,67.492"/>
		<path clip-path="url(#SVGID_2_)" fill="#FCFCFC" d="M66.619,72.686c0,0.928-0.755,1.684-1.679,1.684
			c-0.932,0-1.688-0.756-1.688-1.684c0-0.932,0.756-1.686,1.688-1.686C65.864,71,66.619,71.754,66.619,72.686L66.619,72.686z
			 M66.619,72.686"/>
		<path clip-path="url(#SVGID_2_)" fill="#FCFCFC" d="M70.701,73.594H89c0.656,0,0.656-1.018,0-1.018H70.701
			C70.045,72.576,70.045,73.594,70.701,73.594L70.701,73.594z M70.701,73.594"/>
		<path clip-path="url(#SVGID_2_)" fill="#FCFCFC" d="M66.619,78.787c0,0.932-0.755,1.688-1.679,1.688
			c-0.932,0-1.688-0.756-1.688-1.688c0-0.934,0.756-1.678,1.688-1.678C65.864,77.109,66.619,77.854,66.619,78.787L66.619,78.787z
			 M66.619,78.787"/>
		<path clip-path="url(#SVGID_2_)" fill="#FCFCFC" d="M70.701,79.699H89c0.656,0,0.656-1.021,0-1.021H70.701
			C70.045,78.678,70.045,79.699,70.701,79.699L70.701,79.699z M70.701,79.699"/>
		<path clip-path="url(#SVGID_2_)" fill="#FCFCFC" d="M66.619,84.889c0,0.93-0.755,1.68-1.679,1.68c-0.932,0-1.688-0.75-1.688-1.68
			c0-0.928,0.756-1.688,1.688-1.688C65.864,83.201,66.619,83.961,66.619,84.889L66.619,84.889z M66.619,84.889"/>
		<path clip-path="url(#SVGID_2_)" fill="#FCFCFC" d="M70.701,85.797H89c0.656,0,0.656-1.018,0-1.018H70.701
			C70.045,84.779,70.045,85.797,70.701,85.797L70.701,85.797z M70.701,85.797"/>
		<path clip-path="url(#SVGID_2_)" fill="#FCFCFC" d="M66.619,90.99c0,0.934-0.755,1.688-1.679,1.688
			c-0.932,0-1.688-0.754-1.688-1.688c0-0.939,0.756-1.689,1.688-1.689C65.864,89.301,66.619,90.051,66.619,90.99L66.619,90.99z
			 M66.619,90.99"/>
		<path clip-path="url(#SVGID_2_)" fill="#FCFCFC" d="M70.701,91.904H89c0.656,0,0.656-1.023,0-1.023H70.701
			C70.045,90.881,70.045,91.904,70.701,91.904L70.701,91.904z M70.701,91.904"/>
		<path clip-path="url(#SVGID_2_)" fill="#FCFCFC" d="M66.619,97.086c0,0.93-0.755,1.689-1.679,1.689
			c-0.932,0-1.688-0.76-1.688-1.689c0-0.924,0.756-1.676,1.688-1.676C65.864,95.41,66.619,96.162,66.619,97.086L66.619,97.086z
			 M66.619,97.086"/>
		<path clip-path="url(#SVGID_2_)" fill="#FCFCFC" d="M70.701,97.996H89c0.656,0,0.656-1.008,0-1.008H70.701
			C70.045,96.988,70.045,97.996,70.701,97.996L70.701,97.996z M70.701,97.996"/>
	</g>
</g>
</svg>
