<?xml version="1.0" encoding="utf-8"?>
<!-- Generator: Adobe Illustrator 15.0.0, SVG Export Plug-In . SVG Version: 6.00 Build 0)  -->
<!DOCTYPE svg PUBLIC "-//W3C//DTD SVG 1.1//EN" "http://www.w3.org/Graphics/SVG/1.1/DTD/svg11.dtd">
<svg version="1.1" id="Layer_1" xmlns="http://www.w3.org/2000/svg" xmlns:xlink="http://www.w3.org/1999/xlink" x="0px" y="0px"
	 width="132px" height="132px" viewBox="0 0 132 132" enable-background="new 0 0 132 132" xml:space="preserve">
<g>
	<path fill="#FCAE00" d="M85.623,128.834c0.254-0.082,0.497-0.18,0.75-0.264c20.481-6.828,35.334-21.805,42.125-40.82l-0.03-0.027
		c0.866-2.445,1.587-4.957,2.163-7.523c0.196-0.875,0.359-1.764,0.521-2.652L83.375,39.99l-18.718,1.576l-14.673,1.715
		l-0.763,20.964l-0.953,10.673l0.763,9.529l-0.725,11.795l33.507,33.371c1.221-0.291,2.433-0.605,3.626-0.961L85.623,128.834z"/>
	<linearGradient id="SVGID_1_" gradientUnits="userSpaceOnUse" x1="136.8525" y1="134.0186" x2="91.8405" y2="89.0065">
		<stop  offset="0" style="stop-color:#FFFFFF"/>
		<stop  offset="0.0718" style="stop-color:#EBE5DF"/>
		<stop  offset="0.2156" style="stop-color:#C7B6A5"/>
		<stop  offset="0.3593" style="stop-color:#A88D72"/>
		<stop  offset="0.4998" style="stop-color:#8F6C49"/>
		<stop  offset="0.6362" style="stop-color:#7B5229"/>
		<stop  offset="0.7674" style="stop-color:#6D4012"/>
		<stop  offset="0.8912" style="stop-color:#653505"/>
		<stop  offset="1" style="stop-color:#623100"/>
	</linearGradient>
	<path opacity="0.5" fill="url(#SVGID_1_)" d="M85.623,128.834c0.254-0.082,0.497-0.18,0.75-0.264
		c20.481-6.828,35.334-21.805,42.125-40.82l-0.03-0.027c0.866-2.445,1.587-4.957,2.163-7.523c0.196-0.875,0.359-1.764,0.521-2.652
		L83.375,39.99l-18.718,1.576l-14.673,1.715l-0.763,20.964l-0.953,10.673l0.763,9.529l-0.725,11.795l33.507,33.371
		c1.221-0.291,2.433-0.605,3.626-0.961L85.623,128.834z"/>
	<path fill="#FCAE00" d="M49.031,84.447l-0.763-9.529l0.953-10.673l0.763-20.964l14.673-1.715l18.718-1.576l47.776,37.557
		c0.693-3.807,1.078-7.721,1.078-11.729c0-36.218-29.361-65.578-65.578-65.578C30.432,0.239,1.07,29.6,1.07,65.816
		c0,36.221,29.361,65.58,65.581,65.58c5.222,0,10.294-0.627,15.162-1.783L48.307,96.242L49.031,84.447z"/>
	<g>
		<rect x="55.904" y="48.72" fill="#FFFFFF" width="13.868" height="3.816"/>
		<rect x="63.331" y="56.889" fill="#FFFFFF" width="13.868" height="3.816"/>
		<rect x="55.533" y="64.687" fill="#FFFFFF" width="13.869" height="3.817"/>
		<path fill="#FFFFFF" d="M79.082,38.445H52.228c-3.546,0-6.42,2.874-6.42,6.42v46.316c0,3.547,2.874,6.42,6.42,6.42h26.854
			c3.546,0,6.42-2.873,6.42-6.42V44.865C85.502,41.319,82.628,38.445,79.082,38.445z M65.655,91.797
			c-1.979,0-3.586-1.602-3.586-3.584c0-1.98,1.606-3.582,3.586-3.582c1.98,0,3.583,1.602,3.583,3.582
			C69.238,90.195,67.636,91.797,65.655,91.797z M79.957,81.076H51.349V44.325h28.608V81.076z"/>
	</g>
</g>
</svg>
