<?xml version="1.0" encoding="utf-8"?>
<!-- Generator: Adobe Illustrator 15.0.0, SVG Export Plug-In . SVG Version: 6.00 Build 0)  -->
<!DOCTYPE svg PUBLIC "-//W3C//DTD SVG 1.1//EN" "http://www.w3.org/Graphics/SVG/1.1/DTD/svg11.dtd">
<svg version="1.1" id="Layer_1" xmlns="http://www.w3.org/2000/svg" xmlns:xlink="http://www.w3.org/1999/xlink" x="0px" y="0px"
	 width="132px" height="132px" viewBox="0 0 132 132" enable-background="new 0 0 132 132" xml:space="preserve">
<g>
	<path fill="#FCAE00" d="M57.206,76.834l-0.553-6.912l0.69-7.743l0.553-15.208l10.646-1.245l10.876-7.798
		c0,0,35.654,32.272,49.757,45.694c1.562-5.607,2.404-11.516,2.404-17.622c0-36.217-29.363-65.578-65.58-65.578
		C29.779,0.421,0.42,29.783,0.42,66c0,36.219,29.359,65.579,65.579,65.579c4.366,0,8.628-0.438,12.755-1.254L34.418,83.428
		L57.206,76.834z"/>
	<path fill="#FCAE00" d="M128.585,85.635c0.209-0.666,0.402-1.338,0.59-2.014c-14.103-13.422-49.757-45.694-49.757-45.694
		l-10.876,7.798L57.896,46.97l-0.553,15.208l-0.69,7.743l0.553,6.912l-22.788,6.594l44.336,46.896
		c1.081-0.215,2.155-0.449,3.217-0.715C104.119,124.066,121.805,107.268,128.585,85.635z"/>
	<linearGradient id="SVGID_1_" gradientUnits="userSpaceOnUse" x1="154.4365" y1="157.4453" x2="83.2557" y2="86.2637">
		<stop  offset="0" style="stop-color:#FFFFFF"/>
		<stop  offset="0.0718" style="stop-color:#EBE5DF"/>
		<stop  offset="0.2156" style="stop-color:#C7B6A5"/>
		<stop  offset="0.3593" style="stop-color:#A88D72"/>
		<stop  offset="0.4998" style="stop-color:#8F6C49"/>
		<stop  offset="0.6362" style="stop-color:#7B5229"/>
		<stop  offset="0.7674" style="stop-color:#6D4012"/>
		<stop  offset="0.8912" style="stop-color:#653505"/>
		<stop  offset="1" style="stop-color:#623100"/>
	</linearGradient>
	<path opacity="0.5" fill="url(#SVGID_1_)" d="M128.585,85.635c0.209-0.666,0.402-1.338,0.59-2.014
		c-14.103-13.422-49.757-45.694-49.757-45.694l-10.876,7.798L57.896,46.97l-0.553,15.208l-0.69,7.743l0.553,6.912l-22.788,6.594
		l44.336,46.896c1.081-0.215,2.155-0.449,3.217-0.715C104.119,124.066,121.805,107.268,128.585,85.635z"/>
	<path fill-rule="evenodd" clip-rule="evenodd" fill="#FFFFFF" d="M81.918,81.717c0,2.049-1.678,4.203-3.748,4.203H37.666
		c-2.07,0-3.748-2.154-3.748-4.203V41.63c0-2.049,1.678-3.71,3.748-3.71H78.17c2.07,0,3.748,1.661,3.748,3.71V81.717z"/>
	<path fill-rule="evenodd" clip-rule="evenodd" fill="#FCAE00" d="M75.918,45.591c0-0.37-0.301-0.67-0.671-0.67H40.589
		c-0.371,0-0.671,0.3-0.671,0.67V56.25c0,0.37,0.3,0.67,0.671,0.67h34.658c0.37,0,0.671-0.3,0.671-0.67V45.591z"/>
	<path fill-rule="evenodd" clip-rule="evenodd" fill="#FCAE00" d="M75.918,61.591c0-0.37-0.301-0.67-0.671-0.67H40.589
		c-0.371,0-0.671,0.3-0.671,0.67v3.66c0,0.369,0.3,0.67,0.671,0.67h34.658c0.37,0,0.671-0.301,0.671-0.67V61.591z"/>
	<g>
		<g>
			<g>
				<path fill-rule="evenodd" clip-rule="evenodd" fill="#FCAE00" d="M101.974,97c0.015,1.508-1.336,3.295-3.021,3.547
					l-32.982,4.918c-1.686,0.252-3.052-1.699-3.052-3.748V61.63c0-2.049,1.354-3.47,3.025-3.174l32.692,5.786
					c1.671,0.296,3.037,1.758,3.052,3.264L101.974,97z"/>
			</g>
			<path opacity="0.5" fill-rule="evenodd" clip-rule="evenodd" fill="#623100" d="M96.866,69.816
				c-0.003-0.283-0.248-0.547-0.547-0.584l-28.011-3.616c-0.299-0.039-0.541,0.221-0.541,0.577l0.01,10.308
				c0,0.357,0.244,0.66,0.544,0.674L96.394,78.5c0.3,0.016,0.541-0.205,0.539-0.488L96.866,69.816z"/>
			<path opacity="0.5" fill-rule="evenodd" clip-rule="evenodd" fill="#623100" d="M96.966,82.117
				c-0.002-0.285-0.248-0.521-0.548-0.527l-28.093-0.561c-0.3-0.006-0.544,0.279-0.544,0.637l0.004,3.539
				c0,0.357,0.244,0.645,0.545,0.641l28.118-0.393c0.301-0.004,0.543-0.238,0.54-0.523L96.966,82.117z"/>
		</g>
	</g>
</g>
</svg>
