<?xml version="1.0" encoding="utf-8"?>
<!-- Generator: Adobe Illustrator 15.0.0, SVG Export Plug-In . SVG Version: 6.00 Build 0)  -->
<!DOCTYPE svg PUBLIC "-//W3C//DTD SVG 1.1//EN" "http://www.w3.org/Graphics/SVG/1.1/DTD/svg11.dtd">
<svg version="1.1" id="Layer_1" xmlns="http://www.w3.org/2000/svg" xmlns:xlink="http://www.w3.org/1999/xlink" x="0px" y="0px"
	 width="109px" height="109px" viewBox="0 0 109 109" enable-background="new 0 0 109 109" xml:space="preserve">
<g>
	<defs>
		<path id="SVGID_1_" d="M108.682,54.499c0,29.926-24.261,54.186-54.186,54.186c-29.923,0-54.179-24.262-54.179-54.186
			S24.573,0.316,54.496,0.316C84.421,0.316,108.682,24.575,108.682,54.499z"/>
	</defs>
	<clipPath id="SVGID_2_">
		<use xlink:href="#SVGID_1_"  overflow="visible"/>
	</clipPath>
	<g clip-path="url(#SVGID_2_)">
		<g>
			<defs>
				<path id="SVGID_3_" d="M109.516,87.151c0,12.352-10.013,22.369-22.369,22.369H21.849c-12.357,0-22.37-10.018-22.37-22.369
					V21.851c0-12.355,10.013-22.369,22.37-22.369h65.298c12.356,0,22.369,10.014,22.369,22.369V87.151z"/>
			</defs>
			<clipPath id="SVGID_4_">
				<use xlink:href="#SVGID_3_"  overflow="visible"/>
			</clipPath>
			<linearGradient id="SVGID_5_" gradientUnits="userSpaceOnUse" x1="87.9746" y1="272.2988" x2="19.3234" y2="203.6469">
				<stop  offset="0" style="stop-color:#FFFFFF"/>
				<stop  offset="0.0718" style="stop-color:#DFDFDF"/>
				<stop  offset="0.2156" style="stop-color:#A5A5A5"/>
				<stop  offset="0.3593" style="stop-color:#727272"/>
				<stop  offset="0.4998" style="stop-color:#494949"/>
				<stop  offset="0.6362" style="stop-color:#292929"/>
				<stop  offset="0.7674" style="stop-color:#121212"/>
				<stop  offset="0.8912" style="stop-color:#050505"/>
				<stop  offset="1" style="stop-color:#000000"/>
			</linearGradient>
			<polygon opacity="0.5" clip-path="url(#SVGID_4_)" fill="url(#SVGID_5_)" points="-15.435,230.972 20.65,267.056 64.925,264.222 
				80.602,202.843 46,173.022 35.342,191.083 23.69,177.208 17.86,179.771 0.381,160.239 -14.352,219.917 -6.535,228.114 			"/>
		</g>
	</g>
	<path clip-path="url(#SVGID_2_)" fill="#FCAE00" d="M87.146-0.479H21.849c-12.357,0-23.33,9.974-23.33,22.33v65.301
		c0,12.354,10.973,22.369,23.33,22.369h44.53h20.768c12.356,0,21.372-10.016,21.372-22.369V61.245V21.851
		C108.519,9.496,99.503-0.479,87.146-0.479z"/>
	<g clip-path="url(#SVGID_2_)">
		<linearGradient id="SVGID_6_" gradientUnits="userSpaceOnUse" x1="123.0879" y1="121.5146" x2="73.2901" y2="71.7164">
			<stop  offset="0" style="stop-color:#FFFFFF"/>
			<stop  offset="0.0718" style="stop-color:#DFDFDF"/>
			<stop  offset="0.2156" style="stop-color:#A5A5A5"/>
			<stop  offset="0.3593" style="stop-color:#727272"/>
			<stop  offset="0.4998" style="stop-color:#494949"/>
			<stop  offset="0.6362" style="stop-color:#292929"/>
			<stop  offset="0.7674" style="stop-color:#121212"/>
			<stop  offset="0.8912" style="stop-color:#050505"/>
			<stop  offset="1" style="stop-color:#000000"/>
		</linearGradient>
		<path opacity="0.5" fill="url(#SVGID_6_)" d="M107.019,90.192V67.319l-34-30.25l-12.254,1.943L35.019,71.569l48,40l2.128,0.494
			C97.503,112.063,107.019,102.548,107.019,90.192z"/>
		<path fill="#FFFFFF" d="M54.881,29.219c-14.233,0-25.771,11.538-25.771,25.77c0,14.232,11.538,25.771,25.771,25.771
			c14.232,0,25.77-11.539,25.77-25.771C80.65,40.757,69.113,29.219,54.881,29.219z M57.352,79.521h-4v-8h4V79.521z M57.352,39.521
			h-4v-8h4V39.521z M39.352,54.521v4h-8v-4H39.352z M79.352,54.521v4h-8v-4H79.352z M65.104,52.664l-5.676,4.089
			c0.356,1.551-0.219,3.234-1.591,4.223c-1.827,1.316-4.377,0.902-5.692-0.924c-0.832-1.154-0.97-2.596-0.501-3.832L43.45,44.846
			l3.247-2.338l8.037,11.159c0.658-0.117,1.327-0.072,1.956,0.128l6.076-4.377L65.104,52.664z"/>
	</g>
</g>
</svg>
