<?xml version="1.0" encoding="utf-8"?>
<!-- Generator: Adobe Illustrator 15.0.0, SVG Export Plug-In . SVG Version: 6.00 Build 0)  -->
<!DOCTYPE svg PUBLIC "-//W3C//DTD SVG 1.1//EN" "http://www.w3.org/Graphics/SVG/1.1/DTD/svg11.dtd">
<svg version="1.1" id="Layer_1" xmlns="http://www.w3.org/2000/svg" xmlns:xlink="http://www.w3.org/1999/xlink" x="0px" y="0px"
	 width="153px" height="153px" viewBox="0 0 153 153" enable-background="new 0 0 153 153" xml:space="preserve">
<g>
	<path fill="none" stroke="#FFFFFF" stroke-miterlimit="10" d="M153.116,76.424c0,42.139-34.159,76.297-76.303,76.297
		c-42.139,0-76.298-34.16-76.298-76.299S34.675,0.119,76.813,0.121C118.957,0.121,153.116,34.285,153.116,76.424z"/>
	<g>
		<line fill="none" stroke="#F1F1F1" stroke-width="8" stroke-miterlimit="10" x1="56.581" y1="51.607" x2="56.581" y2="92.795"/>
		<line fill="none" stroke="#F1F1F1" stroke-width="8" stroke-miterlimit="10" x1="99.057" y1="96.654" x2="52.72" y2="96.654"/>
		<g>
			<polygon fill="#FFFFFF" points="64.676,82.727 69.025,85.877 79.523,71.385 75.169,68.229 			"/>
			<polygon fill="#FFFFFF" points="86.522,83.086 72.026,72.58 75.169,68.229 89.67,78.74 			"/>
			
				<rect x="88.484" y="60.456" transform="matrix(0.8104 0.5859 -0.5859 0.8104 59.5279 -39.7482)" fill="#FFFFFF" width="5.373" height="23.268"/>
			<polygon fill="#FFFFFF" points="108.047,48.619 103.023,66.322 92.787,58.898 			"/>
		</g>
	</g>
</g>
</svg>
